<?xml version="1.0" standalone="no"?>
<!DOCTYPE svg PUBLIC "-//W3C//DTD SVG 1.1//EN" "http://www.w3.org/Graphics/SVG/1.1/DTD/svg11.dtd" >
<svg xmlns="http://www.w3.org/2000/svg">
<metadata></metadata>
<defs>
<font id="nigma_scrawl_4_brkregular" horiz-adv-x="1036" >
<font-face units-per-em="2048" ascent="1638" descent="-410" />
<missing-glyph horiz-adv-x="819" />
<glyph unicode="&#xd;" horiz-adv-x="2048" />
<glyph unicode=" "  horiz-adv-x="819" />
<glyph unicode="&#x09;" horiz-adv-x="819" />
<glyph unicode="&#xa0;" horiz-adv-x="819" />
<glyph unicode="!" horiz-adv-x="731" d="M20 172v49q0 39 16.5 86t45.5 86t67.5 65.5t81.5 26.5q49 0 93.5 -27.5t58.5 -80.5v-49q0 -43 -18.5 -89t-49 -84t-72.5 -63.5t-87 -25.5q-49 0 -83.5 31.5t-52.5 74.5zM110 967q-1 41 9 75q6 23 23.5 78.5t38 116.5t38 115.5t23.5 77.5q18 55 46.5 116.5t69.5 112.5 t94.5 84t120.5 33q37 0 63 -20.5t42 -51.5t24.5 -66.5t8.5 -66.5v-27l-41 -295q0 -8 -10.5 -35.5t-14.5 -37.5q-6 -14 -18.5 -42t-25.5 -57.5t-24.5 -53.5t-13.5 -30q-6 -12 -23.5 -39.5t-37 -59.5t-36.5 -59.5t-26 -37.5q-41 -43 -91 -87t-116 -44q-55 0 -83.5 42t-38.5 89 v94q0 35 -1 76z" />
<glyph unicode="&#x22;" horiz-adv-x="624" d="M20 1255q0 25 2.5 61t11.5 70.5t28.5 59t56.5 24.5q39 0 62.5 -29.5t35.5 -69.5t16.5 -82t8.5 -66q6 -27 16 -49.5t10 -49.5q0 -41 -35.5 -65.5t-70.5 -24.5q-41 0 -68.5 22.5t-44 55.5t-23 71.5t-6.5 71.5zM365 1292q0 18 2 53t9 70t23.5 61.5t46.5 26.5q41 0 71 -29.5 t49.5 -72.5t28.5 -90t9 -80q0 -25 -3 -58.5t-13 -64.5t-30.5 -52.5t-55.5 -21.5q-41 0 -67.5 30t-42 71t-21.5 84.5t-6 72.5z" />
<glyph unicode="#" horiz-adv-x="1374" d="M18 897q0 45 43 57q150 2 297 25q29 12 47.5 31.5t18.5 50.5q0 51 -4 99t-4 100v65q6 16 21.5 28.5t35.5 12.5q23 0 43.5 -21.5t22.5 -44.5l16 -247q2 -25 28.5 -41.5t49.5 -16.5q31 0 62.5 2t60 11.5t50 30t30.5 55.5q2 12 8 42.5t12 64.5t12 64.5t9 43.5q12 37 35.5 51 t58.5 14q37 0 54 -11t17 -50q0 -29 -13 -45.5t-30 -40.5q-18 -29 -21 -65t-3 -70v-15q4 -6 19.5 -21.5t21.5 -19.5h41q45 0 89 5.5t89 5.5q8 0 34.5 -1.5t35.5 -1.5q20 -4 34.5 -22t14.5 -39q0 -37 -25.5 -53.5t-64.5 -23.5t-86.5 -8t-91.5 -6t-78.5 -20.5t-49.5 -48.5 q-12 -29 -14 -63.5t-2 -65.5q0 -33 25.5 -47t52.5 -14q59 0 115.5 13t115.5 13h29q27 0 33 -2q25 -10 29 -21t4 -30q0 -53 -58 -71q-10 -4 -37.5 -11.5t-57.5 -15.5t-57.5 -14.5t-37.5 -8.5q-35 -10 -72 -8t-67.5 -16.5t-44 -50t-18.5 -67.5t-7 -71.5t-9.5 -65.5 t-23.5 -48.5t-51 -18.5q-41 0 -51.5 32t-10.5 62q0 29 5.5 59t5.5 58v37q-16 16 -27.5 24.5t-34.5 8.5q-76 0 -131 -17.5t-104 -72.5q-37 -111 -33 -240q-6 -16 -25 -33h-28q-47 0 -63.5 29t-16.5 70t9 76.5t9 74.5q0 20 -4 32.5t-29 22.5q-6 0 -24.5 1.5t-37.5 3.5t-37.5 3 t-24.5 1q-35 4 -72 18t-37 55q0 29 19.5 46.5t48.5 19.5q10 0 35.5 1t54 3t55.5 3t37 1q37 6 58.5 33t32.5 61.5t13 72.5t2 69q0 25 -11 44t-38 25q-12 0 -40.5 -1t-63.5 -1q-33 0 -61.5 1t-41.5 1q-18 0 -39.5 3t-40 11.5t-32 22.5t-13.5 37zM522 618q0 -51 49 -51 q20 0 55.5 2t71 11.5t63 28t34.5 48.5q0 4 2 20.5t5 35t5 36t4 25.5v14v11l-49 49h-14h-19q-6 0 -24.5 -3t-38 -6t-38 -5.5t-24.5 -2.5q-31 -6 -47 -32.5t-23.5 -59t-9.5 -67t-2 -54.5z" />
<glyph unicode="$" horiz-adv-x="1406" d="M20 553q0 16 12.5 27.5t28.5 11.5q2 0 11.5 -2t13.5 -6q16 -6 27.5 -20.5t20.5 -33t16.5 -37t17.5 -32.5q25 -31 62.5 -67t80.5 -67.5t89 -52t87 -20.5q33 0 50.5 34t25.5 58q2 8 7 24.5t11.5 33t10.5 31t4 18.5q2 10 11 53t21.5 95t24 103.5t17.5 77.5q10 47 18 100.5 t8 102.5q0 16 -2 22.5t-16 20.5q-29 31 -54.5 54.5t-47 48t-34 53t-12.5 69.5q0 59 31 90t73 50.5t87 39t74 56.5q14 18 26.5 48t26.5 57.5t34.5 48t51.5 20.5q25 0 52.5 -11.5t51 -30.5t39 -44t15.5 -49q0 -16 -5.5 -31.5t-5.5 -32.5q0 -31 33 -48t71 -35.5t70.5 -46 t32.5 -77.5q0 -16 -2 -28t-22 -19q-4 0 -16.5 -1t-16.5 -1q-39 0 -77 17.5t-69 17.5q-25 0 -39 -25.5t-21 -57.5t-8 -63.5t-1 -43.5q0 -45 30.5 -70t59.5 -53q63 -59 126.5 -123t96.5 -148q6 -16 15.5 -42.5t18.5 -52t16 -47t7 -23.5q2 -49 3 -64q0 -74 -10.5 -120 t-37 -75.5t-69.5 -49t-109 -38.5q-4 -2 -23.5 -7t-25.5 -9q-4 0 -16.5 -6t-27.5 -13.5t-28.5 -13.5t-17.5 -8q-27 -10 -59.5 -8t-55.5 -16q-20 -16 -28.5 -38t-16.5 -40.5t-21.5 -31.5t-43.5 -13q-25 0 -39.5 17t-25.5 38.5t-23 40t-37 18.5q-14 0 -27.5 -8t-28 -17 t-29 -16.5t-30.5 -7.5q-23 0 -39 15.5t-30.5 35t-27.5 40t-30 32.5q-4 4 -24.5 13.5t-24.5 11.5q-47 27 -109.5 67.5t-119 92t-95.5 111.5t-39 126zM678 1237q0 -10 10 -22.5t25 -12.5l8 8q2 4 11 27t13 31v4q0 23 -20 22q-23 0 -35 -19.5t-12 -37.5zM694 272q0 -10 2 -18 t17 -8q10 0 22.5 23.5t23.5 60.5t22.5 80t19.5 81.5t13 69.5t5 39v43q-2 8 -10 8h-10h-13q-6 0 -8 -8q-6 -98 -28.5 -180t-55.5 -174v-17zM842 1176q0 -16 3 -24.5t19 -8.5q2 0 6 1t7 1q14 25 23 43t9 41q0 10 -3 21.5t-13 17.5q-35 -10 -43 -35.5t-8 -56.5zM901 289 q0 -33 22.5 -50.5t51.5 -17.5q35 0 83 11.5t92 34t74.5 56t30.5 80.5q0 59 -19 115.5t-50 108t-71 96.5t-83 84h-12q-39 0 -45 -41l-74 -461v-16z" />
<glyph unicode="%" horiz-adv-x="1118" d="M20 106q0 27 6.5 48.5t17.5 44t27.5 49t39.5 63.5q20 37 44.5 77t45 73t34 55.5t15.5 26.5l444 592q4 6 31 48t60.5 97t68.5 111.5t55 89.5q2 4 11.5 22.5t19.5 39t20.5 38.5t14.5 23q10 16 28.5 32.5t40.5 16.5q29 0 41.5 -20.5t12.5 -45.5v-24q-59 -129 -127 -249 t-154 -237q-14 -18 -44 -56t-67.5 -87t-78.5 -102.5t-79 -102.5t-66.5 -88t-41.5 -57q-12 -16 -40.5 -59.5t-60.5 -91.5t-59.5 -91t-37.5 -61q-18 -33 -26.5 -76t-21 -82t-35 -65.5t-67.5 -26.5q-72 -1 -72 75zM119 1278q0 72 39 152.5t100 148.5t138 113t151 45 q29 0 60.5 -5.5t59 -19.5t45 -36.5t17.5 -59.5q0 -51 -21.5 -104.5t-45.5 -96.5q-8 -10 -31 -37.5t-47.5 -57.5t-47 -57.5t-30.5 -37.5q-25 -29 -48.5 -47.5t-49 -29.5t-56 -16.5t-69.5 -5.5h-58q-55 18 -80.5 57.5t-25.5 94.5zM258 1325q0 -23 17.5 -37t37.5 -14 q18 0 54 20.5t70 49t59.5 60.5t25.5 56q0 23 -15 42.5t-40 19.5q-27 0 -62.5 -22.5t-68.5 -54.5t-55.5 -66t-22.5 -54zM389 176q0 74 26.5 144.5t68.5 135t91.5 124t94.5 110.5q4 4 20.5 22.5t30.5 28.5l20.5 20.5t18.5 10.5q4 2 24 2h25q63 0 113.5 -27.5t85 -72.5 t54 -102.5t19.5 -114.5q0 -29 -7 -74t-21.5 -91t-34 -86t-43.5 -59q-14 -8 -48 -30.5t-72 -47t-71.5 -47t-48.5 -30.5q-31 -20 -63.5 -23.5t-67.5 -3.5q-8 0 -32.5 1t-32.5 1q-76 20 -113 78.5t-37 130.5zM530 184q0 -14 9.5 -25.5t22.5 -19.5t27.5 -12t24.5 -4 q55 0 116 29.5t112 75.5t83.5 104.5t32.5 116.5q0 27 -6 53t-18 48.5t-32.5 37t-51.5 14.5q-27 0 -51.5 -5t-46.5 -22q-33 -25 -71 -73.5t-72 -105t-56.5 -114t-22.5 -98.5z" />
<glyph unicode="&#x26;" horiz-adv-x="1257" d="M20 195q0 72 27 144.5t55 137.5q2 6 15.5 33t29 57.5t28.5 57t18 32.5q6 14 8 21.5t2 21.5q0 27 -19.5 55.5t-31.5 49.5q-25 47 -41.5 92t-16.5 98q0 98 49.5 178t123 144.5t159.5 113t162 82.5q51 23 95 36.5t97 13.5q45 0 79 -16.5t34 -67.5q0 -20 -2 -28.5t-17 -29.5 l-401 -557q-2 -2 -9 -13t-16.5 -26.5t-18.5 -30t-13 -22.5q-8 -10 -13.5 -23.5t-5.5 -25.5q0 -18 27 -54t69 -79t93 -88t101 -82t92 -60.5t67 -23.5q4 0 14 1t14 1q68 31 138.5 76t142.5 71h8q35 0 55.5 -30.5t20.5 -59.5q0 -4 -1 -12t-1 -12q-16 -29 -54 -45.5t-78 -30.5 t-69.5 -31.5t-29.5 -46.5q0 -18 29.5 -37.5t65.5 -44t65.5 -53.5t29.5 -66q0 -39 -24.5 -60.5t-61.5 -21.5q-29 0 -46 13.5t-30.5 32t-26 40t-32.5 37.5q-14 10 -34.5 25.5t-44.5 31t-49 26t-48 10.5h-13q-8 0 -10 -3l-344 -131q-49 -18 -83 -22t-81 -4q-45 0 -89 13t-80 39 t-57.5 64.5t-21.5 88.5zM168 229q0 -29 13.5 -44t34 -24t44 -11.5t43.5 -2.5h47l262 74q33 8 33 43q0 6 -1 12.5t-7 12.5l-270 246q-14 12 -20.5 15t-22.5 3t-27.5 -6t-22.5 -29q-14 -29 -32.5 -64.5t-35 -73.5t-27.5 -77t-11 -74zM225 1001q0 -16 3 -38.5t10.5 -43 t21.5 -35t37 -14.5q16 0 22.5 6.5t22.5 28.5l303 410l8 16t9 17v8q0 25 -25 24q-10 0 -24.5 -5t-30 -12t-27.5 -14.5t-16 -9.5q-6 -4 -21.5 -15t-33 -22.5t-32 -21.5t-20.5 -14q-10 -6 -32.5 -23.5t-48 -39t-47 -41t-30.5 -27.5q-49 -60 -49 -134z" />
<glyph unicode="'" horiz-adv-x="237" d="M20 1233q0 25 1.5 58.5t9.5 62t26.5 49t53.5 20.5q43 0 64.5 -31.5t30.5 -74.5t10 -88t1 -72v-94q-10 -14 -27.5 -23.5t-33.5 -9.5q-31 0 -58.5 26.5t-44.5 47.5q-25 31 -29 61.5t-4 67.5z" />
<glyph unicode="(" horiz-adv-x="806" d="M20 651q0 150 42 286t115 257t172.5 226.5t213.5 193.5q14 10 33.5 24.5t41 27.5t44.5 22.5t41 9.5q23 0 35 -7.5t28 -27.5v-33q0 -45 -24.5 -76.5t-59 -54t-74.5 -40t-73 -34.5l-26.5 -26.5l-40 -40l-40 -40t-24.5 -26.5q-27 -27 -41 -58.5t-33 -64.5q-45 -72 -89 -137 t-60 -151q-10 -59 -21.5 -112.5t-11.5 -113.5q0 -70 27.5 -142.5t71.5 -140t98.5 -123.5t107.5 -93q25 -16 54.5 -21.5t56 -12.5t45 -24.5t18.5 -60.5q0 -33 -23.5 -52.5t-56.5 -19.5t-53 9.5t-65 25.5q-88 31 -166 102.5t-136.5 162.5t-92.5 192.5t-34 193.5z" />
<glyph unicode=")" horiz-adv-x="806" d="M20 68q0 43 47.5 69.5t111 47t129 42t100.5 54.5q111 100 171 244.5t60 293.5q0 98 -26.5 189.5t-73.5 177.5q-33 31 -59.5 59.5t-50 57t-47.5 58.5t-48 64q-14 18 -36 31.5t-41 29t-33.5 35t-14.5 48.5q0 33 19.5 52t52.5 19q51 0 90 -25.5t78 -58.5q10 -10 36.5 -37.5 t55 -57t54.5 -56.5t36 -37q41 -45 70.5 -108.5t48 -133t27.5 -139t9 -129.5v-59q0 -14 -3 -52t-7 -80t-8 -80t-6 -52q-8 -31 -25.5 -58.5t-31.5 -56.5q-6 -10 -20.5 -39t-30 -59.5t-29 -59.5t-19.5 -39q-29 -41 -90 -79t-134 -68.5t-143.5 -49t-115.5 -18.5h-53 q-20 4 -35 20.5t-15 39.5z" />
<glyph unicode="*" horiz-adv-x="921" d="M20 1417q0 20 18.5 34.5t43 24t49.5 13.5t37 6q4 0 16.5 1t25.5 3t24.5 3t17.5 1q25 14 24 37v12q-20 20 -48.5 48t-54.5 59t-44 64.5t-18 68.5v33q18 25 49 24q29 0 58.5 -24.5t57 -54t53 -54t44.5 -24.5q10 0 13 2t13 8q12 4 13 8v139q0 4 17 20.5t28 20.5q2 0 13 1 t15 1q43 0 57.5 -22.5t20.5 -49t14.5 -49t36.5 -22.5q12 0 25.5 9t27 20.5t29 20.5t33.5 9q37 0 51.5 -25.5t14.5 -56.5q0 -25 -9.5 -40t-20.5 -27t-20.5 -24.5t-9.5 -28.5q0 -10 25.5 -17.5t57.5 -20t57.5 -31.5t25.5 -54q0 -23 -17.5 -42.5t-41.5 -19.5q-25 0 -49.5 4.5 t-49.5 4.5q-16 0 -36.5 -2.5t-40 -9.5t-32.5 -20.5t-13 -33.5q0 -31 25.5 -58.5t57 -55t57 -58.5t25.5 -68q0 -29 -21.5 -47t-49.5 -18q-25 0 -48.5 13t-45 31.5t-41 40t-33.5 38.5q-25 -12 -25 -17v-106q0 -29 -22.5 -39t-44.5 -10q-51 0 -67.5 32.5t-22 70.5t-11 71 t-32.5 33q-4 0 -5 -3l-182 -180q-14 -14 -20 -15t-23 -1q-63 0 -63 59q0 23 4 39.5t20 32.5q6 8 24.5 28.5t40 43t40 42t26.5 27.5q2 0 2 8q0 25 -25.5 31t-57 12.5t-57.5 20.5t-26 55z" />
<glyph unicode="+" horiz-adv-x="747" d="M20 965q0 27 18.5 41t43.5 14q39 0 76 -9.5t75 -9.5h25q23 0 25 3q41 10 50 39.5t12 65.5t10 70.5t44 53.5h17q43 0 63.5 -23.5t32.5 -55.5t23.5 -64.5t35.5 -53.5q18 -16 45 -17t52.5 -4t43 -15.5t17.5 -51.5q0 -41 -30.5 -59.5t-68.5 -30.5t-69 -25.5t-31 -44.5v-122 q0 -20 -21.5 -30.5t-37.5 -10.5q-41 0 -59.5 23.5t-29.5 55t-22.5 65.5t-35.5 52q-2 2 -7.5 5t-9.5 3q-25 4 -73 9.5t-96 18.5t-83 39t-35 69z" />
<glyph unicode="," horiz-adv-x="419" d="M20 182q0 78 49.5 122t123.5 44q61 0 105 -21.5t85 -68.5q4 -4 10 -17.5t6 -15.5v-272q0 -37 -20.5 -90t-53 -102.5t-73.5 -85t-80 -35.5q-35 0 -60.5 19t-25.5 58q0 25 10 44.5t23.5 38t24 37t10.5 42.5q0 47 -20.5 84t-46.5 71t-46.5 68.5t-20.5 79.5z" />
<glyph unicode="-" horiz-adv-x="788" d="M18 907q0 6 1 17.5t3.5 14.5t17.5 18.5t21 19.5q23 10 53.5 13t63.5 3q35 0 66.5 -1t54.5 1q12 0 56 4t96.5 8.5t96.5 8.5t56 4q2 0 22.5 1t30.5 1q6 0 27 -1t27 -1q27 -10 43 -27.5t16 -46.5q0 -47 -38 -66.5t-79 -23.5q-131 -10 -265 -21.5t-265 -11.5q-37 0 -71 22.5 t-34 63.5z" />
<glyph unicode="." horiz-adv-x="378" d="M20 147q0 86 55.5 126t131.5 40q63 0 108 -29.5t45 -101.5q0 -41 -17 -73.5t-47 -57t-65.5 -38t-72.5 -13.5q-63 0 -100.5 44t-37.5 103z" />
<glyph unicode="/" horiz-adv-x="1091" d="M-117 -49q0 35 25 65l1012 1350q4 6 16 24.5t25.5 39t24.5 38t18 23.5q23 31 53 64.5t73 33.5q35 0 52.5 -22.5t17.5 -55.5q0 -47 -22.5 -79.5t-51.5 -65.5q-8 -8 -28.5 -29.5t-42 -44t-42 -44t-28.5 -29.5l-829 -1121q-23 -25 -45.5 -60.5t-47 -67t-54 -55.5t-66.5 -24 q-29 0 -44.5 16.5t-15.5 43.5z" />
<glyph unicode="0" horiz-adv-x="1216" d="M18 451v90q0 211 71 377.5t218 314.5q49 49 110.5 90t129.5 57q8 2 36.5 3t37.5 1q14 0 41.5 -1t31.5 -3q8 0 33 -5t51.5 -11t49 -13.5t30.5 -11.5q25 -6 38 -24.5t22.5 -40t16.5 -45t23 -37.5q45 -51 88.5 -103.5t76 -108.5t53 -118.5t20.5 -136.5q0 -92 -22.5 -171 t-61.5 -149.5t-92 -136t-113 -129.5q-86 -94 -195.5 -149.5t-238.5 -55.5q-90 0 -162.5 36t-128 96.5t-94.5 137.5t-59 158q-4 23 -7.5 44.5t-3.5 44.5zM152 508q0 -117 44 -204t130 -165q29 -27 71.5 -46t83.5 -19q76 0 158 39t155.5 99t132 133t89.5 140q23 53 28 113.5 t5 118.5q0 70 -34 155.5t-90.5 160.5t-130 125t-153.5 50q-33 0 -85 -24.5t-106.5 -58t-100.5 -69.5t-66 -61q-80 -104 -105.5 -233t-25.5 -254z" />
<glyph unicode="1" horiz-adv-x="305" d="M20 1266q0 25 9.5 48t42.5 23t48 -18.5t23 -46.5q2 -12 8.5 -37t13.5 -52.5t13 -49t8 -27.5q0 -6 3.5 -25.5t5.5 -23.5q2 -20 7 -73.5t9 -112t9 -111.5t7 -74q25 -98 28 -194.5t13 -194.5q0 -4 2 -20.5t5.5 -37t6.5 -38t3 -19.5v-71v-70q-6 -25 -27.5 -42t-46.5 -17 q-27 0 -45.5 16t-22.5 43q0 8 -3 29.5t-6 44t-5 42t-2 25.5q-12 180 -26.5 358.5t-30.5 358.5q-8 92 -29 183.5t-21 183.5z" />
<glyph unicode="2" horiz-adv-x="1134" d="M18 1343q0 27 15.5 46.5t37 33t47 19.5t48.5 6q154 0 266.5 -80t187 -202t111.5 -265t37 -272q0 -37 -3 -76t-13 -76q0 -4 -4.5 -17.5t-8.5 -28.5t-8 -28.5t-4 -15.5v-12q0 -18 28.5 -40t71.5 -47.5t93.5 -58t93.5 -74.5t71.5 -95.5t28.5 -118.5q0 -23 -15.5 -39.5 t-37.5 -16.5q-25 0 -43.5 16.5t-32.5 39t-26.5 46t-24.5 38.5q-20 25 -52 50t-69 47.5t-74.5 37t-68.5 14.5q-16 0 -31.5 -8t-26.5 -19q-41 -37 -77.5 -73.5t-76.5 -65t-86 -47t-106 -18.5q-86 0 -145.5 51t-59.5 137q0 33 12.5 72t35 71.5t54.5 54t70 21.5h289q12 8 17 12 q63 59 80.5 136t17.5 164v36q0 6 -6 35t-10 41q-6 18 -16.5 53l-21 70t-18.5 63.5t-10 34.5q-20 59 -60 115.5t-93.5 100.5t-117 71t-128.5 27q-20 0 -40 -5.5t-42 -5.5q-20 0 -38 11.5t-18 33.5zM201 137q0 -23 21.5 -43t43.5 -20q49 0 90 30.5t76 61.5v8q0 33 -30.5 41 t-55.5 8q-18 0 -42.5 -4t-48.5 -14t-39 -26.5t-15 -41.5z" />
<glyph unicode="3" horiz-adv-x="1224" d="M20 1130q0 25 15.5 43.5t38 31t48 19.5t46.5 9q12 2 36.5 5t49.5 5t45 4t27 2h18q16 0 37.5 1t44.5 1h35h26q18 0 40 -1t40 -1h29q39 -4 96.5 -16t108.5 -35.5t88 -60.5t37 -93q0 -45 -27 -84.5t-65 -62.5l-238 -141q-4 -2 -16.5 -14.5t-16.5 -18.5v-4q0 -10 8.5 -21.5 t16.5 -15.5q2 0 11 -3t13 -5q4 0 23.5 -4t42 -10.5t42 -11.5t23.5 -7q55 -16 134 -52t152 -86t124 -115.5t51 -139.5q0 -57 -32.5 -97t-80 -69t-100.5 -48.5t-92 -33.5q-86 -33 -165 -45t-171 -12q-53 0 -92 2t-71.5 13t-64.5 34.5t-69 64.5q-49 57 -49 133q0 8 1 19.5 t15 11.5h58q4 0 18.5 -16.5t32.5 -37t36.5 -38.5t29.5 -23q4 -2 23.5 -8t25.5 -8h86q123 0 225 24.5t207 82.5q23 14 44 30.5t21 44.5q0 25 -27.5 53.5t-64.5 55.5t-73.5 46t-57.5 26l-336 122q-25 8 -49 20.5t-44.5 31t-34 41t-13.5 51.5q0 37 29.5 67.5t73.5 57t95.5 50.5 t95.5 44t73.5 41.5t29.5 42.5q0 25 -20.5 42t-48 27.5t-57 14.5t-48.5 4h-305q-39 0 -75 -21.5t-77 -21.5q-4 0 -22 1t-23 1q-23 12 -32 24.5t-9 36.5z" />
<glyph unicode="4" horiz-adv-x="1069" d="M20 772q0 66 17.5 130.5t32.5 125.5q10 41 12 87t4 85q14 51 66 51q31 0 45 -20.5t19 -49t4 -60t-1 -52.5q0 -4 -1 -13t-1 -12l-49 -237q-4 -16 16.5 -34.5t32.5 -22.5q6 0 20.5 -1t28.5 -1h31h20q37 0 82 2t87 12t78 31.5t57 62.5q4 63 6 106.5t2 98.5q0 35 -4 69.5 t-4 71.5q0 18 1 40t8 40t21.5 30.5t40.5 12.5q20 0 48 -10t28 -39l16 -404q14 -20 19 -24q2 -4 8 -13.5t14.5 -20.5t15.5 -20.5t11 -11.5q0 -4 1 -13t1 -11q0 -20 -9 -35.5t-21.5 -31t-21.5 -31t-9 -33.5v-11q0 -16 2 -39.5t3 -47t3 -41t2 -19.5q10 -74 23.5 -160t41.5 -162 q12 -33 45 -32q12 0 21.5 7l19 14t19.5 14.5t22 7.5q23 0 38.5 -16.5t15.5 -39.5q0 -33 -13.5 -64.5t-35 -56t-50 -40t-61.5 -15.5q-47 0 -81 25.5t-57.5 63.5t-37 82t-19.5 83q-4 25 -12 83.5t-17.5 124t-17.5 123.5t-10 81q-6 18 -25.5 34.5t-40.5 16.5 q-78 0 -159.5 -21.5t-165.5 -21.5q-41 0 -82 9t-73 28.5t-51.5 52.5t-19.5 82z" />
<glyph unicode="5" horiz-adv-x="1175" d="M20 1241q0 39 35 62.5t81 37t92 18.5t71 5q92 6 189.5 12t189.5 6h33q27 0 32 -2q23 -8 41.5 -23.5t18.5 -41.5q0 -14 -9.5 -29.5t-22.5 -28t-29.5 -20.5t-30.5 -8h-402q-29 0 -56.5 -22.5t-27.5 -51.5v-12q10 -41 18.5 -72t14.5 -61.5t10 -63.5t6 -74q4 -18 22.5 -36.5 t37.5 -22.5q35 16 64.5 17t66.5 1q96 0 216 -46t225.5 -122.5t177 -177t71.5 -209.5q0 -74 -27.5 -119.5t-72.5 -73.5t-103.5 -44t-117.5 -31q-23 -8 -37.5 -12t-27.5 -8t-17 -4h-263q-2 0 -25.5 5t-55 13t-64.5 16.5t-53 14.5q-29 8 -66 24.5t-69.5 41t-55 54t-22.5 66.5 q0 39 28.5 62.5t65.5 23.5h29q23 -16 35 -49t22 -51q10 -16 29.5 -22.5t38.5 -10.5q16 -2 59 -9t92 -15.5t92 -15.5t60 -9h28q31 0 92.5 9t122 28.5t106.5 51.5t46 75q0 37 -23.5 76.5t-56.5 76.5t-70.5 67t-64.5 44l-213 106q-29 14 -59.5 24.5t-63.5 10.5q-35 0 -64.5 -11 t-58 -23.5t-58.5 -23.5t-63 -11q-4 0 -18 1t-18 1q-12 10 -25.5 24.5t-15.5 32.5q-2 86 -10.5 171t-30.5 167q0 4 -4.5 17.5t-10.5 28.5t-11 29.5t-7 22.5q-12 35 -35 60.5t-23 62.5z" />
<glyph unicode="6" horiz-adv-x="897" d="M20 428v16q2 25 6.5 70t8.5 91t7 83t3 45q2 25 8 72t13.5 94t12.5 82t7 39l115 395q12 41 40.5 79t75.5 38h25q41 -37 53.5 -64.5t12.5 -81.5q0 -45 -14.5 -64t-33 -31.5t-38 -26t-29.5 -45.5q-45 -135 -81 -290t-36 -298q0 -16 5 -27.5t24 -11.5q23 0 43 10t39.5 25.5 l39 31t40.5 25.5q45 18 94 21.5t96 3.5q57 0 101 -8.5t87 -49.5q27 -25 50.5 -46t42 -44.5t29 -51.5t10.5 -63q0 -59 -15.5 -114.5t-58.5 -100.5q-43 -47 -89 -96t-99.5 -90t-113 -67.5t-126.5 -26.5q-115 0 -184.5 34.5t-107.5 97t-50.5 151t-12.5 194.5zM225 330 q0 -41 18.5 -75t48.5 -57.5t67.5 -37t76.5 -13.5q53 0 107.5 24t97.5 61.5t69.5 89t26.5 106.5q0 37 -19.5 66.5t-49 49t-65.5 31t-68 11.5q-47 0 -85 -14.5t-72 -37t-64.5 -53l-61.5 -61.5q-14 -25 -20.5 -43t-6.5 -47z" />
<glyph unicode="7" horiz-adv-x="1003" d="M20 1380q0 25 9.5 42.5t40.5 17.5q27 0 47 -11.5t43 -21.5q49 -18 98 -29.5t102 -11.5q106 0 210 8t208 25q4 0 19.5 4t34 8t34 8t19.5 4h18q41 0 60.5 -16t19.5 -57v-33q-37 -74 -60.5 -148.5t-54.5 -148.5q-4 -8 -16 -36t-28.5 -63.5t-34 -76.5t-34 -78t-28.5 -64.5 t-16 -35.5q-4 -10 -16.5 -47t-28 -80t-28.5 -81t-17 -46q-4 -10 -22.5 -48t-39 -81t-39 -80t-22.5 -47q-8 -16 -16.5 -42t-18.5 -49.5t-26.5 -40t-41.5 -16.5q-18 0 -30.5 4.5t-22.5 20.5q0 4 -1 22.5t-1 22.5q0 45 13.5 88t33 84t41 81t37.5 81q4 12 17.5 48t33 85 t39.5 104.5t39.5 104.5t33 86t17.5 49q2 6 14.5 32.5t26.5 57.5t26.5 57.5t14.5 32.5q8 16 21.5 54t13.5 63q0 16 -16.5 32.5t-32.5 16.5q-61 0 -121 -9t-121 -9h-121q-29 2 -84 11t-109.5 28.5t-95.5 50t-41 73.5z" />
<glyph unicode="8" horiz-adv-x="1159" d="M20 180q0 84 28 165t74 154.5t103.5 139.5t116.5 119q14 12 29.5 22.5t30 21.5t24.5 25.5t14 36.5q-20 35 -39.5 75t-19.5 83q0 63 22.5 122.5t57.5 114t77 103.5t83 94q14 14 22 31.5t17.5 32t21.5 24.5t37 10q37 0 91 -27.5t107.5 -66.5t98.5 -79t65 -64 q18 -23 21.5 -49.5t3.5 -53.5q0 -66 -23.5 -116.5t-66.5 -102.5q-2 -4 -12.5 -14t-23.5 -22.5t-24.5 -23.5t-13.5 -13q-8 -10 -21.5 -31t-13.5 -31t11.5 -25.5t15.5 -19.5q31 -39 66.5 -80t66.5 -85t51.5 -92t20.5 -101t-11.5 -101.5t-46.5 -91.5q-63 -74 -144 -148.5 t-173 -135t-192.5 -98.5t-204.5 -38q-156 0 -251.5 87t-95.5 249zM160 195q0 -104 57 -162t162 -58q70 0 137.5 24t131 61.5t120.5 82.5t109 88q16 14 40.5 36t46 48.5t37 55t15.5 57.5q0 49 -16.5 89t-44 70.5t-63.5 56.5t-75 48q-12 6 -21.5 19.5t-16.5 30t-15 31.5 t-21 26h-32q-47 0 -105.5 -25.5t-117 -64.5t-106.5 -84t-73 -82q-27 -41 -53.5 -82t-48 -84t-34.5 -88t-13 -94zM522 1040q0 -39 11.5 -57t46.5 -45h20q45 0 111.5 17.5t126 51t102.5 80t43 105.5q0 33 -34 62.5t-78 50t-87 33t-61 12.5q-31 0 -65.5 -36t-64.5 -86 t-50.5 -102.5t-20.5 -85.5z" />
<glyph unicode="9" horiz-adv-x="880" d="M20 1059q0 80 52.5 146.5t128 115.5t160.5 76.5t153 27.5q55 0 116.5 -15t113 -46t84 -78t32.5 -110q0 -39 -12 -71t-30.5 -60.5t-38 -58.5t-34.5 -64q-2 -4 -8 -22.5t-8 -27.5q-4 -12 -16.5 -57t-25.5 -98t-25.5 -99.5t-16.5 -58.5q-20 -76 -47 -153.5t-27 -157.5 q0 -35 9.5 -64.5t9.5 -64.5q0 -23 -7.5 -52.5t-21.5 -56t-35.5 -44t-48.5 -17.5q-39 0 -58.5 26.5t-19.5 61.5q0 88 13.5 180t35 182t48 179.5t51.5 171.5q0 2 1 8t1 8q0 16 -11.5 28.5t-27.5 12.5q-29 0 -56.5 -8t-58.5 -8q-61 0 -127.5 13t-122 45t-90.5 83t-35 127z M160 1067q0 -45 24.5 -72.5t61.5 -44t79 -22.5t76 -6q31 0 68 11t70.5 31.5t60.5 48t37 58.5q2 6 6 24.5t8 40t7.5 40t5.5 26.5v12q0 27 -14.5 43.5t-35 24.5t-45 10t-43.5 2q-43 0 -105.5 -17t-120.5 -48t-99 -73t-41 -89z" />
<glyph unicode=":" horiz-adv-x="378" d="M20 295q0 31 12.5 67.5t34 67.5t52.5 51.5t65 20.5q33 0 59.5 -21.5t45 -54.5t28 -68.5t9.5 -62.5v-41q-35 -41 -82 -65.5t-103 -24.5q-59 0 -90 37t-31 94zM37 922v57q0 37 9 72.5t29.5 63.5t51.5 45.5t72 17.5q74 0 116.5 -44t42.5 -118v-45q-25 -55 -83 -97.5 t-119 -42.5q-41 0 -75 26t-44 65z" />
<glyph unicode=";" horiz-adv-x="608" d="M18 -229q0 37 33 55t72 33.5t71.5 36t32.5 61.5q0 27 -24.5 56.5t-34.5 54.5v49q0 33 10 69.5t30.5 67.5t50.5 50.5t69 19.5q72 0 108.5 -51.5t36.5 -114.5q0 -47 -10 -78t-22.5 -78t-23.5 -87t-27.5 -76t-44.5 -67.5t-71 -58.5q-10 -6 -27.5 -15t-21.5 -9h-123 q-29 0 -56.5 27.5t-27.5 54.5zM250 907q0 33 11 66t31.5 60.5t50.5 45t65 17.5q74 0 127 -49.5t53 -124.5q0 -31 -10.5 -62t-29 -55.5t-46 -39.5t-62.5 -15t-68.5 11t-60 30.5t-44 49t-17.5 66.5z" />
<glyph unicode="&#x3c;" horiz-adv-x="1093" d="M20 707q0 23 11.5 50t29.5 40l897 626q18 12 26.5 14.5t25.5 2.5q63 0 63 -60q0 -31 -14.5 -56.5t-37 -44.5t-50 -31.5t-53.5 -14.5l-676 -469q-6 -39 -9 -49v-8q0 -20 17 -33l700 -461q39 -4 73 -27.5t34 -66.5q0 -35 -19.5 -48.5t-52.5 -13.5q-23 0 -31 1t-28 16 l-848 559q-23 14 -40.5 30.5t-17.5 43.5z" />
<glyph unicode="=" horiz-adv-x="796" d="M20 817q0 45 35 65.5t76 20.5h12q8 -2 32 -6t49.5 -9t49 -8t33.5 -6h387q18 0 42 -25.5t24 -43.5q0 -31 -19.5 -51.5t-46.5 -30.5h-43q-31 0 -64.5 -1t-64.5 -1h-41q-106 0 -198.5 1t-196.5 17q-27 10 -46.5 29.5t-19.5 48.5zM37 1071q0 27 9 38t32 26q8 2 32.5 8t52 12 t52.5 12.5t35 8.5q8 0 45 1t79 3t77.5 3t46.5 1q6 0 27.5 2t46 5t46 6t27.5 3h41h41q23 -12 36 -27.5t13 -42.5v-20q-16 -18 -27.5 -30.5t-22.5 -19.5t-26.5 -11.5t-37.5 -6.5q-135 -10 -270.5 -25.5t-270.5 -15.5q-35 0 -59.5 17.5t-24.5 52.5z" />
<glyph unicode="&#x3e;" horiz-adv-x="1093" d="M20 115q0 23 11.5 37t29.5 28l799 633v59l-493 312q-23 14 -50 14q-25 0 -51 19q-4 0 -17 1t-27.5 3t-27 3t-18.5 1q-2 0 -8 3t-8 5q-12 12 -34 31.5t-41 41t-33.5 45t-14.5 48.5q0 33 29.5 53.5t60.5 20.5q16 0 24.5 -3.5t24.5 -13.5l864 -543q33 -20 33 -63 q0 -23 -7 -34t-26 -28l-897 -706q-16 -12 -28.5 -18.5t-32.5 -6.5q-27 0 -44.5 14.5t-17.5 43.5z" />
<glyph unicode="?" horiz-adv-x="1167" d="M20 1069v41q0 53 16.5 113.5t57.5 99.5l322 305q35 33 78 63.5t91 55.5t98 40t99 15q72 0 137.5 -49t116.5 -121.5t81 -154.5t30 -150q0 -100 -35 -156.5t-91 -86t-129 -43t-149 -29.5q-23 -6 -46 -12.5t-43.5 -17.5t-34 -29.5t-15.5 -47.5q0 -6 -1 -30.5t-3 -52 t-3 -52.5t-1 -31q0 -10 -3 -36.5t-7 -57.5t-8.5 -58.5t-6.5 -35.5q-10 -25 -23 -30t-34 -5q-35 0 -52.5 26.5t-21.5 57.5q0 8 -1 35t-1 35q0 39 5.5 76.5t5.5 74.5q0 39 -5.5 76t-5.5 76q0 70 42 105.5t105.5 52t137.5 24.5t137.5 24.5t105.5 51.5t42 104q0 39 -23.5 93.5 t-58.5 101.5t-78 81t-82 34q-37 0 -83 -17.5t-90 -43t-83 -57.5t-61 -63q-4 -4 -13.5 -18t-18.5 -31.5t-16.5 -32t-9.5 -18.5q-6 -6 -28.5 -35t-47 -62.5t-46 -62t-27.5 -37.5q-14 -18 -27.5 -44.5t-31 -49t-38 -39t-51.5 -16.5q-29 0 -44 13t-30 38zM307 123 q0 37 14.5 73.5t40 66.5t59.5 48.5t73 18.5q53 0 91 -39t38 -92q0 -35 -15.5 -60.5t-39 -47t-51.5 -39t-52 -36.5q-14 -10 -26.5 -9t-30.5 1q-49 0 -75 34t-26 81z" />
<glyph unicode="@" horiz-adv-x="1406" d="M18 674q0 231 94.5 412.5t262.5 336.5q51 49 117.5 90t139.5 71t147.5 46.5t146.5 16.5q106 0 177 -54.5t114 -136.5t61 -180t18 -186q0 -55 -9 -120t-33.5 -120t-69.5 -91t-115 -36q-25 0 -46.5 9t-41.5 20.5t-40.5 20.5t-43.5 9q-25 0 -50.5 -9t-53 -20.5t-59.5 -20.5 t-66 -9q-74 0 -130.5 48t-56.5 126q0 55 34 105.5t85 89t109.5 62.5t107.5 24q68 0 107 -21.5t60.5 -55.5t29.5 -72t14 -71.5t16.5 -55t36.5 -21.5q16 0 29.5 10t24 25.5t15.5 33t5 29.5v223q-8 29 -13 48.5t-11.5 40t-8.5 34.5q-23 86 -76 138.5t-139 52.5q-8 0 -23.5 -1.5 t-17.5 -1.5t-20.5 -6t-41 -14t-44 -16.5t-31.5 -12.5q-184 -74 -313 -188.5t-191 -304.5q-23 -72 -40 -142.5t-17 -146.5q0 -242 135 -376t377 -134q39 0 84 3t89 9t86 17.5t77 27.5q78 37 149.5 77t155.5 40h41q20 -8 23.5 -20.5t3.5 -28.5q0 -23 -16.5 -41t-38 -33.5 t-44 -26t-35.5 -16.5q-123 -63 -248.5 -113.5t-267.5 -50.5q-158 0 -290 41t-227 124t-149.5 206t-54.5 287zM629 907q0 -16 18.5 -33.5t34.5 -17.5q25 0 56.5 9t58 26.5t45 42t18.5 53.5q0 23 -19.5 37t-37.5 14q-20 0 -50 -12t-57.5 -31.5t-47 -43.5t-19.5 -44z" />
<glyph unicode="A" horiz-adv-x="937" d="M20 141q0 31 7.5 59.5t16.5 58.5t17.5 58.5t8.5 59.5q0 23 -4.5 46t-4.5 48q0 16 10.5 33.5t24 34t26.5 30t21 23.5q14 18 21.5 44t10.5 53.5t4 53t5 48.5q2 2 4 15t5 17q20 61 33.5 103.5t25.5 101.5q2 18 8 62.5t14.5 94.5t15.5 94t11 62q8 25 23.5 41.5t42.5 16.5 q29 0 46 -16.5t27 -41.5l254 -708q2 -12 10.5 -41t17.5 -61.5t18.5 -61.5t13.5 -41q14 -51 41.5 -89t54.5 -76t47.5 -82t20.5 -107q0 -35 -20.5 -58.5t-57.5 -23.5q-41 0 -71 34.5t-54.5 83t-47 98.5t-46.5 81q-18 25 -56.5 45t-82.5 35.5t-86.5 24.5t-71.5 9 q-37 0 -57.5 -25.5t-32 -64.5t-19.5 -83t-21.5 -82.5t-38 -64.5t-67.5 -26q-35 0 -51.5 26t-16.5 58zM307 608q0 -23 24.5 -41t43.5 -24q6 -2 24.5 -7.5t41 -9.5t43 -9t30.5 -7h14h11q10 4 22 16.5t10 16.5l-122 362q-4 10 -12.5 21.5t-20.5 11.5q-23 0 -34 -18.5t-15 -38.5 q-4 -14 -12.5 -52t-17.5 -80t-17.5 -80t-10.5 -53q-2 -6 -2 -8z" />
<glyph unicode="B" horiz-adv-x="1595" d="M20 1370q0 41 28 64.5t63 38.5q16 2 56 6t84 8t84 7t56 3h39h35q8 0 31.5 -3t51 -7t52.5 -8t37 -6q86 -14 166 -49t155 -66q55 -23 102.5 -65t47.5 -105q0 -68 -38 -114t-83 -78.5t-83 -56.5t-38 -46q0 -23 35 -37t79 -23.5t88 -14.5t62 -11q41 -16 84 -48t72 -59 q57 -53 109.5 -107t92.5 -113.5t63.5 -128t23.5 -150.5q0 -68 -23.5 -125.5t-91.5 -91.5q-12 -6 -40.5 -20.5t-61.5 -30t-62.5 -29t-42.5 -19.5q-31 -10 -63.5 -13t-66 -5t-66.5 -4t-66 -10h-403q-41 0 -104.5 15t-125 45t-105.5 71t-44 90q0 27 8 53.5t24.5 48t39 34.5 t51.5 13q59 0 59 -63q0 -18 -8 -32.5t-8 -33.5q0 -27 24.5 -43t57 -27.5t65.5 -16.5t49 -7q53 -6 108.5 -7t108.5 -1h72q6 0 44 4t86 9t96.5 10t76.5 10q31 4 79 19t93 40t77 58.5t32 72.5q0 45 -20.5 92t-37.5 88q-12 29 -33.5 56.5t-46 53t-50 48t-44.5 39.5 q-45 43 -111.5 69.5t-140 43t-146.5 22.5t-128 6h-65q-27 -10 -43.5 -26.5t-16.5 -47.5q0 -4 1 -13t1 -11q2 -18 8.5 -63.5t12.5 -94.5t12 -93t8 -62q0 -4 1 -28t1 -34q0 -8 -1 -31.5t-1 -29.5q-4 -23 -23.5 -37.5t-41.5 -14.5q-45 0 -58 43q-4 117 -21.5 235t-43.5 234 q-4 18 -13.5 33t-19.5 29t-18.5 29.5t-8.5 37.5q0 31 13.5 57.5t13.5 57.5q0 59 -19.5 107.5t-29.5 107.5q-4 14 -6 59.5t-2 79.5v35q-4 12 -15.5 26.5t-25.5 14.5q-16 0 -26.5 -13t-23 -28.5t-26.5 -29t-39 -13.5q-23 0 -48.5 9.5t-48 27t-38 39t-15.5 45.5zM481 1309 q2 -4 8.5 -20.5t8.5 -20.5l8 -25q2 -12 8 -46t12 -70.5t12.5 -69.5t8.5 -45q-4 -20 9 -51t40 -31t59.5 19.5t55.5 29.5q37 18 68.5 34.5t59 36t54.5 44t57 57.5q2 2 5 8t3 10q-6 37 -40.5 57.5t-78.5 34t-89 21.5t-72 18q-23 8 -37 14.5t-27.5 10.5t-29 6t-37.5 2h-49 q-4 -2 -9.5 -8t-7.5 -8v-4v-4z" />
<glyph unicode="C" horiz-adv-x="1232" d="M20 727q0 135 37 244.5t127 212.5q8 10 22.5 25.5t31 29.5t35 24.5t34.5 10.5h199q16 0 34.5 -20.5t22.5 -36.5q0 -4 2 -17.5t5 -29t6.5 -29t3.5 -15.5q0 -4 6 -18t13 -30.5t13 -31t9 -18.5q10 -25 9 -43t-1 -47v-59q-10 -16 -25.5 -33t-40.5 -17q-31 0 -49 22.5 t-30.5 56.5t-21.5 74t-21.5 74t-29 56.5t-42.5 22.5q-35 0 -62.5 -26t-48.5 -48q-57 -66 -77.5 -155t-20.5 -175q0 -199 95 -351.5t275 -232.5q31 -14 62 -19t65 -5q45 0 93.5 14.5t95.5 35t93 45t85 44.5q29 16 61.5 38t67.5 22q31 0 45 -12.5t14 -45.5v-18 q-4 -6 -19 -21.5t-22 -19.5q-66 -41 -126 -81t-122.5 -70.5t-130 -50t-145.5 -19.5q-152 0 -268.5 64.5t-196.5 170t-121 238.5t-41 270z" />
<glyph unicode="D" horiz-adv-x="1325" d="M20 1298q0 29 15.5 48.5t46.5 19.5q27 0 57.5 -11.5t53.5 -21.5l520 -246q76 -37 177 -103t193.5 -152.5t157 -184.5t64.5 -196q0 -72 -26 -128.5t-73 -107.5l-125 -125q-27 -25 -61.5 -36t-69.5 -21q-6 -2 -30.5 -11.5t-52 -18.5t-51 -17.5t-30.5 -10.5q-37 -10 -75 -10 h-74h-25q-14 0 -28.5 1t-26.5 1h-10q-4 0 -24.5 4t-47 9.5t-52.5 10.5t-40 9q-23 6 -53.5 17.5t-59 27.5t-49 37.5t-20.5 48.5q0 51 49 51q23 0 42 -9t42 -9q16 0 26.5 10t14.5 25q-66 223 -108 446q-35 187 -35 384q0 37 1 75q-10 39 -44.5 58.5t-71.5 35.5t-67 36.5 t-30 63.5zM367 1010q0 -135 29.5 -268.5t60.5 -264.5q2 -6 7 -27.5t9 -46t9 -46t7 -27.5q2 -4 9.5 -18.5t15.5 -32t15.5 -32t9.5 -16.5q10 -23 9 -47t15 -45q18 -23 31.5 -28t42.5 -5q59 0 149.5 24t174 67t144 106.5t60.5 142.5q0 49 -28.5 100.5t-70.5 98.5t-87 88t-78 66 q-10 8 -32.5 23.5t-46 30.5t-43 27.5t-25.5 16.5q-10 6 -42 22.5t-69 36t-71.5 38t-49.5 26.5q-20 8 -33.5 14t-26.5 11.5t-22 9.5l-24 8q-18 0 -33.5 -18.5t-15.5 -34.5z" />
<glyph unicode="E" horiz-adv-x="1011" d="M20 289q0 59 18.5 127.5t55.5 118.5q14 18 50 52t73 68.5t64.5 65.5t27.5 45q0 29 -44 56.5t-96 64.5t-96 88t-44 127q0 66 27.5 107.5t71.5 65t98.5 33t107.5 9.5q35 0 96.5 -9.5t120.5 -30t102 -56t43 -86.5q0 -27 -11 -50.5t-42 -23.5q-29 0 -52.5 15.5t-45 33.5 t-45 33.5t-51.5 15.5h-199q-25 0 -53.5 -18.5t-28.5 -46.5q0 -16 12.5 -31.5t20.5 -26.5q47 -53 110.5 -83.5t128.5 -47.5q8 -2 39 -9t68 -15.5t67.5 -15.5t38.5 -9q29 -6 52.5 -25.5t23.5 -48.5q0 -33 -22.5 -50t-53 -26.5t-62.5 -13.5t-52 -10q-63 -20 -129 -54t-120 -82 t-88 -108.5t-34 -136.5q0 -47 26.5 -79t65.5 -52t85 -29.5t83 -9.5h45q6 0 26.5 5t43 11.5t43 11.5t26.5 5q8 2 26.5 5t39 6t40 6t34.5 7q27 8 49 23.5t45.5 31t47.5 27t50 11.5q47 0 47 -48q0 -29 -27.5 -55t-69.5 -52t-94 -48.5t-100.5 -38.5t-87.5 -26.5t-57 -12.5 q-41 -8 -80 -8h-78q-70 0 -137 16.5t-120.5 52t-86.5 92t-33 136.5z" />
<glyph unicode="F" horiz-adv-x="913" d="M20 1210v27q0 33 12.5 50.5t45.5 29.5q150 2 301 12t299 29q6 0 33.5 8t33.5 8q2 0 16.5 1t20.5 1q47 0 79 -25.5t32 -74.5q0 -31 -18.5 -45t-47.5 -14t-53 5t-53 5h-43q-18 -4 -63.5 -10.5t-96.5 -12.5t-96 -11t-64 -7q-6 0 -22.5 -1t-34.5 -3t-34.5 -3t-22.5 -1 q-20 -12 -31.5 -24.5t-11.5 -35.5v-16q2 -10 9 -37t15 -57.5t15.5 -58t11.5 -36.5q4 -16 11 -40.5t19.5 -49t29 -43t38.5 -22.5q50 3 100 3q42 0 82 -2q90 -5 181 -26q25 -12 24 -18v-58q0 -6 -7 -10t-16 -7t-16.5 -5t-9.5 -2q-63 -10 -123.5 -12.5t-124.5 -4.5 q-33 -8 -50 -25.5t-17 -51.5q0 -111 35 -209q2 -4 9 -18.5t16 -31t16.5 -32t7.5 -19.5q2 -27 2 -34q0 -23 -5 -47.5t-15.5 -44t-30 -33t-46.5 -13.5q-49 0 -69 49q-2 4 -5 13.5t-3 11.5q0 4 -1 22.5t-3 40t-3.5 39t-1.5 21.5q0 6 -5 31.5t-12 58.5t-14 65.5t-12 51.5 q0 2 -3 11t-5 13q0 4 -6 18.5t-13 31t-13.5 31t-8.5 18.5q0 4 -3 22.5t-6 40t-5 38.5t-2 22q0 4 -3 16t-5 18q-2 8 -12.5 39t-20.5 68t-20.5 67.5t-12.5 38.5q-2 4 -6 23.5t-10 42t-10.5 42t-6.5 24t-9 21.5t-14 38.5t-12.5 40t-5.5 24.5z" />
<glyph unicode="G" horiz-adv-x="1126" d="M20 492q0 135 42 275t119 263t186.5 217t244.5 135h99q49 0 116.5 -11t130 -37.5t105.5 -71.5t43 -111q0 -47 -31 -81t-78 -34q-18 0 -34.5 14.5t-30.5 33t-27.5 38t-27.5 29.5q-6 4 -20.5 10t-31 12.5t-33 11.5t-24.5 7h-18q-12 0 -26.5 1t-27.5 1h-18h-57 q-43 0 -87.5 -9t-68.5 -50q-2 -4 -9 -17.5t-15.5 -29t-15.5 -28.5t-9 -16q-12 -20 -33 -41.5t-43.5 -42t-41.5 -39t-32 -32.5q-59 -80 -82.5 -186.5t-23.5 -204.5q0 -176 77.5 -259t256.5 -83q33 0 65.5 8t64 17t63.5 17.5t67 8.5q23 0 40 -14.5t17 -36.5q0 -37 -41 -61.5 t-94 -40t-105.5 -22.5t-74.5 -7q-236 0 -356 112.5t-120 354.5zM506 633q0 49 34.5 66.5t75.5 17.5q92 0 182.5 -11.5t184.5 -23.5q57 -20 74 -82v-25q0 -16 1 -34.5t1 -36.5v-23v-32q0 -18 -1 -37t-1 -33v-17q-2 -12 -8.5 -42.5t-12.5 -64.5t-12 -64.5t-8 -43.5 q0 -2 -1 -11t-1 -13q0 -29 9 -53.5t9 -53.5q0 -23 -18.5 -36t-40.5 -13q-33 0 -55.5 31.5t-32.5 58.5q-2 6 -2 31v31q0 80 17.5 156.5t17.5 156.5v53q-12 25 -41 39.5t-63 21.5t-67.5 10t-56.5 3q-27 0 -48 -8t-50 -8h-37q-23 18 -36 39.5t-13 50.5z" />
<glyph unicode="H" horiz-adv-x="806" d="M20 1186v123q0 25 23 29.5t37 4.5q31 0 44 -23.5t19 -51.5q2 -18 10.5 -66.5t17.5 -103t17.5 -102.5t12.5 -66q6 -27 9 -63t12 -68.5t28.5 -58t58.5 -31.5q8 -2 25.5 -5.5t36 -5.5t34 -4t19.5 -2q2 0 23.5 -1t31.5 -1q20 0 46 1t48.5 9.5t41 22.5t24.5 43q6 55 7 94t1 92 q0 156 -41 316q-10 35 -26.5 68.5t-16.5 72.5q0 66 68 66q37 0 56.5 -27t33.5 -57q31 -125 48 -238t17 -242v-71l-49 -510v-23q0 -20 7.5 -36.5t16.5 -32t17 -33t8 -37.5q0 -78 -81 -78q-45 0 -73 33t-36 74v96q0 63 2 110.5t16 114.5q-2 23 -16 37t-35 14q-61 0 -123.5 -7 t-122.5 -11q-16 -4 -36.5 -21.5t-20.5 -35.5v-281q6 -25 7 -42t1 -40q0 -31 -17.5 -60.5t-53.5 -29.5q-33 0 -51.5 22.5t-26.5 51.5q4 88 4 175q1 184 -17 364q-26 264 -86 532z" />
<glyph unicode="I" horiz-adv-x="296" d="M18 1167q0 20 7.5 49t20.5 53.5t33.5 42t47.5 17.5q33 0 55.5 -25.5t35.5 -64.5t20.5 -87t10.5 -93t5 -82t6 -53v-33q0 -23 1 -48.5t1 -49.5v-31q0 -117 -14.5 -228.5t-14.5 -228.5q0 -20 7.5 -36.5t14.5 -33l14 -33t7 -34.5q0 -27 -17 -41t-42 -14q-51 0 -84 34.5 t-39 81.5v84q0 123 13.5 244t13.5 244v20q0 14 -1 31.5t-1 32.5v22q-16 35 -33.5 64.5t-33 59.5t-25 62.5t-9.5 73.5z" />
<glyph unicode="J" horiz-adv-x="987" d="M20 250q0 20 2.5 54t11.5 66.5t25.5 57.5t44.5 25q35 0 48.5 -30t15.5 -61q0 -8 1 -27.5t1 -41.5q0 -23 -1 -43.5t-1 -28.5q41 -47 106.5 -64.5t124.5 -17.5q51 0 111.5 18.5t101.5 30.5q70 25 90 101q2 4 3 28v33v33q0 27 -3 29q0 8 -3 28.5t-7 44t-8 44t-6 30.5 t-13.5 56.5t-25.5 102.5t-28.5 111.5t-22.5 83.5q-18 70 -54 122t-77 108q-14 20 -25.5 43.5t-32.5 40.5q-29 20 -54.5 31.5t-50 23.5t-49 28.5t-52.5 47.5q-6 8 -7.5 13t-1.5 15q0 27 18.5 41.5t43.5 14.5q29 0 56.5 -9.5t53 -21.5t53 -23.5t56.5 -13.5l444 -24 q29 -2 43.5 -20.5t14.5 -43.5v-18q-4 -10 -16.5 -23.5t-16.5 -13.5h-272q-10 0 -25.5 -18.5t-15.5 -26.5v-10q2 -2 9 -11.5t7 -13.5q72 -131 109.5 -267t72.5 -284q16 -63 20.5 -121.5t4.5 -124.5v-106q-16 -78 -63.5 -126t-110 -76t-134 -37t-139.5 -9q-66 0 -133 8 t-121.5 35t-88.5 76t-34 131z" />
<glyph unicode="K" horiz-adv-x="978" d="M20 1317q0 29 11.5 52.5t46.5 23.5q29 0 50.5 -15.5t36.5 -39t23.5 -51t12.5 -52.5q2 -16 6 -55t9 -82t10 -82t7 -53q10 -12 22.5 -21.5t29.5 -11.5q12 12 41.5 43t63.5 64.5t64.5 64.5t43.5 43q18 18 40.5 38.5t48 38t53.5 29t54 11.5q23 0 41.5 -11.5t18.5 -38.5 q0 -23 -12.5 -42t-30.5 -33q-49 -41 -92.5 -75t-82 -70t-76.5 -77t-77 -92q-18 -29 -18 -53q0 -10 1 -14t9 -15l502 -665q29 -41 55 -88t26 -99q0 -27 -18 -52t-47 -25q-23 0 -40 15t-30.5 36.5t-23 44.5t-13.5 35l-460 626q-12 16 -17.5 20.5t-19.5 4.5q-25 0 -31 -24.5 t-8 -41.5q-2 -14 -5 -45.5t-7.5 -65.5t-7.5 -63.5t-5 -40.5q0 -4 -1 -23.5t-3 -42t-3 -42t-1 -23.5q-4 -35 -21.5 -71.5t-60.5 -36.5q-23 0 -36 11t-19 27.5t-8 35t-2 34.5v41q2 20 8 70.5t12 107t12.5 106.5t8.5 71v10q0 10 1 24.5t1 28.5v23q0 129 -16.5 252.5 t-43.5 252.5q-8 37 -20.5 73t-12.5 75z" />
<glyph unicode="L" horiz-adv-x="641" d="M20 1380v35q0 43 25 75t72 32q29 0 49 -16.5t35 -43.5q0 -4 1 -20.5t1 -20.5q0 -43 -5 -83t-5 -83q0 -98 4 -194t20 -191v-450q-2 -10 -5 -38t-7 -57.5t-7 -57t-5 -38.5v-12q0 -27 24.5 -48.5t48.5 -21.5q33 0 64.5 8.5t62.5 17.5t62.5 17.5t64.5 8.5q35 0 68 -28t33 -65 q0 -23 -13.5 -41t-36.5 -24q-22 3 -44.5 3t-44.5 -3q-44 -6 -89 -15.5t-90 -17.5t-90 -8h-70q-29 8 -60.5 28.5t-37.5 53.5q0 8 -1 31.5t-1 29.5q0 12 1 36t1 26q0 10 5 47t11.5 80t11.5 81t5 48q0 4 1 27.5t1 52.5v59v49v39v53q0 27 -1 47.5t-1 24.5z" />
<glyph unicode="M" horiz-adv-x="1611" d="M20 1157q0 47 20.5 83t74.5 36q31 0 47 -11.5t31 -39.5q2 -4 2 -29v-29q0 -49 -13.5 -94t-13.5 -94v-23q0 -18 12 -18h4q4 0 13.5 3t11.5 5q12 33 27.5 74t36 81t47 72.5t63.5 51.5q2 2 20 2h21q33 0 63.5 -13.5t57 -36t48 -51t36.5 -57.5q8 -16 22.5 -46t28.5 -59.5 t25.5 -53t13.5 -29.5q4 -8 15 -41t25.5 -71t26 -70.5t15.5 -41.5q6 -12 8 -14t12 -2q29 0 39 33l17 125q0 2 10 37.5t24.5 84t29.5 99.5t26 82q8 31 21 64.5t33.5 61t48.5 46t65 18.5q61 0 103 -33.5t81 -82.5q57 -72 91 -150t52.5 -159t25.5 -167t13 -174q6 -92 35 -188 t55 -182v-25q0 -25 -12 -45t-41 -20q-31 0 -50.5 22.5t-27.5 50.5l-57 207q-2 20 -9.5 75.5t-15.5 117t-15 117t-9 77.5q-16 98 -45 188.5t-97 163.5q-10 12 -26.5 32t-38.5 20q-25 0 -37 -25t-20 -43q-78 -205 -107 -421q-25 -190 -25 -380v-53q-2 -16 -6 -37.5t-12 -41 t-22.5 -33t-34.5 -13.5q-57 0 -72 57l-141 486q-27 55 -46.5 113.5t-42 115t-53 107.5t-79.5 92q-2 0 -6.5 1t-6.5 1q-20 0 -34.5 -15.5t-24.5 -36t-16.5 -41t-10.5 -32.5q-41 -147 -66.5 -292.5t-25.5 -299.5v-74q6 -23 14.5 -41t16.5 -35.5t14 -36t6 -42.5q0 -23 -7 -54.5 t-21.5 -62.5t-37 -52.5t-50.5 -21.5q-29 0 -48.5 29t-25.5 53q-2 8 -5 26.5t-6.5 40t-7.5 40t-6 24.5q-27 256 -50.5 508t-23.5 510z" />
<glyph unicode="N" horiz-adv-x="1159" d="M20 1149q0 63 1.5 109.5t7.5 113.5q4 18 21.5 34.5t35.5 16.5q35 0 54.5 -27.5t29.5 -64.5t16.5 -73.5t14.5 -57.5l280 -616q0 -2 10.5 -21.5t25.5 -45t29.5 -51.5t24.5 -38q16 -29 43 -64.5t60 -67.5t70.5 -53.5t76.5 -21.5q61 0 100.5 43t59.5 103.5t27.5 126 t7.5 110.5v94q-2 31 -5 106t-7.5 159t-7.5 158.5t-5 103.5q-4 33 -11 62.5t-7 60.5q0 4 1 16t1 16q10 10 18 11h23q20 0 33.5 -13.5t21.5 -33t12 -41t7 -37.5q6 -37 14 -96.5t16 -118t13.5 -101.5t5.5 -45v-28q0 -25 1 -55.5t1 -63.5v-51v-39q0 -29 -1 -59.5t-1 -59.5v-39 q-6 -63 -23.5 -139t-51.5 -142.5t-88 -110.5t-134 -44q-53 0 -105.5 19.5t-98.5 52t-84 73.5t-65 84q-16 25 -42.5 68t-53 87t-46 77.5t-21.5 39.5q-6 12 -21.5 45t-33 70t-33 70t-21.5 45q0 8 -8 8q-2 2 -4 2q-20 0 -24.5 -16.5t-4.5 -32.5q0 -141 21.5 -280.5t21.5 -280.5 v-45q0 -39 -13 -75t-59 -36q-20 0 -35.5 12.5t-25.5 28.5q-12 14 -18.5 46t-9.5 72t-4 82t-1 79v84v172q-4 131 -18.5 260t-14.5 264z" />
<glyph unicode="O" horiz-adv-x="929" d="M18 369v30q0 113 12.5 242t41 257t77 247t119.5 213q4 6 20.5 26.5t38 47t42 52t30.5 38.5q31 39 66 49t82 10q49 0 82 -11t54.5 -35t35.5 -57.5t26 -78.5l132 -279q23 -49 27.5 -105.5t4.5 -109.5q0 -111 -19.5 -203t-54 -176t-86 -163.5t-112.5 -165.5q-35 -39 -77 -77 t-89 -69t-99.5 -49t-107.5 -18q-49 0 -92 23.5t-76 60t-52.5 84t-23.5 96.5v28q0 23 -1 47.5t-1 45.5zM143 375q0 -31 6.5 -73t20.5 -80t40 -64.5t66 -26.5q41 0 85.5 23.5t89.5 61.5t87 85t76.5 94t60 91t38.5 73q33 86 45 168t12 174q0 123 -48 231.5t-118 208.5 q-8 12 -29.5 31t-39.5 19q-25 0 -47.5 -12.5t-38.5 -28.5q-90 -82 -145.5 -195t-87.5 -236.5t-47 -251.5t-26 -239v-53z" />
<glyph unicode="P" horiz-adv-x="1157" d="M-121 1413q0 43 24.5 64.5t59.5 30t73 9.5t64 3q2 0 12.5 1t21.5 3t20.5 3t11.5 1t20.5 1t40.5 1h45h37q104 0 208 -14.5t198 -50t177 -94t146 -146.5q47 -66 73 -124.5t26 -135.5q0 -43 -4.5 -74t-28.5 -70q-16 -27 -56 -51.5t-86.5 -46t-91.5 -38.5t-71 -28 q-8 -4 -26.5 -11t-38 -13t-36 -10.5t-22.5 -6.5q-18 -6 -53 -10t-69 -13t-58.5 -26.5t-24.5 -48.5q0 -86 13.5 -171t13.5 -171v-20q0 -14 -1 -30.5t-1 -31.5v-20q-10 -25 -20.5 -37t-35.5 -12q-37 0 -50 19t-17 54q-2 18 -8.5 67.5t-12.5 105t-12 104.5t-8 69 q-6 25 -21.5 45.5t-31 39t-27.5 39t-12 44.5v9q0 10 2 12q4 6 11 20.5t14 31.5t14.5 32.5t9.5 21.5v45q0 82 -17.5 162t-17.5 160q0 31 12.5 54.5t46.5 23.5q20 0 37 -13.5t27 -32t17 -40t10 -37.5q0 -4 1 -21.5t3 -37t3 -37t1 -21.5q0 -8 3 -30.5t7 -47t8 -47t6 -31.5 q6 -27 27.5 -38t46.5 -11q119 0 219 45t201 103q23 23 44 41t21 49q0 57 -39.5 117.5t-98 113t-124 90t-117.5 50.5h-18h-31h-30h-19q-2 0 -11 3t-13 5q-8 4 -37 16t-37 17h-180q-12 0 -23.5 -15.5t-25 -34t-30 -34t-36.5 -15.5q-29 0 -71 3t-80.5 15.5t-67.5 37t-29 67.5z " />
<glyph unicode="Q" horiz-adv-x="1200" d="M20 514q0 186 78 344t219 277q35 29 72 48t76 42q27 16 40 44.5t25.5 55.5t31 46.5t59.5 19.5q31 0 53 -10.5t45 -32.5q59 -51 119.5 -106.5t108.5 -119t79 -136.5t31 -159t-13.5 -169t-44.5 -164q-6 -18 -20 -41t-27.5 -47.5t-25 -47t-11.5 -41.5q0 -16 8.5 -29.5 t18.5 -23.5q8 -10 24.5 -30.5t33 -42t30.5 -39t18.5 -21.5t19.5 -20.5t33.5 -37t34 -37t19.5 -20.5q16 -18 21.5 -23t5.5 -26q0 -27 -15.5 -46t-44.5 -19q-35 0 -67.5 20.5t-55.5 44.5q-6 6 -30.5 34t-52 60.5t-52 60.5t-30.5 34q-16 18 -27.5 26t-34.5 8h-10q-8 0 -10 -2 q-172 -147 -394 -147h-67q-72 18 -122 70.5t-84 120t-49.5 142.5t-15.5 140zM160 569q0 -43 7 -109.5t28.5 -129t60.5 -106.5t102 -44q27 0 80.5 9.5t107.5 28t94 44t40 57.5q0 37 -26.5 56.5t-57.5 36t-57.5 37t-26.5 59.5q0 29 22.5 44t49.5 15q33 0 64.5 -19.5t59 -42 t51 -42t42.5 -19.5q33 0 57.5 43t42 100.5t25.5 112t8 78.5q0 63 -19.5 118.5t-52.5 104t-75 91.5t-85 84q-2 2 -8 5t-8 3h-4q-6 0 -13 -9.5t-7 -15.5q0 -2 4 -15.5t4 -17.5q0 -2 1 -14t1 -18q0 -27 -16.5 -42.5t-43.5 -15.5q-29 0 -55.5 12.5t-54.5 12.5q-70 0 -119 -49 q-92 -86 -157.5 -199t-65.5 -244z" />
<glyph unicode="R" horiz-adv-x="1193" d="M-111 1468q0 47 31 84t75 61.5t94 37t89 12.5h486q12 0 32.5 -5t43 -11.5t42 -13.5t29.5 -11q92 -35 153.5 -87t102.5 -144q2 -4 5 -13.5t3 -11.5v-131q0 -2 -6 -17.5t-10 -23.5q-35 -76 -91.5 -142.5t-123.5 -113.5q-20 -14 -55 -31.5t-69 -37t-58.5 -41t-24.5 -46.5 q0 -14 31.5 -45.5t73.5 -69.5t81 -76t54 -65q6 -12 31.5 -57t55 -98.5t55 -98.5t32.5 -57q14 -29 35.5 -54.5t41 -52t33 -56t13.5 -62.5q0 -23 -3.5 -36t-21.5 -28q-4 0 -14.5 -1t-14.5 -1q-6 0 -17 1t-13.5 2t-21.5 19.5t-26 28.5q-6 8 -23.5 32t-35.5 49.5t-34.5 49 t-22.5 33.5q-37 59 -72 122t-73 121t-82 112.5t-101 99.5q-6 4 -28.5 20.5t-28.5 20.5q-4 2 -10.5 5t-8.5 3q-16 0 -28.5 -19.5t-13.5 -33.5q0 -49 6 -97.5t6 -97.5q0 -88 -8 -169q-5 -53 -4 -109v-60q-8 -23 -22 -27.5t-36 -4.5q-35 0 -51.5 26.5t-20.5 54.5q0 23 -1 79.5 t-3 119t-3 118.5t-1 79v8q0 8 -4 38t-8 65.5t-8.5 65.5t-4.5 38v71v125v125v74q-2 53 -9 103.5t-7 103.5q0 41 20.5 69.5t65.5 28.5q43 0 57.5 -30.5t14.5 -65.5q0 -53 -5 -106.5t-5 -106.5v-37q0 -6 2 -24.5t5 -38t6 -38t3 -24.5q10 -31 41 -41q78 33 158.5 83t146.5 99 q51 39 88 93.5t37 119.5q0 51 -31 93.5t-76 71t-99 44t-99 15.5h-371q-43 0 -91 -16.5t-83 -41.5q-14 -10 -25.5 -28.5t-22.5 -36t-26.5 -30.5t-36.5 -13q-18 0 -33.5 11t-27.5 27.5t-18.5 36t-6.5 35.5z" />
<glyph unicode="S" horiz-adv-x="1044" d="M18 942q0 68 41 114t100.5 77.5t125 52t114.5 39.5q68 27 121 43t127 16q35 0 62.5 -23.5t27.5 -60.5q0 -47 -28.5 -89t-79.5 -42q-33 0 -58.5 16.5t-56.5 16.5q-35 0 -71.5 -11.5t-67.5 -21.5q-18 -6 -52 -17.5t-67 -26.5t-56.5 -34.5t-23.5 -44.5q0 -20 19.5 -38.5 t29.5 -26.5q6 -4 23.5 -16.5t39 -28t41 -28.5t29.5 -20q4 -2 16.5 -8t16.5 -8q49 -18 114.5 -40.5t136.5 -52.5t139.5 -68t121.5 -85t87 -104t34 -127q0 -72 -52 -126t-120 -71q-135 -10 -268 -29.5t-269 -19.5q-31 0 -63.5 6t-60 20.5t-46 39t-18.5 61.5q0 18 8 47 t22.5 56.5t33 47t40.5 19.5q35 0 54 -24q-3 -24 -3 -41t3 -27q6 -21 41 -49h65h60q49 0 120.5 3t138 14t112.5 31.5t46 55.5q0 27 -15 53.5t-37.5 48t-49.5 39t-47 27.5l-559 271q-55 29 -98.5 80t-43.5 114z" />
<glyph unicode="T" horiz-adv-x="1206" d="M20 1264q0 29 20.5 50t48.5 34.5t58.5 20.5t51.5 7q31 0 56.5 -10t49 -23.5t49 -23.5t56.5 -10q45 0 82.5 16t80.5 16q47 0 85 -16t83 -16q88 0 174 13t175 13h26q18 0 40 -1t40 -1h27q45 -8 75.5 -35.5t30.5 -74.5q0 -23 -4 -36t-20 -26q-4 0 -14.5 -1t-14.5 -1 q-31 0 -52.5 9.5t-49.5 25.5h-97h-94q-12 0 -43 -3t-64.5 -7t-63.5 -8.5t-42 -6.5q-20 -6 -47 -18t-50.5 -28.5t-40 -38t-16.5 -48.5v-379l-12 -65v-371q12 -39 15.5 -62.5t3.5 -58.5q0 -37 -12.5 -61.5t-53.5 -24.5q-31 0 -51.5 26t-30.5 61.5t-14 71.5t-4 56v447 q2 8 5 35.5t3 38.5q0 8 1 47t3 83t3 82.5t1 49.5q0 6 4 32.5t4 32.5v15q0 18 -19.5 45.5t-37.5 27.5h-289q-16 0 -36.5 8.5t-38 21.5t-29 31.5t-11.5 37.5z" />
<glyph unicode="U" horiz-adv-x="946" d="M20 668q0 104 6 200q4 60 5 123q0 39 -2 78q6 18 17 45t26.5 49.5t36 39t45.5 16.5q43 0 62.5 -33t19.5 -70q0 -51 -21.5 -94t-30.5 -92q-12 -98 -18 -192.5t-6 -192.5v-10q2 -16 7 -48t11 -65t10.5 -59.5t4.5 -32.5q4 -23 15 -56.5t28.5 -65.5t42 -54.5t55.5 -22.5 q18 0 40.5 7t45 17.5t43 21.5t35.5 20q4 4 16 13t16 13q141 129 207 286t66 349q0 55 -20.5 97t-46 81t-46 76t-20.5 84q0 27 18.5 45.5t44.5 18.5q20 0 35.5 -13.5t28 -32t21.5 -38t18 -31.5q23 -43 40 -78t28 -69.5t16.5 -71.5t5.5 -86q0 -76 -7.5 -150t-25.5 -147l-8 -25 q-39 -80 -93.5 -174t-125 -174t-156.5 -133t-191 -53q-68 0 -114.5 38.5t-80.5 100t-54.5 138.5t-30.5 152.5t-14.5 143.5t-4.5 111z" />
<glyph unicode="V" horiz-adv-x="970" d="M20 961q0 29 20.5 49t49.5 20q27 0 44.5 -16.5t26.5 -39t14 -48t9 -45.5q8 -35 22.5 -94.5t30 -118t26.5 -104.5t13 -54q0 -4 8.5 -26.5t18.5 -50t21.5 -54.5t17.5 -41q8 -18 26.5 -55t43 -72t51 -61.5t51.5 -26.5q27 0 52.5 26.5t46 63.5t36 74t21.5 59q35 117 67.5 240 t32.5 245q0 45 -5 88.5t-5 88.5v26q0 23 2 27q6 14 22.5 35.5t34.5 21.5h90q23 0 33 -21.5t10 -37.5q0 -31 -7 -52.5t-27 -52.5q0 -12 -1.5 -42.5t-3.5 -64.5t-3 -63.5t-1 -42.5q0 -6 -3 -24.5t-5 -24.5q-6 -23 -20.5 -76t-29.5 -113.5t-28.5 -114.5t-19.5 -75 q-33 -72 -59.5 -140.5t-65.5 -139.5q-37 -45 -64.5 -63.5t-78.5 -18.5q-57 0 -109.5 33.5t-96.5 85t-77 107.5t-51 104q-6 16 -17.5 47.5t-24 64.5t-21.5 59.5t-11 32.5q-6 23 -20.5 78t-31 118.5t-29.5 120t-17 79.5q-4 25 -6.5 41t-2.5 39z" />
<glyph unicode="W" horiz-adv-x="1513" d="M20 1053q0 35 12.5 63.5t53.5 28.5q20 0 37.5 -14.5t29 -34t17.5 -43t6 -41.5v-29v-45v-47v-27q0 -25 1 -86t3 -128.5t3 -128t1 -85.5q2 -25 11.5 -62.5t25 -73.5t40 -61.5t56.5 -25.5q33 0 65 30.5t58.5 72.5t46 85t27.5 68q2 6 8 23.5t12.5 38t12.5 40t8 29.5 q6 20 6 57q0 27 2 56.5t10.5 54.5t23.5 40t44 15t44 -15t26 -42q-1 -31 -1 -62q0 -47 2 -94q3 -78 21.5 -151.5t55 -138t104.5 -115.5q2 -2 13.5 -8.5t24.5 -13.5t27.5 -12t24.5 -7h61q111 0 175.5 36t98.5 97t43 144t9 180q0 156 -29.5 301t-95.5 286v37q0 35 13.5 57.5 t52.5 22.5q20 0 42.5 -30.5t41 -69.5t32 -78t17.5 -53q2 -8 7 -35t11 -58.5t12.5 -60.5t10.5 -43q2 -10 5 -31.5t3 -25.5v-387q0 -72 -24.5 -136.5t-57.5 -128.5q-29 -53 -71 -85.5t-92 -52t-104 -27t-108 -7.5h-94q-49 10 -92 34t-80 56q-14 12 -38.5 44t-50.5 64 t-48.5 57.5t-32.5 25.5h-4q-41 -31 -65.5 -74t-49 -81t-60.5 -65.5t-99 -27.5q-66 0 -108 34t-87 81q-41 45 -59.5 112.5t-22.5 126.5q-8 162 -16.5 325t-8.5 325z" />
<glyph unicode="X" horiz-adv-x="962" d="M20 207q0 43 14.5 86t36 83t45 78t44.5 72q8 14 32.5 52t52 80t53.5 80t36 53q6 10 11 22t5 27q0 29 -16 57l-256 379q-10 16 -13.5 32.5t-3.5 32.5q0 66 66 66q33 0 54.5 -16.5t38 -40t29.5 -51t27 -48.5q4 -6 19.5 -28.5t36 -50t39 -54t28.5 -41.5q10 -12 14.5 -15 t20.5 -3q4 0 9.5 1t152.5 150h20q37 0 46.5 -13t9.5 -48t-11.5 -70t-29 -66.5t-35.5 -63t-33 -60.5q-6 -12 -7 -19.5t-1 -17.5q0 -14 2 -21.5t6 -23.5l199 -559q10 -35 24.5 -60.5t40.5 -48.5q14 -12 34 -13t38.5 -3t30.5 -11.5t12 -35.5q0 -41 -34 -75t-77 -34 q-49 0 -85.5 28t-65.5 69.5t-49.5 89t-34.5 86.5l-123 368q-6 10 -19.5 22.5t-25.5 12.5q-6 0 -15.5 -9t-18.5 -20.5t-17 -22.5t-10 -16q-31 -49 -64 -100t-63.5 -104.5t-56 -109.5t-40.5 -114q-12 -16 -24.5 -24t-32.5 -8q-37 0 -51.5 29.5t-14.5 62.5z" />
<glyph unicode="Y" horiz-adv-x="1011" d="M20 1257q0 31 24 57.5t54 26.5q45 0 70 -33.5t46.5 -79.5t47 -93.5t72.5 -73.5q8 -4 22.5 -12.5t30.5 -16.5t33.5 -14t32.5 -6q27 0 50 8t52 8q23 0 42 -4t42 -4q45 0 87 53t73.5 123t50 139.5t18.5 100.5q0 23 -5 41t-5 41q0 31 11.5 46t43.5 15h21q23 -16 34 -29.5 t16 -27t6 -30.5t1 -42q0 -76 -21.5 -147.5t-43.5 -143.5q-12 -37 -28.5 -82t-45.5 -73l-82 -82q-31 -27 -67.5 -49.5t-49.5 -65.5v-145q0 -104 6.5 -206t34.5 -202q12 -35 40 -63.5t28 -69.5q0 -35 -26.5 -61.5t-61.5 -26.5q-29 0 -49.5 17.5t-36 43t-25.5 53t-16 50.5 q-29 100 -39 202.5t-10 206.5q0 43 4 86t4 86q0 20 -36 45t-82 46.5t-89 40t-57 28.5q-29 18 -68 56t-72.5 84t-57.5 93.5t-24 85.5z" />
<glyph unicode="Z" horiz-adv-x="1398" d="M20 1118q0 35 26 56.5t65 34.5t84 16.5t84 3.5q29 0 49 1t30 3h410q49 0 79 -41t30 -84q0 -47 -28 -79t-56 -66q-4 -6 -22.5 -31t-39 -52.5t-39 -52t-22.5 -30.5q-8 -10 -32 -38t-51.5 -59.5t-52 -59.5t-36.5 -40l-107 -106q-4 -4 -16.5 -18.5t-28.5 -33t-31.5 -37 t-23.5 -26.5q-10 -12 -29.5 -37t-19.5 -43q0 -20 16 -36.5t33 -24.5q55 -23 99 -39.5t86 -25.5t88 -13t106 -4q98 0 191 13t192 13h30q20 0 41 -1t35 -1h21q14 0 51 -2t78 -4t76.5 -5t48.5 -5q8 0 29.5 -3t46 -7t48 -8.5t33.5 -6.5q16 -4 42 -9t49.5 -14.5t41 -24.5 t17.5 -42q0 -16 -3 -29.5t-24 -19.5h-53h-53q-176 12 -337 22.5t-341 10.5q-76 0 -149.5 -8.5t-149.5 -8.5h-60q-6 0 -36.5 5.5t-69.5 11.5t-78 13t-61 11q-43 8 -89.5 23.5t-83 40t-61 60.5t-24.5 87q0 37 13 71t33.5 65.5t46 60.5t48.5 53l330 344q12 12 32.5 38t40 55.5 t35 56t15.5 41.5v8l-33 33h-45q-80 0 -175.5 -5.5t-166.5 -11.5q-4 0 -19.5 -4t-34 -8t-34 -8t-19.5 -4q-2 0 -11 -1t-13 -1q-27 0 -59 17t-32 50z" />
<glyph unicode="[" horiz-adv-x="796" d="M18 94q0 61 20.5 121.5t31.5 120.5q4 20 11 59t13 79t11.5 72t5.5 38q0 8 1 37.5t3 64.5t3 64.5t1 37.5t3 37t5 37v486q0 37 -6 69.5t-14.5 64t-14.5 64.5t-6 68v45q29 35 71 47t89 14t93 -2t85 -2q8 0 28.5 2t44 5t44 5.5t30.5 4.5q35 6 63 20t62 14q37 0 54.5 -11 t17.5 -50q0 -31 -31.5 -54.5t-75 -39t-85 -24.5t-62.5 -11q-6 0 -30.5 -1t-52.5 -3t-52.5 -3t-30.5 -1q-35 -4 -62.5 -21.5t-27.5 -54.5q0 -27 2 -47.5t6 -48.5v-707l-49 -411l-16 -74q-2 -6 3 -14.5t13 -15.5t17.5 -12t15.5 -7h115q86 0 164.5 9t158.5 9q35 0 61.5 -17.5 t26.5 -54.5q0 -41 -35.5 -61.5t-70.5 -24.5q-139 -12 -258 -22t-248 -10h-70q-23 0 -46.5 21t-27.5 44q0 4 -1 22.5t-1 22.5z" />
<glyph unicode="\" horiz-adv-x="1103" d="M-127 1403q0 33 14.5 60.5t53.5 27.5q20 0 37.5 -10.5t33 -25.5t27.5 -32.5t22 -31.5q8 -12 35 -49t63 -87.5t75.5 -106.5t75.5 -106.5t62.5 -87t35.5 -49.5q98 -129 204.5 -255t223.5 -238q6 -6 21 -19.5t32.5 -29t35 -30t25.5 -20.5q6 -6 35 -26.5t60.5 -44t60.5 -44 t35 -26.5q23 -16 48 -45t25 -61q0 -25 -15 -42.5t-40 -17.5q-23 0 -31 3t-28 16q-16 10 -44 28.5t-57.5 39t-52 35.5l-28.5 19q-8 6 -32 27t-51.5 44.5t-53 46t-36.5 32.5q-16 16 -46.5 46t-60.5 59.5t-53.5 53t-27.5 29.5l-428 551q-6 8 -21.5 31t-33 47.5t-32.5 47 t-22 32.5q-23 29 -48 49.5t-47.5 42t-37 49t-14.5 68.5z" />
<glyph unicode="]" horiz-adv-x="847" d="M20 1688q0 31 21.5 48t50.5 17q27 0 51.5 -4t49.5 -4q111 0 214 9t209 9h29q20 0 44 -1t44 -1h29q35 0 50 -28.5t15 -57.5v-28q0 -4 -4 -16.5t-4 -16.5q-6 -41 -16 -101.5t-20.5 -118t-17.5 -99.5t-7 -44v-559q-4 -10 -9.5 -38.5t-9.5 -60.5t-7 -59.5t-3 -39.5 q-2 -20 -3 -70.5t-1 -108.5q0 -55 1 -105t3 -71q-23 -43 -65 -57q-14 0 -49 -1t-73 -3t-72 -3t-46 -1q-57 -4 -127 -20.5t-113 -28.5h-16q-37 0 -63.5 17t-26.5 56q0 45 37 68.5t88 34t101 13.5t79 7q8 2 26.5 6t40 9.5t40 10.5t24.5 9q20 10 29.5 19.5t19.5 29.5 q4 117 15.5 230.5t37.5 230.5v551q12 55 21.5 108.5t9.5 110.5v45q-4 6 -19.5 21.5t-23.5 19.5h-26q-92 0 -180.5 -12.5t-180.5 -12.5q-23 0 -56.5 1t-64 9.5t-53.5 27t-23 53.5z" />
<glyph unicode="^" horiz-adv-x="1142" d="M20 1034q0 23 16.5 43.5t33.5 30.5q6 4 19 13t29.5 20.5t30 19.5t19.5 13l412 346q10 10 19 9t22 -1q25 0 46 -12.5t39.5 -31t36 -38t33.5 -33.5q10 -8 40 -31.5t63.5 -51t65.5 -53.5t46 -36q14 -12 37 -25.5t43.5 -29t35.5 -34.5t15 -44q0 -33 -23.5 -49.5t-51.5 -16.5 q-23 0 -45.5 10.5t-45 25t-41 29.5t-30.5 26q-8 6 -40 31.5t-68 54t-67.5 55t-39.5 33.5q-16 12 -29.5 18t-34.5 6q-14 0 -23.5 -2t-19.5 -14q-20 -18 -72.5 -62.5t-112 -93.5t-112.5 -94t-73 -64q-20 -16 -40 -28t-49 -12q-33 0 -58.5 19t-25.5 54z" />
<glyph unicode="_" horiz-adv-x="790" d="M18 -137q0 6 1 17t3.5 14.5t17.5 18.5t21 19q23 10 53.5 13.5t63.5 3.5q35 0 66.5 -1t54.5 1q12 0 56 4t96.5 8t96.5 8t56 4q2 0 22.5 1t30.5 1q6 0 27 -1t27 -1q27 -10 43 -27.5t16 -45.5q0 -47 -38 -66.5t-79 -23.5q-131 -10 -265 -21.5t-265 -11.5q-37 0 -71 22.5 t-34 63.5z" />
<glyph unicode="`" horiz-adv-x="239" d="M16 1221q0 25 1 58.5t9.5 62t27 49t52.5 20.5q43 0 65 -31.5t31 -74.5t10 -88.5t1 -71.5v-94q-10 -14 -27.5 -23.5t-33.5 -9.5q-31 0 -58.5 26.5t-44.5 47.5q-25 31 -29 61.5t-4 67.5z" />
<glyph unicode="a" horiz-adv-x="1110" d="M20 334q0 72 32 153.5t85 150.5t125 115t150 46q68 0 113.5 -37t80.5 -89t64.5 -108.5t64.5 -95.5q12 -14 44 -48t67 -72t67.5 -71.5t44.5 -48.5q12 -12 35 -25.5t44.5 -28.5t38 -33.5t16.5 -39.5q0 -18 -6.5 -30.5t-28.5 -22.5h-41q-31 0 -57.5 5t-49.5 28l-239 229 q0 2 -6.5 5t-10.5 6h-4h-4q-6 -4 -20.5 -10.5t-20.5 -16.5q-2 -4 -10 -17.5t-17.5 -29t-18.5 -28.5t-11 -15l-115 -115q-37 -20 -71.5 -30.5t-75.5 -10.5q-59 0 -107.5 22.5t-83.5 60.5t-54.5 90.5t-19.5 111.5zM160 336q0 -49 33.5 -94t87.5 -45q66 0 106.5 37.5t85.5 87.5 q14 14 23.5 33.5t9.5 39.5q0 16 -8.5 29.5t-17.5 26t-17 27t-8 32.5q0 4 1 13t1 12q0 4 8 24.5t8 24.5q-14 16 -23.5 24t-18.5 14q-7 4 -12 4q-2 0 -3 -1l-150 -66q-29 -12 -48 -37.5t-32.5 -57.5t-19.5 -65.5t-6 -62.5z" />
<glyph unicode="b" horiz-adv-x="815" d="M20 1184q0 23 2.5 38t22.5 29q4 2 14.5 3t14.5 1q6 0 17 -1t11 -3q8 -4 26.5 -22.5t23.5 -26.5q49 -131 69.5 -268t38.5 -275q2 -10 13.5 -26.5t23.5 -16.5q2 0 4 2q35 41 81 74t103 33q70 0 127.5 -48t98.5 -115.5t63.5 -143.5t22.5 -131t-23.5 -107.5t-63.5 -94.5 t-92.5 -67.5t-107.5 -25.5q-29 0 -52.5 4t-46 11t-47 16.5t-55.5 17.5q-18 4 -44.5 8t-53.5 14.5t-45.5 28t-18.5 47.5v199l-77 635q-12 47 -31 107.5t-19 103.5zM348 242q0 -25 14.5 -42.5t35 -28.5t44 -17.5t43.5 -6.5q29 0 57.5 11.5t52 30t38 44t14.5 56.5t-9 78 t-28.5 92t-49.5 77.5t-73 32.5q-35 0 -52 -18.5t-27.5 -44t-14.5 -54t-10 -49.5q-10 -41 -22.5 -79.5t-12.5 -81.5z" />
<glyph unicode="c" horiz-adv-x="987" d="M19 499v7q0 37 10 61q18 45 43.5 79t57.5 60.5t69 50t77 50.5q10 8 19 8h24q25 0 41.5 -15.5t29.5 -37t24.5 -44t25.5 -36.5q20 -23 39 -42t32 -38.5t20.5 -42t7.5 -53.5q0 -41 -18.5 -81t-67.5 -40q-39 0 -62.5 24.5t-42 56.5t-36 65.5t-44.5 52.5q-4 0 -9 1t-9 1 q-29 0 -47.5 -18.5t-29.5 -44t-16 -54.5t-5 -49q0 -59 30.5 -107.5t78.5 -83t105.5 -54t110.5 -19.5q51 0 103.5 8t104.5 17t103.5 17.5t102.5 8.5q29 0 52.5 -13.5t23.5 -46.5q0 -27 -16.5 -43t-41.5 -22q-16 -4 -49 -11.5t-66.5 -15.5t-62.5 -14t-37 -8q-39 -9 -77 -9h-8 q-42 1 -87 1q-102 0 -192 21.5t-160 70.5t-110 126.5t-40 190.5q0 23 -1 65z" />
<glyph unicode="d" horiz-adv-x="780" d="M20 395q0 141 80 208t215 71q18 8 30.5 22.5t12.5 34.5v8q0 6 -2 9q-6 20 -20 76.5t-29.5 120t-29 119.5t-19.5 79q-12 59 -26.5 144t-14.5 151q0 18 2 38.5t9.5 38t20.5 28.5t36 11q39 0 54 -24t19 -56q3 -26 3 -54v-14q-1 -36 4 -58l165 -715q8 -43 11.5 -87t7.5 -88 t12 -88t27 -83q2 -6 8 -18.5t14 -27t15.5 -26.5t11.5 -18q10 -16 30.5 -33t41 -35t36 -36.5t15.5 -39.5q0 -35 -26.5 -48t-55.5 -13q-27 0 -49.5 10t-44 22.5t-43.5 22.5t-47 10q-41 0 -81 -9t-81 -9q-78 0 -135.5 28.5t-97.5 78t-59.5 114t-19.5 135.5zM160 387 q0 -104 65.5 -163.5t165.5 -59.5q14 0 31.5 18.5t17.5 34.5q0 41 -11 80t-30 74q-10 16 -22 42.5t-28.5 51t-38 43t-48.5 18.5t-46 -13t-31.5 -34.5t-18.5 -46.5t-6 -45z" />
<glyph unicode="e" horiz-adv-x="1011" d="M20 424q0 74 25 144.5t70 125t108.5 88t141.5 33.5h51q49 -4 101 -13t96 -30.5t72 -60.5t28 -103q0 -29 -18.5 -55.5t-46 -47t-59.5 -32.5t-59 -12h-288q-8 0 -19.5 -7.5t-22 -17.5t-17.5 -21.5t-7 -19.5q0 -37 21.5 -69.5t52.5 -59t66.5 -44t66.5 -25.5q12 -4 33.5 -9.5 t43 -10.5t38 -9t280.5 -4q43 12 67.5 15t63.5 3q25 0 53.5 -7t28.5 -42q0 -23 -13 -42t-36 -25q-8 -2 -29.5 -7.5t-45 -10.5t-44 -9t-28.5 -6q-10 -2 -28.5 -5t-23.5 -3h-278q-2 0 -19.5 4t-40 9l-45 10t-34.5 9q-78 23 -136.5 77t-111.5 112q-35 39 -46.5 83t-11.5 95z M291 621q0 -12 10 -13h197q8 0 9 9.5t1 13.5q0 23 -34 30t-64 7h-29h-25q-20 0 -42.5 -5t-22.5 -28v-14z" />
<glyph unicode="f" horiz-adv-x="698" d="M20 838q0 94 24 170.5t72 132t120.5 86t171.5 30.5q72 0 130 -21.5t107 -76.5q2 -2 7 -11t10 -13l8 -17v-98l-17 -19h-65q-29 41 -65 75t-87 34q-143 0 -209.5 -64.5t-66.5 -205.5q0 -29 1 -59.5t8 -58.5t21.5 -51.5t42.5 -37.5h134q20 0 72.5 -14.5t105.5 -37t94 -52 t41 -60.5q0 -16 -3 -29.5t-24 -19.5q-4 0 -16 -1t-16 -1q-31 0 -61 9t-59.5 20.5t-59 20.5t-60.5 9q-16 0 -32.5 -16.5t-16.5 -32.5q0 -10 2 -12t6 -13q10 -16 27.5 -44.5t35 -56.5t30.5 -49.5t16 -23.5q16 -25 33.5 -43t31.5 -34.5t23.5 -35t9.5 -44.5q0 -27 -16.5 -41.5 t-41.5 -14.5q-31 0 -56.5 23t-41.5 43q-61 84 -127.5 171t-120 180t-88.5 193.5t-35 211.5z" />
<glyph unicode="g" horiz-adv-x="905" d="M18 -348q0 4 1 22.5t1 22.5q6 29 33 48t56 19q45 0 45 -51q0 -6 -1 -18t-1 -14q0 -4 -4.5 -20.5t-4.5 -20.5q0 -23 18.5 -49.5t31.5 -41.5q103 -116 253 -116h3q49 0 102 9t96 32.5t70.5 63.5t27.5 102v8q-2 8 -5 26.5t-3 22.5l-108 387q-2 6 -20.5 23.5t-33.5 17.5h-4 q-57 -16 -112.5 -32.5t-116.5 -16.5q-111 0 -187.5 57t-76.5 172q0 72 32.5 121t85 79t117 43t125.5 13q27 0 47.5 -4t44.5 -4q35 0 60.5 13.5t60.5 13.5q37 0 69 -16.5t56.5 -43t37.5 -61.5t13 -70q0 -27 -12 -48.5t-25.5 -41.5t-25.5 -40.5t-12 -47.5q0 -2 1 -6t1 -6 q6 -27 23.5 -92.5t38 -138t37.5 -138.5t24 -92q8 -31 8 -45v-21v-28q0 -119 -59.5 -209t-172.5 -142h-123q-74 0 -132 4.5t-109 20.5t-98.5 49t-96.5 90q-35 41 -55.5 91.5t-20.5 103.5zM225 293q0 -23 12.5 -38t31 -24.5t40 -12.5t39.5 -3t54 7t73 20.5t63.5 34t26.5 49.5 q0 20 -13 37.5t-32.5 27.5t-42 16.5t-39.5 6.5q-23 0 -59.5 -8.5t-70.5 -23.5t-58.5 -37.5t-24.5 -51.5z" />
<glyph unicode="h" horiz-adv-x="913" d="M20 1096v123q0 18 26 29.5t40 11.5q31 0 46 -32t22.5 -74t9.5 -81t4 -53q2 -6 9 -36t14.5 -63.5t12.5 -62.5t5 -35q4 -20 3 -52t3 -62.5t16.5 -53t40.5 -22.5q33 0 66 17.5t70 17.5q72 0 135 -25t115.5 -66.5t89 -99t55.5 -123.5q10 -43 12 -87t12 -87q4 -16 15.5 -33.5 l23 -35t19.5 -35t8 -35.5q0 -27 -16.5 -42t-42.5 -15q-20 0 -31.5 4t-32.5 20q-43 33 -61.5 72t-25.5 82t-11 90t-19 94q-10 31 -33.5 62.5t-54 56t-66.5 40t-71 15.5q-39 0 -69.5 -26.5t-41.5 -65.5q-2 -10 -7 -39t-9 -59.5t-9 -59t-7 -39.5q-4 -18 -11.5 -41.5t-19.5 -44 t-28.5 -34t-41.5 -13.5q-35 0 -54 27t-28 55q-2 236 -21.5 459t-60.5 457z" />
<glyph unicode="i" horiz-adv-x="452" d="M20 1212q0 29 12.5 50.5t47.5 21.5q29 0 64.5 -23.5t66.5 -58.5t52.5 -73.5t21.5 -67.5q0 -49 -54 -49q-43 0 -79.5 32.5t-65.5 57t-47.5 48t-18.5 62.5zM143 623q0 18 3.5 38.5t11.5 39t22.5 29.5t38.5 11q27 0 40 -18t19.5 -44t8.5 -50.5t6 -36.5q14 -63 31.5 -135 t42.5 -135q14 -41 39.5 -83t25.5 -85q0 -29 -14.5 -47.5t-44.5 -18.5q-37 0 -69 33t-57.5 84t-45 113.5t-32.5 122t-19.5 108.5t-6.5 74z" />
<glyph unicode="j" horiz-adv-x="763" d="M20 -41q0 16 14.5 20.5t26.5 4.5q29 0 46.5 -45t35 -106.5t41 -124t66.5 -95.5q45 -33 103.5 -41t111.5 -8q49 0 76.5 23.5t42 59.5t17.5 76.5t3 77.5q0 131 -19.5 264.5t-54.5 262.5q-8 31 -21 64.5t-25.5 68.5t-20.5 69.5t-8 69.5q0 27 11 50.5t44 23.5 q29 0 52.5 -24.5t33.5 -49.5q68 -199 108.5 -396.5t40.5 -408.5v-22q0 -18 -1 -37t-1 -35v-23q-10 -59 -36.5 -110t-68.5 -88t-95.5 -58.5t-114.5 -21.5q-102 0 -178 43t-127 113.5t-77 159t-26 178.5v65zM330 1083q0 29 19.5 48.5t47.5 19.5q27 0 62 -17.5t65.5 -43t51 -56 t20.5 -57.5q0 -49 -49 -49h-17q-25 8 -52 21.5t-55 29.5t-51.5 35.5t-39.5 44.5q0 4 -1 12t-1 12z" />
<glyph unicode="k" horiz-adv-x="1085" d="M20 1167q0 39 25 61.5t64 22.5t64.5 -22.5t42.5 -55t26.5 -70.5t15.5 -67q2 -10 7 -35.5t10.5 -54t10.5 -54.5t7 -36q4 -16 19.5 -28.5t33.5 -12.5h4q41 25 75 53.5t63.5 59t59.5 62.5t64 63q4 0 11.5 1t9.5 1q27 0 41 -18.5t14 -41.5q0 -47 -23.5 -87t-58.5 -73.5 t-73.5 -63.5t-67.5 -54q-27 -20 -27 -51q0 -2 1 -7.5t1 -9.5q8 -8 28.5 -29.5t43.5 -44t42 -44t26 -29.5q18 -23 61 -77t92 -115.5t92 -117t60 -77.5q8 -12 34.5 -37t47.5 -29q10 -2 20 -2h21q29 0 44 -9t15 -48q0 -23 -14.5 -39.5t-34 -27.5t-43 -16t-41.5 -5 q-59 0 -103.5 36.5t-78.5 77.5q-98 119 -188.5 244t-205.5 234h-4q-14 0 -23 -10.5t-14 -22.5q-2 -6 -2 -39v-39q0 -68 13.5 -133.5t13.5 -130.5q0 -61 -63 -62q-29 0 -47.5 19.5t-30 46.5t-17.5 56.5t-8 51.5q1 51 1 102q0 140 -8 282q-11 194 -58 380q-6 25 -21.5 45.5 t-31 40t-27 41t-11.5 45.5z" />
<glyph unicode="l" horiz-adv-x="221" d="M18 164q0 111 8.5 220.5t17.5 218t17.5 218t8.5 219.5q0 57 -17.5 109.5t-17.5 107.5q0 29 15.5 57.5t51.5 28.5q18 0 36 -11t32 -28.5t22.5 -37t8.5 -37.5v-549q-16 -119 -28.5 -241t-12.5 -244q0 -35 20.5 -65t20.5 -64q0 -35 -25.5 -50.5t-56.5 -15.5q-79 0 -99 82 q0 10 -1 41t-1 41z" />
<glyph unicode="m" horiz-adv-x="1366" d="M20 197v63v62q1 37 1 75v39v16q-1 51 5 102q6 58 26 110.5t67 93.5q8 6 14 7t14 1q18 0 30.5 -9t23.5 -24q0 -4 1 -16t1 -17q0 -20 -5 -37.5t-5 -37.5q0 -16 16 -17q12 0 32.5 24.5t51.5 54.5t74 54.5t98 24.5q61 0 101 -36t66.5 -80t43 -79.5t33.5 -35.5h10q8 0 10 8 q8 37 21.5 74.5t34 66.5t51 47.5t73.5 18.5q49 0 99.5 -21.5t92.5 -57.5t72.5 -82t40.5 -95l66 -338q2 -16 13.5 -29.5t23.5 -27t21.5 -28t9.5 -32.5q0 -33 -18.5 -48.5t-49.5 -15.5q-37 0 -64.5 19.5t-50.5 46.5q-35 41 -40 87t-5 95q0 31 -6 66q0 10 -5 34.5t-12 52 t-14.5 51.5t-9.5 34q-8 20 -21.5 42.5t-32 43t-40 34t-45.5 13.5q-20 0 -34.5 -17.5t-22.5 -33.5q-4 -16 -14.5 -59.5t-23 -92.5t-22.5 -92t-14 -59q-2 -4 -8.5 -22.5t-14.5 -43t-15 -48.5t-11 -36q-10 -25 -29.5 -45t-48.5 -20q-35 0 -52.5 21.5t-27.5 51.5q0 12 -1 43 t-3 65t-3 64.5t-1 42.5q-2 39 -9.5 82t-21.5 84t-36.5 77t-55.5 60q-2 2 -6 2h-6q-20 0 -41 -12t-39.5 -29.5t-32.5 -38t-22.5 -37t-27 -56t-39 -84t-39.5 -84t-28 -54.5q-16 -35 -38.5 -59.5t-61.5 -24.5q-25 0 -44.5 16.5t-19.5 41.5z" />
<glyph unicode="n" horiz-adv-x="937" d="M20 647v45q10 23 22.5 29t31.5 6q37 0 54 -30.5t27.5 -66.5t20.5 -67t35 -31q14 0 21.5 42t23.5 91.5t51 91.5t105 42q68 0 132 -34t120.5 -90.5t102.5 -129t80 -148t52.5 -149.5t18.5 -133q0 -25 -2.5 -53.5t-11.5 -53t-27.5 -41t-51.5 -16.5q-31 0 -44 18t-13 45 q0 29 5 55.5t5 55.5q0 33 -14 83t-40 106.5t-58.5 113.5t-69.5 103.5t-75 75t-72 28.5q-25 0 -43.5 -22.5t-22.5 -45.5q-4 -14 -11 -42.5t-13.5 -58.5t-11.5 -55.5t-5 -31.5q0 -4 -3 -21.5t-6 -37t-5 -36t-2 -20.5q-4 -18 -10.5 -51t-18.5 -63.5t-30.5 -53t-49.5 -22.5 q-35 0 -60.5 29.5t-29.5 60.5q-4 16 -14.5 57t-22.5 87t-22.5 87t-14.5 58q-12 49 -22.5 96t-10.5 98z" />
<glyph unicode="o" horiz-adv-x="1069" d="M20 408q0 98 35 174.5t95.5 130t141.5 82t173 28.5q74 0 133 -20.5t109.5 -56t95.5 -82t90 -97.5q29 -33 56.5 -61.5t50 -59t36 -65.5t13.5 -80q0 -49 -17.5 -87t-46.5 -67.5t-65.5 -55t-75.5 -50.5q-33 -18 -72 -33.5t-78 -15.5h-286q-80 0 -150 37t-123 96t-84 133 t-31 150zM160 406q0 -59 26.5 -112.5t69.5 -93.5t98.5 -62.5t112.5 -22.5q43 0 94 3t101.5 11t97.5 24.5t84 43.5q31 23 52.5 46t21.5 58q0 39 -31 76t-51 59q-43 45 -86 87t-91.5 74t-103.5 51.5t-121 19.5q-53 0 -102 -21.5t-87 -57.5t-61.5 -84t-23.5 -99z" />
<glyph unicode="p" horiz-adv-x="1126" d="M20 684q0 14 1.5 23.5t7.5 25.5q12 35 27.5 80t40 86t58 68.5t83.5 27.5q23 0 49 -6t47 -18l510 -330q37 -25 83 -62.5t86 -81.5t66.5 -94.5t26.5 -101.5q0 -72 -47 -118t-114.5 -73.5t-141.5 -43t-125 -25.5q-6 0 -27.5 -4t-46 -10.5t-46 -11.5t-28.5 -7q-37 -6 -56 -12 t-34 -45q-2 -20 -6 -71.5t-8 -109t-7 -108.5t-3 -72v-14q0 -25 14 -38t30.5 -25.5t31 -25.5t14.5 -38q0 -29 -13.5 -55.5t-36 -47t-50 -32.5t-54.5 -12q-53 0 -73.5 36.5t-20.5 83.5q0 82 5 167t20 165v328q-2 8 -4.5 33.5t-4.5 34.5q0 10 -1 55t-3 96t-3 95t-1 57 q0 6 -4 32.5t-4 32.5v27q0 23 1 53.5t8 59t24.5 48t48.5 19.5q41 0 51 -41q2 -119 11.5 -235.5t13.5 -233.5q4 -16 17 -37.5t36 -21.5l4 2q18 4 61.5 10t95.5 14t107.5 20.5t100.5 30t74.5 40t29.5 53.5q0 16 -11 32.5t-22 28.5q-100 111 -224 191.5t-253 154.5 q-27 4 -48.5 21.5t-41.5 36t-41.5 34t-48.5 15.5q-25 0 -44.5 -18.5t-31.5 -45t-18 -54.5t-6 -48q0 -29 8 -58.5t8 -60.5q0 -6 -3 -21.5t-13 -15.5h-58q-8 0 -20.5 19.5t-24.5 47t-20.5 55.5t-8.5 44z" />
<glyph unicode="q" horiz-adv-x="831" d="M20 446q0 76 30 146t81 124t119.5 86t148.5 32q29 0 58.5 -8.5t53.5 -26t39 -42t15 -57.5q0 -29 -18.5 -43t-44.5 -14q-18 0 -32.5 7t-28 14.5t-29 14.5t-33.5 7q-49 0 -90 -20.5t-70 -55.5t-44 -79t-15 -89q0 -92 56 -151.5t151 -59.5q84 0 147 58q43 41 82 88t43 110 q0 12 1 44t3 67t3 66.5t1 44.5q10 29 26.5 44t47.5 15q39 0 59.5 -27.5t30.5 -64.5v-14t1 -22.5t1 -25.5v-16q0 -53 -9 -105.5t-9 -107.5q0 -86 4 -167t4 -167t-2 -161.5t-6 -168.5q-2 -37 -11.5 -72.5t-17.5 -70.5t-13 -70q-2 -17 -2 -33q0 -21 3 -42q-4 -10 -17.5 -34 t-31.5 -24q-49 0 -71 34t-22 75q0 70 13.5 132t29.5 138v396q0 16 -15 32.5t-32 16.5h-4q-6 -4 -20.5 -13.5t-29.5 -19.5t-28.5 -19.5t-19.5 -13.5q-10 -8 -30.5 -16t-35.5 -8h-180q-59 0 -104 34.5t-75 85t-45.5 109.5t-15.5 108z" />
<glyph unicode="r" horiz-adv-x="755" d="M20 115v98q0 70 6.5 128t22.5 128v344q16 23 29.5 41t44.5 18q10 0 19.5 -1t17.5 -9q39 -41 77.5 -79t81.5 -65.5t92.5 -44t110.5 -16.5q37 0 72 8.5t72 8.5q29 0 49 -13.5t20 -44.5q0 -41 -28.5 -62.5t-68.5 -31.5t-82 -12t-67 -2q-47 0 -95 9t-95 9t-68.5 -29.5 t-37.5 -68.5v-55q0 -35 4 -68t4 -67q0 -59 -18.5 -104.5t-63.5 -84.5h-21q-27 0 -52.5 18.5t-25.5 47.5z" />
<glyph unicode="s" horiz-adv-x="954" d="M20 674q0 66 46.5 109.5t112 71.5t135 39t118.5 11q35 0 77 -5t78 -19.5t60.5 -43t24.5 -73.5q0 -49 -51 -49q-23 0 -38.5 7t-29.5 14t-29.5 14.5t-36.5 7.5q-72 0 -136 -12.5t-134 -36.5q-16 -12 -16 -31q0 -14 11 -23.5t21 -13.5q14 -6 43 -16.5t57.5 -20.5t53.5 -18 t29 -11q6 -2 29.5 -9t51 -15t52 -15.5t31.5 -9.5q39 -12 98 -40.5t116.5 -67.5t98.5 -85t41 -91q0 -59 -43 -96t-96 -48q-18 -4 -55.5 -11t-74 -13t-66.5 -11.5t-36 -5.5q-10 -2 -46 -5t-78 -7t-77.5 -7t-44.5 -5q-6 0 -25.5 -4t-41 -8.5t-41 -8.5t-25.5 -4q-2 0 -19.5 -1 t-25.5 -1q-39 0 -70.5 14.5t-31.5 61.5q0 35 26.5 51.5t55.5 22.5l56 7t84 9t84 9l56 7q4 2 20.5 5.5t20.5 3.5q6 0 32 2t54.5 5t54 6t31.5 3q12 2 32 5t39 9t32.5 16.5t13.5 28.5q0 16 -19.5 29.5t-31.5 20.5q-10 4 -32.5 16t-48.5 25.5t-49.5 24.5t-33.5 15 q-4 2 -20.5 8.5t-20.5 8.5q-10 2 -51 13t-89 25.5t-89 27t-51 16.5q-29 8 -60 23.5t-55.5 37t-41 49t-16.5 62.5z" />
<glyph unicode="t" horiz-adv-x="1003" d="M20 807q0 27 20.5 46t45.5 19q29 0 52.5 -13t47 -28.5t48 -29t53.5 -13.5q35 0 49 30t14 63v41q0 35 -5 67.5t-5 67.5q0 6 1 26.5t1 26.5q8 23 23.5 41t40.5 18q47 0 65 -39.5t18 -78.5q0 -35 -4 -69t-4 -69q0 -53 11.5 -98t62.5 -74q16 0 56 -1t84 -3t84 -3t57 -1 q16 -2 41.5 -3t49 -7t41 -19.5t17.5 -37.5q0 -39 -26.5 -46.5t-57.5 -11.5q-18 0 -66.5 -3t-102.5 -7t-102 -8t-67 -6q-14 -4 -31.5 -18.5t-17.5 -30.5v-330q16 -41 21.5 -67.5t5.5 -63.5q0 -39 -18.5 -64.5t-59.5 -25.5q-31 0 -48.5 19.5t-25.5 47t-10 56t-4 49.5 q-8 98 -14.5 201.5t-10.5 201.5q-6 27 -27.5 43t-49 25.5t-56.5 15.5t-49 14q-23 8 -48.5 22.5t-48 34t-37 43t-14.5 50.5z" />
<glyph unicode="u" horiz-adv-x="970" d="M20 598q0 25 1.5 53.5t8.5 54t24.5 43t49.5 17.5q39 0 69 -23.5t51.5 -58.5t32.5 -74t11 -71q0 -20 -10 -35t-23.5 -27t-23.5 -25.5t-10 -33.5q0 -41 25.5 -81t64.5 -74t81 -60.5t77 -38.5q18 -8 51 -8h55q35 0 77 6t77.5 22.5t60.5 45t25 73.5q0 23 -3.5 44.5 t-13.5 39.5l-133 262q-8 14 -8 27v31q0 27 15.5 43t41.5 16q33 0 55.5 -24.5t36.5 -51.5q10 -20 30 -58t40.5 -76t35.5 -67.5t17 -35.5q16 -35 28.5 -80t12.5 -86q0 -76 -43 -128.5t-106.5 -86t-137 -49t-135.5 -15.5q-90 0 -178 41q-178 82 -254 220.5t-76 328.5z" />
<glyph unicode="v" horiz-adv-x="856" d="M18 672q0 6 1 29.5t1 31.5q4 23 25 40.5t45 17.5q12 0 26.5 -7.5t27 -18.5t20.5 -24.5t8 -23.5v-133q0 -2 9 -27t23.5 -58.5t30 -69.5t25.5 -58q2 -4 10.5 -19.5t17.5 -34t17 -36t12 -25.5q10 -20 30 -44t44 -24q16 0 25 9q45 41 85 88t54 110q2 16 10 59.5t17.5 90.5 t17.5 89t12 58q10 43 37 79t76 36q16 0 35.5 -5t36 -15.5t28 -26t11.5 -35.5q0 -18 -10.5 -34.5t-24 -32t-27.5 -30t-20 -28.5q-2 -2 -8.5 -26.5t-8.5 -38.5q-18 -84 -36.5 -150t-46 -123t-68.5 -109.5t-105 -111.5q-27 -14 -48 -23.5t-50 -9.5q-51 0 -97 39t-87 100.5 t-74 137t-56.5 149.5t-37 137.5t-13.5 100.5z" />
<glyph unicode="w" horiz-adv-x="1398" d="M20 489q0 55 1.5 92t15.5 93q10 20 22.5 31.5t34.5 11.5q23 0 35 -11.5t23 -31.5q0 -55 1 -128t13 -146.5t38.5 -139t80.5 -104.5h16q49 0 94 23.5t81 61.5t57.5 84t21.5 93q0 39 -4 75.5t-4 75.5q0 18 2 40t10 40.5t21.5 30.5t37.5 12q49 0 69 -43t27 -100t9 -115.5 t14 -87.5q31 -74 85.5 -128t140.5 -54q141 0 212.5 82t71.5 223q0 33 -8 63.5t-17.5 61.5t-17.5 61.5t-8 61.5t10.5 48t44.5 17q41 0 66.5 -37.5t39 -93t17.5 -116t4 -103.5v-53q0 -82 -37.5 -148.5t-98 -114.5t-136.5 -74t-152 -26q-29 0 -56.5 -1t-53.5 10 q-31 12 -62.5 38.5t-60.5 52t-54.5 46t-45.5 20.5q-12 0 -25.5 -9t-24.5 -17q-37 -31 -69.5 -59.5t-66.5 -50t-71.5 -34t-84.5 -12.5q-80 0 -130.5 54.5t-79 132t-39 160.5t-10.5 142z" />
<glyph unicode="x" horiz-adv-x="823" d="M20 1012q0 25 14.5 50t43.5 25q16 0 32.5 -11t24.5 -21q2 -6 8.5 -21.5t14.5 -33t15 -33t11 -21.5q6 -12 20.5 -35.5t32 -54.5t35 -62.5t31.5 -58.5q16 -27 24.5 -42t14.5 -23t10 -10.5t15 -2.5q25 0 44 29t40.5 63.5t51 63.5t72.5 29q18 0 30.5 -5.5t25.5 -21.5v-33 q0 -37 -17.5 -67.5t-37 -60t-37 -60.5t-17.5 -68q0 -23 11.5 -42t29 -36.5t35.5 -33t33 -27.5q18 -18 48 -38.5t57.5 -43t48 -50.5t20.5 -60q0 -4 -1 -15.5t-1 -15.5q-18 -25 -55 -25q-41 0 -88.5 33t-91.5 71t-80.5 70.5t-59.5 32.5q-14 0 -29.5 -11t-23.5 -22l-182 -272 l-58 -57q-18 -4 -22 -4q-60 0 -60 61q0 31 10.5 58.5t26.5 53t34.5 51t35.5 52.5q12 18 32.5 47t41 59.5t36 57t15.5 41.5v8q-16 43 -36 66.5t-48 66.5q-6 10 -21.5 36t-31 53.5t-29 51t-17.5 31.5q-2 2 -9 18.5t-15 37t-17.5 42t-15.5 33.5q-10 27 -17.5 53.5t-7.5 53.5z " />
<glyph unicode="y" horiz-adv-x="1003" d="M19 -706v9q0 12 1 23q3 17 8 29t17 12h57q8 0 15.5 -44t23 -101.5t41 -113.5t68.5 -79h55q74 0 152 22.5t146.5 63.5t121.5 101.5t78 134.5q23 72 28 136t5 140v111q-4 18 -12.5 62t-17.5 94.5t-17.5 94.5t-10.5 60q-4 14 -8 32.5t-11 33t-18.5 25t-31.5 10.5 q-39 0 -74 -9.5t-72 -9.5q-129 0 -206.5 79t-106.5 202v82q0 43 4 95t20.5 97t49 75t92.5 30q55 0 80.5 -36t25.5 -89q0 -33 -19.5 -48.5t-43 -29t-43 -30.5t-19.5 -54t11.5 -77t34 -75t54 -57.5t74.5 -22.5t72 14.5t46.5 39t24.5 56.5t7 67v47q0 25 -2 47q10 25 25.5 42 t43.5 17q31 0 49.5 -23.5t27.5 -54t13.5 -62.5t6.5 -50q0 -6 1 -21.5t3 -32t3 -32t1 -21.5l90 -526v-17q0 -14 1 -33.5t1 -39.5v-33q0 -86 -3 -158.5t-24 -154.5q-25 -96 -91 -180.5t-154 -148t-189.5 -99t-195.5 -35.5q-47 0 -94.5 6t-87.5 23.5t-68.5 50.5t-40.5 86 q0 12 -3 39.5t-6 59.5t-5.5 59.5t-2.5 39.5v25q0 8 -1 25z" />
<glyph unicode="z" horiz-adv-x="1120" d="M20 823q0 33 25 53.5t57 20.5q25 0 56.5 -4t65.5 -10t64.5 -11.5t53.5 -7.5q12 0 46 -1t73 -3t72.5 -3t46.5 -1q47 -4 73.5 -36t26.5 -75q0 -45 -24.5 -87t-62.5 -81.5t-85 -78.5t-93 -78t-85 -78t-62 -78l-8 -16q-2 -2 -2 -4q0 -16 11.5 -28.5t26.5 -22t32.5 -14.5 t29.5 -7q6 0 32 -1t54.5 -3t54 -3t31.5 -1q29 -2 57.5 -9.5t59.5 -7.5q61 0 121.5 9.5t124.5 9.5h31q20 0 39.5 -1t33.5 -1h19q8 0 34.5 -2t59.5 -4t64.5 -5t48.5 -6q6 0 25.5 -4t41 -11t39 -16.5t17.5 -17.5v-57l-17 -16h-676q-27 -4 -50 -6.5t-44 -2.5h-92 q-41 0 -107.5 4.5t-131 21.5t-111.5 52t-47 96q0 72 44 137.5t104.5 124t125 109.5t105.5 96q-4 12 -15.5 26.5t-25.5 16.5l-273 17q-18 0 -38.5 9t-38 23.5t-28 34t-10.5 39.5z" />
<glyph unicode="{" horiz-adv-x="1028" d="M20 303q0 70 29 139.5t73 133t94 120t93 103.5q6 8 7 15t1 17q0 31 -23.5 48.5t-51 33t-51 34t-23.5 52.5q0 41 30.5 63.5t68.5 40t69 38t31 57.5v4q-4 4 -9 17q-45 74 -72.5 138t-27.5 152v78q27 92 92.5 151.5t150.5 93.5t178 47t175 13q57 0 105.5 -33.5t48.5 -95.5 q0 -43 -28 -72.5t-73 -29.5q-25 0 -46 10t-40.5 23.5t-41 24t-48.5 10.5q-37 0 -95 -11.5t-112.5 -36t-94.5 -62.5t-40 -91q0 -49 18.5 -106.5t49.5 -96.5q14 -20 36.5 -37.5t43 -35t36 -39t15.5 -48.5q0 -39 -23.5 -62.5t-51.5 -38.5t-51.5 -29.5t-23.5 -35.5 q0 -23 23.5 -34t52.5 -21t52.5 -26.5t23.5 -51.5q0 -25 -12.5 -42t-30 -30.5t-38 -25.5t-36.5 -27q-6 -6 -29.5 -28.5t-51 -50t-53.5 -54t-38 -41.5q-25 -25 -48.5 -55.5t-41.5 -64t-30.5 -70.5t-12.5 -72q0 -49 14.5 -99t41 -93t66.5 -74t93 -39h16q12 0 26.5 -1t25.5 -1 h18h20q14 0 28.5 1t25.5 1h12q12 2 45 8t70 14.5t70.5 15.5t45.5 11q2 0 7.5 1t9.5 1q25 0 45 -19.5t20 -47.5q0 -23 -15 -36.5t-36.5 -20.5t-44 -11t-37.5 -6q-92 -18 -179 -37.5t-181 -19.5q-86 0 -152.5 42t-110.5 107.5t-68 145t-24 155.5z" />
<glyph unicode="|" horiz-adv-x="509" d="M20 1700q0 70 49.5 98.5t110.5 28.5h45q47 -29 68.5 -68t56.5 -88q12 -23 17 -51q2 -16 6 -51t8 -72t7 -67.5t3 -38.5q0 -10 1 -45t3 -75t3 -76t1 -44t4.5 -36t8.5 -38v-502q0 -6 4 -20t8 -29.5t9 -29t7 -19.5q23 -82 37.5 -165t14.5 -169q0 -6 -1.5 -29.5t-1.5 -31.5 q-25 -61 -79 -75.5t-113 -14.5h-64q-8 2 -21 10t-25.5 18.5t-21.5 22.5t-9 23v509l-78 676q0 2 -2 13.5t-5 25t-5.5 25.5t-4.5 18q-23 92 -32 183.5t-9 183.5z" />
<glyph unicode="}" horiz-adv-x="954" d="M20 1774q0 25 13.5 40t35 23t47 11t48.5 3h53q106 0 222 -21.5t211 -72.5t156.5 -137t61.5 -217q0 -68 -20.5 -129.5t-52.5 -120.5q-14 -25 -37 -43t-23 -47q0 -35 31 -51.5t68.5 -30.5t68.5 -35.5t31 -64.5q0 -25 -14.5 -42.5t-34.5 -31.5q-6 -4 -24.5 -15.5t-40 -23.5 t-40 -22.5t-26.5 -12.5q-16 -10 -21.5 -16t-5.5 -21q0 -10 1 -16t9 -14q33 -33 66 -65t58.5 -66.5t41 -74.5t15.5 -89q0 -72 -46.5 -141.5t-116 -124t-149.5 -88t-149 -33.5q-92 0 -181.5 14t-181.5 18q-29 10 -47 31t-18 49q0 25 17 44.5t40 23.5q70 6 119 8t112 2 q47 0 88 -17.5t89 -17.5q39 0 85 20.5t87 54.5t68.5 76t27.5 85q0 29 -15.5 56.5t-38 51t-51 42t-53.5 26.5q-23 8 -49.5 12t-50 13.5t-39.5 25.5t-16 47q0 39 30.5 66.5t68.5 50t68.5 41t30.5 41.5q0 31 -30.5 43t-68.5 22.5t-68.5 29t-30.5 61.5q0 25 16 43t39.5 32.5 t47 25.5t36.5 21q61 47 97 110.5t36 141.5q0 82 -32 139.5t-84 93.5t-118.5 55.5t-138.5 29.5t-142.5 12t-127.5 4q-23 8 -40.5 22.5t-17.5 39.5z" />
<glyph unicode="~" horiz-adv-x="1400" d="M-78 748v24q29 41 69 60.5t79 48.5q47 35 100 79t110.5 82.5t119 65.5t126.5 27q66 0 95.5 -29t42 -72t18.5 -93t22.5 -93t54.5 -71.5t115 -28.5q33 0 73 3t79 11t75 22.5t62 36.5q6 6 27.5 26.5t47.5 44t47.5 44t27.5 27.5q23 18 41 29.5t47 11.5q35 0 55.5 -14.5 t20.5 -51.5q0 -23 -6.5 -36t-15.5 -25.5t-23.5 -24.5t-28.5 -31q-23 -29 -36 -65.5t-46 -57.5q-104 -59 -227 -78.5t-240 -19.5q-90 0 -144.5 27.5t-86 70.5t-46 91.5t-25.5 91.5t-26.5 70.5t-48.5 27.5q-12 0 -31.5 -9t-29.5 -16l-355 -247q-27 -18 -37 -21.5t-34 -3.5 q-68 0 -68 66z" />
<glyph unicode="&#xad;" horiz-adv-x="788" d="M18 907q0 6 1 17.5t3.5 14.5t17.5 18.5t21 19.5q23 10 53.5 13t63.5 3q35 0 66.5 -1t54.5 1q12 0 56 4t96.5 8.5t96.5 8.5t56 4q2 0 22.5 1t30.5 1q6 0 27 -1t27 -1q27 -10 43 -27.5t16 -46.5q0 -47 -38 -66.5t-79 -23.5q-131 -10 -265 -21.5t-265 -11.5q-37 0 -71 22.5 t-34 63.5z" />
<glyph unicode="&#xc0;" horiz-adv-x="931" d="M20 78q0 31 7.5 59.5t16.5 58t17.5 58.5t8.5 59q0 23 -4.5 46.5t-4.5 48.5q0 16 10.5 33.5t24 34t26.5 29.5t21 23q10 14 16.5 38t9.5 51.5t4 56t1 53.5q0 16 1 31.5t3 25.5q2 2 4 15.5t4 17.5q20 61 33.5 103.5t26.5 101.5q2 18 8 62t14 94.5t15.5 94.5t11.5 62 q8 25 23.5 41.5t41.5 16.5q29 0 46.5 -16.5t27.5 -41.5l254 -708q2 -12 10.5 -41t17.5 -61.5t18 -61.5t14 -41q14 -51 41.5 -89t54 -76t47 -82t20.5 -107q0 -35 -20.5 -57.5t-56.5 -22.5q-41 0 -71 33.5t-54.5 82t-47 98.5t-47.5 81q-12 18 -36.5 29.5t-55 17.5t-64.5 8 t-65 2h-69q-37 0 -57.5 -25.5t-32 -64.5t-19.5 -83t-21.5 -83t-38 -64.5t-67.5 -25.5q-35 0 -51.5 25.5t-16.5 58.5zM307 545q0 -10 6 -12.5t15.5 -1.5t19.5 4.5t21 1.5q6 -2 24.5 -7.5t41 -9.5t43 -9t30.5 -7h14h10q10 4 22.5 16t10.5 17l-123 362q-4 10 -12 21.5t-20 11.5 q-23 0 -34 -18.5t-16 -39.5q-4 -14 -11 -61t-15 -99t-15.5 -99.5t-8.5 -54.5t-2 -10t-1 -5zM322 1591q-18 53 30 70q18 6 40 1t43.5 -16.5t41 -24.5t35.5 -24q35 -20 58.5 -41.5t35.5 -64.5q10 -35 8 -60.5t-36 -35.5q-27 -6 -67 11t-79 48t-70.5 68t-39.5 69z" />
<glyph unicode="&#xc1;" horiz-adv-x="931" d="M20 86q0 31 7.5 59.5t16.5 58t17.5 58.5t8.5 60q0 23 -4.5 46t-4.5 48q0 16 10.5 33.5t24 34t26.5 29.5t21 24q10 14 16.5 37.5t9.5 51t4 56.5t1 53q0 16 1 31.5t3 26.5q2 2 4 15t4 17q20 61 33.5 103.5t26.5 101.5q2 18 8 62.5t14 94.5t15.5 94t11.5 62q8 25 23.5 41.5 t41.5 16.5q29 0 46.5 -16.5t27.5 -41.5l254 -708q2 -12 10.5 -41t17.5 -61.5t18 -61.5t14 -41q14 -51 41.5 -89t54 -76t47 -82t20.5 -107q0 -35 -20.5 -57.5t-56.5 -22.5q-41 0 -71 33.5t-54.5 82t-47 98.5t-47.5 81q-12 18 -36.5 29.5t-55 17.5t-64.5 8t-65 2h-69 q-37 0 -57.5 -25.5t-32 -64.5t-19.5 -83t-21.5 -83t-38 -64.5t-67.5 -25.5q-35 0 -51.5 25.5t-16.5 58.5zM289 1522q0 18 11 37.5t27.5 37t34 33t31.5 27.5q29 29 56.5 45t72.5 16q35 0 59.5 -10t24.5 -45q0 -27 -27.5 -59.5t-68.5 -62.5t-86 -49t-78 -19q-57 0 -57 49z M307 553q0 -10 6 -12t15.5 -1t19.5 4t21 1q6 -2 24.5 -7.5t41 -9.5t43 -9t30.5 -7h14h10q10 4 22.5 16.5t10.5 16.5l-123 362q-4 10 -12 21.5t-20 11.5q-23 0 -34 -18.5t-16 -38.5q-4 -14 -11 -61.5t-15 -99.5t-15.5 -99.5t-8.5 -54.5t-2 -10t-1 -5z" />
<glyph unicode="&#xc2;" horiz-adv-x="931" d="M20 82q0 31 7.5 59.5t16.5 58t17.5 58.5t8.5 59q0 23 -4.5 46.5t-4.5 48.5q0 16 10.5 33.5t24 34t26.5 29.5t21 23q10 14 16.5 38t9.5 51.5t4 56.5t1 53q0 16 1 31.5t3 25.5q2 2 4 15.5t4 17.5q20 61 33.5 103.5t26.5 101.5q2 18 8 62.5t14 94.5t15.5 94t11.5 62 q8 25 23.5 41.5t41.5 16.5q29 0 46.5 -16.5t27.5 -41.5l254 -708q2 -12 10.5 -41t17.5 -61.5t18 -61.5t14 -41q14 -51 41.5 -89t54 -76t47 -82t20.5 -107q0 -35 -20.5 -57.5t-56.5 -22.5q-41 0 -71 33.5t-54.5 82t-47 98.5t-47.5 81q-12 18 -36.5 29.5t-55 17.5t-64.5 8 t-65 2h-69q-37 0 -57.5 -25.5t-32 -64.5t-19.5 -83t-21.5 -83t-38 -64.5t-67.5 -25.5q-35 0 -51.5 25.5t-16.5 58.5zM127 1522q-2 23 11.5 40t27.5 27q4 4 16.5 13.5t26.5 19.5t26.5 18.5t16.5 10.5l102 108q10 10 17.5 8t17.5 0q25 0 44.5 -10t35.5 -24.5t31.5 -32 t31.5 -29.5q8 -6 10.5 -9t3.5 -6t6 -7t17 -13q14 -12 35 -22t40.5 -22.5t33.5 -29t14 -38.5q2 -25 -17.5 -42.5t-47.5 -19.5q-18 -2 -38 6.5t-40.5 20.5t-37.5 25.5t-30 21.5q-14 10 -17 18.5t-19.5 18.5t-30 15t-29.5 3q-10 0 -18.5 -2t-18.5 -14q-16 -16 -21 -23.5 t-9.5 -12.5t-10.5 -12t-24.5 -23.5t-34 -27t-44 -12.5t-52 13.5t-25.5 44.5zM307 549q0 -10 6 -12t15.5 -1t19.5 4t21 1q6 -2 24.5 -7.5t41 -9.5t43 -9t30.5 -7h14h10q10 4 22.5 16.5t10.5 16.5l-123 362q-4 10 -12 21.5t-20 11.5q-23 0 -34 -18.5t-16 -38.5 q-4 -14 -11 -61.5t-15 -99.5t-15.5 -99.5t-8.5 -54.5t-2 -10t-1 -5z" />
<glyph unicode="&#xc3;" horiz-adv-x="931" d="M20 80q0 31 7.5 59.5t16.5 58t17.5 58.5t8.5 59q0 23 -4.5 46.5t-4.5 48.5q0 16 10.5 33.5t24 34t26.5 29.5t21 23q10 14 16.5 38t9.5 51.5t4 56.5t1 53q0 16 1 31.5t3 25.5q2 2 4 15.5t4 17.5q20 61 33.5 103.5t26.5 101.5q2 18 8 62t14 94.5t15.5 94.5t11.5 62 q8 25 23.5 41.5t41.5 16.5q29 0 46.5 -16.5t27.5 -41.5l254 -708q2 -12 10.5 -41t17.5 -61.5t18 -61.5t14 -41q14 -51 41.5 -89t54 -76t47 -82t20.5 -107q0 -35 -20.5 -57.5t-56.5 -22.5q-41 0 -71 33.5t-54.5 82t-47 98.5t-47.5 81q-12 18 -36.5 29.5t-55 17.5t-64.5 8 t-65 2h-69q-37 0 -57.5 -25.5t-32 -64.5t-19.5 -83t-21.5 -83t-38 -64.5t-67.5 -25.5q-35 0 -51.5 25.5t-16.5 58.5zM106 1552q12 18 28 27.5t32 22.5q18 16 38.5 35.5t42 37t45 30.5t50.5 15q41 2 52.5 -22.5t18.5 -53t21.5 -52t63.5 -19.5q29 2 62.5 10t55.5 29 q2 2 10.5 11t17.5 19.5t17.5 19.5t10.5 11q10 10 16 14.5t19 6.5q16 6 24 -2.5t9 -23.5t-5 -35.5t-18 -41.5q-41 -63 -94.5 -83.5t-124.5 -24.5q-55 -4 -82 19.5t-39 52t-19.5 52t-27.5 21.5q-4 -2 -12.5 -6t-12.5 -6q-55 -45 -86 -65.5t-47 -27.5t-22.5 -6t-10.5 1 q-31 0 -30 24zM307 547q0 -10 6 -12.5t15.5 -1t19.5 4.5t21 1q6 -2 24.5 -7.5t41 -9.5t43 -9t30.5 -7h14h10q10 4 22.5 16.5t10.5 16.5l-123 362q-4 10 -12 21.5t-20 11.5q-23 0 -34 -18.5t-16 -38.5q-4 -14 -11 -61.5t-15 -99.5t-15.5 -99.5t-8.5 -54.5t-2 -10t-1 -5z" />
<glyph unicode="&#xc4;" horiz-adv-x="933" d="M20 84q0 31 7.5 59.5t16.5 58t17.5 58.5t8.5 59q0 23 -4.5 46.5t-4.5 48.5q0 16 10.5 33.5t24 34t26.5 29.5t21 24q10 14 16.5 37.5t9.5 51t4 56.5t1 53q0 16 1 31.5t3 26.5q2 2 4 15t4 17q20 61 33.5 103.5t26.5 101.5q2 18 8 62.5t14 94.5t15.5 94t11.5 62 q8 25 23.5 41.5t41.5 16.5q29 0 46.5 -16.5t27.5 -41.5l254 -708q2 -12 10.5 -41t17.5 -61.5t18 -61.5t14 -41q14 -51 41.5 -89t54 -76t47 -82t20.5 -107q0 -35 -20.5 -57.5t-56.5 -22.5q-41 0 -71 33.5t-54.5 82t-47 98.5t-47.5 81q-12 18 -36.5 29.5t-55 17.5t-64.5 8 t-65 2h-69q-37 0 -57.5 -25.5t-32 -64.5t-19.5 -83t-21.5 -83t-38 -64.5t-67.5 -25.5q-35 0 -51.5 25.5t-16.5 58.5zM162 1569q0 35 21.5 56.5t58.5 21.5h20q29 -12 48.5 -41t19.5 -58q0 -20 -12.5 -36.5t-30.5 -22.5h-29q-35 0 -65.5 19.5t-30.5 60.5zM307 551q0 -10 6 -12 t15.5 -1t19.5 4t21 1q6 -2 24.5 -7.5t41 -9.5t43 -9t30.5 -7h14h10q10 4 22.5 16.5t10.5 16.5l-123 362q-4 10 -12 21.5t-20 11.5q-23 0 -34 -18.5t-16 -38.5q-4 -14 -11 -61.5t-15 -99.5t-15.5 -99.5t-8.5 -54.5t-2 -10t-1 -5zM492 1563q0 16 11 28.5t26.5 21.5t33 13 t29.5 4h20q43 -37 43 -90q0 -57 -63 -57q-31 0 -65.5 22.5t-34.5 57.5z" />
<glyph unicode="&#xc5;" horiz-adv-x="935" d="M20 84q0 31 7.5 59.5t16.5 58t17.5 58.5t8.5 59q0 23 -4.5 46.5t-4.5 48.5q0 16 10.5 33.5t24 34t26.5 29.5t21 24q10 14 16.5 37.5t9.5 51t4 56.5t1 53q0 16 1 31.5t3 26.5q2 2 4 15t4 17q20 61 33.5 103.5t26.5 101.5q2 18 8 62.5t14 94.5t15.5 94t11.5 62 q8 25 23.5 41.5t41.5 16.5q29 0 46.5 -16.5t27.5 -41.5l254 -708q2 -12 10.5 -41t17.5 -61.5t18 -61.5t14 -41q14 -51 41.5 -89t54 -76t47 -82t20.5 -107q0 -35 -20.5 -57.5t-56.5 -22.5q-41 0 -71 33.5t-54.5 82t-47 98.5t-47.5 81q-12 18 -36.5 29.5t-55 17.5t-64.5 8 t-65 2h-69q-37 0 -57.5 -25.5t-32 -64.5t-19.5 -83t-21.5 -83t-38 -64.5t-67.5 -25.5q-35 0 -51.5 25.5t-16.5 58.5zM210.5 1609q-10.5 44 12.5 89q12 18 13 37q0 18 30 28q23 8 43 9h43q51 14 95.5 -13.5t70.5 -68.5q35 -29 39 -68t-14.5 -74t-52 -55t-76.5 -12 q-47 -12 -90 3t-73 48t-40.5 77zM307 551q0 -10 6 -12t15.5 -1t19.5 4t21 1q6 -2 24.5 -7.5t41 -9.5t43 -9t30.5 -7h24q10 4 22.5 16.5t10.5 16.5l-123 362q-4 10 -12 21.5t-20 11.5q-23 0 -34 -18.5t-16 -38.5q-4 -14 -11 -61.5t-15 -99.5t-15.5 -99.5t-8.5 -54.5t-2 -10 t-1 -5zM317 1602q6 0 15.5 -6.5t19.5 -13.5t21.5 -11t21.5 0q0 2 7.5 6t11.5 8q2 0 6 4q4 12 3 28t1 30q-12 10 -31.5 14t-42.5 2q-16 -10 -26.5 -25.5t-6.5 -35.5z" />
<glyph unicode="&#xc6;" horiz-adv-x="1941" d="M20 39q0 18 8.5 38.5t20.5 41t24.5 40t20.5 31.5l527 1209q8 25 19 52.5t26.5 51t38 38.5t53.5 15q27 0 47 -17t38.5 -36.5t38 -37t44.5 -17.5h460q6 2 23.5 4t38 5t38 5t23.5 2h17q55 0 81.5 -33.5t26.5 -82.5v-19q0 -12 -2 -12l-24 -25q-25 -2 -33 -2q-29 0 -54.5 5 t-54.5 5q-129 0 -258 -8t-258 -8q-16 -4 -28.5 -18.5t-12.5 -30.5v-8l115 -314q8 -20 27.5 -46.5t46.5 -26.5h444q23 0 48.5 -5.5t46 -15.5t33.5 -28.5t13 -45.5t-17 -40t-42 -21q-4 -2 -27 -2h-26q-37 0 -72 5t-72 5q-68 0 -136 -7t-136 -9q-23 -8 -36 -28.5t-13 -43.5v-20 q4 -16 14 -56.5t22.5 -84.5t23 -84t14.5 -54q4 -12 10 -32.5t13 -41t12.5 -35t7.5 -14.5l49 -51h33q61 0 122.5 8t123 17.5t123 17.5t124.5 8h57q66 -23 66 -84q0 -43 -30.5 -66.5t-71.5 -23.5q-25 0 -48.5 4t-46.5 4h-24q-27 -4 -92.5 -13t-139 -19.5t-139 -19.5t-90.5 -13 q-4 0 -21.5 -4t-21.5 -4h-29q-45 0 -65.5 26.5t-28.5 64.5t-9 79t-7 69q0 2 -5 16.5t-11.5 32t-11.5 31.5t-5 19q-4 16 -14.5 59t-22.5 92t-22.5 92.5t-14.5 59.5q-6 25 -28.5 42t-44.5 17h-9q-6 0 -8 -2q-92 -20 -190.5 -35.5t-196.5 -13.5q-16 -8 -31.5 -21.5t-25.5 -27.5 q-47 -104 -101.5 -218t-97.5 -227q-16 -47 -41.5 -85t-81.5 -38q-33 0 -53.5 13.5t-20.5 50.5zM514 799q4 -29 26.5 -32t41.5 -3q20 0 68 3t98.5 13.5t89.5 28.5t39 51v12l-107 306q-6 16 -17.5 32.5t-33.5 16.5q-10 0 -13.5 -3t-11.5 -14l-32 -65q-6 -14 -26 -58.5 t-42.5 -95.5t-43 -99t-28.5 -69z" />
<glyph unicode="&#xc7;" horiz-adv-x="1189" d="M25 774q12 135 58 239.5t146 198.5q8 8 23.5 22.5t34 28t38 22.5t35.5 7l197 -18q16 -2 32.5 -24.5t20.5 -39.5q0 -4 1 -17t3 -28.5t3 -29t1 -15.5q0 -4 4.5 -19.5t9.5 -31.5t10 -31.5t7 -19.5q8 -27 6 -44.5t-6 -45.5l-6 -60q-12 -16 -28.5 -30.5t-41.5 -12.5 q-45 4 -61 53.5t-25.5 107.5t-23.5 107.5t-55 53.5q-35 4 -65 -18.5t-52 -45.5q-63 -59 -91 -147t-36 -172q-18 -199 61.5 -357.5t251.5 -256.5q31 -16 60.5 -24.5t64.5 -12.5q45 -4 94 5t98.5 25.5t96.5 37t90 36.5q31 16 64.5 33.5t68.5 13.5q59 -4 53 -61l-2 -19 q-4 -6 -20.5 -19t-22.5 -18q-111 -57 -209 -105t-211 -62q6 -25 7 -43v-21q0 -12 2 -27q-2 -59 -13.5 -100t-56.5 -86q-2 -4 -32.5 -10t-65.5 -13.5t-64.5 -12.5t-66.5 -1q-20 0 -41 9.5t-25 25.5q-8 10 8.5 18.5t45 15.5t63.5 15t64.5 18.5t47 23.5t11.5 34 q-4 16 -23.5 29.5t-34.5 27.5l-6 27q-14 37 -4 78q-135 25 -233.5 101.5t-160 186t-87 239.5t-12.5 259z" />
<glyph unicode="&#xc8;" horiz-adv-x="911" d="M20 307q2 59 24 126t62 114q16 18 54.5 49t76 63.5t67.5 62.5t30 44q2 18 -18.5 37.5t-50 42t-65.5 48.5t-65 58.5t-48 72.5t-15 91q4 66 33.5 106t74.5 62.5t99.5 28.5t107.5 4q35 -2 95.5 -15.5t118.5 -38t99 -62.5t39 -89q-2 -27 -13 -49.5t-42 -20.5 q-29 2 -51.5 18.5t-43 36t-43 36t-50.5 18.5l-199 10q-25 4 -55.5 -13.5t-30.5 -45.5q-2 -16 10 -32.5t21 -27.5q43 -57 104.5 -90.5t124.5 -52.5q8 -2 39 -11t66.5 -19.5t66.5 -19.5t39 -11q29 -8 52.5 -29t19.5 -49q-2 -33 -25.5 -49.5t-54.5 -23.5t-63.5 -9t-53.5 -8 q-63 -18 -131 -49t-124 -75t-93 -102.5t-41 -134.5q-2 -47 22.5 -79.5t62.5 -55t83 -34t82 -13.5l45 -4q6 0 26.5 4t44 9t44 9.5t26.5 4.5q6 2 12 2t10.5 1t24.5 7q27 6 50.5 20.5t46 28.5t46 24.5t52.5 8.5q47 -4 45 -49q-2 -41 -47 -78t-103.5 -64.5t-117 -44t-84.5 -16.5 q-10 -2 -21.5 -3t-21.5 -1h-37l-78 4q-70 4 -136.5 23.5t-117.5 58.5t-81 97t-26 138zM326 1587q-18 53 30 70q18 6 40 1t43.5 -16.5t41 -24.5t35.5 -24q35 -20 58.5 -41.5t35.5 -64.5q10 -35 8 -60.5t-36 -35.5q-27 -6 -67 11t-79 48t-70.5 67.5t-39.5 69.5z" />
<glyph unicode="&#xc9;" horiz-adv-x="911" d="M20 307q2 59 24 126t62 114q16 18 54.5 49t76 63.5t67.5 62.5t30 44q2 18 -18.5 37.5t-50 42t-65.5 48.5t-65 58.5t-48 72.5t-15 91q4 66 33.5 106t74.5 62.5t99.5 28.5t107.5 4q35 -2 95.5 -15.5t118.5 -38t99 -62.5t39 -89q-2 -27 -13 -49.5t-42 -20.5 q-29 2 -51.5 18.5t-43 36t-43 36t-50.5 18.5l-199 10q-25 4 -55.5 -13.5t-30.5 -45.5q-2 -16 10 -32.5t21 -27.5q43 -57 104.5 -90.5t124.5 -52.5q8 -2 39 -11t66.5 -19.5t66.5 -19.5t39 -11q29 -8 52.5 -29t19.5 -49q-2 -33 -25.5 -49.5t-54.5 -23.5t-63.5 -9t-53.5 -8 q-63 -18 -131 -49t-124 -75t-93 -102.5t-41 -134.5q-2 -47 22.5 -79.5t62.5 -55t83 -34t82 -13.5l45 -4q6 0 26.5 4t44 9t44 9.5t26.5 4.5q6 2 12 2t10.5 1t24.5 7q27 6 50.5 20.5t46 28.5t46 24.5t52.5 8.5q47 -4 45 -49q-2 -41 -47 -78t-103.5 -64.5t-117 -44t-84.5 -16.5 q-10 -2 -21.5 -3t-21.5 -1h-37l-78 4q-70 4 -136.5 23.5t-117.5 58.5t-81 97t-26 138zM313 1452q0 18 11.5 37.5t28 37t33.5 33t32 27.5q29 29 56.5 45.5t72.5 16.5q35 0 59.5 -10.5t24.5 -45.5q0 -27 -28 -59.5t-68.5 -62t-86 -49t-77.5 -19.5q-57 0 -58 49z" />
<glyph unicode="&#xca;" horiz-adv-x="911" d="M20 319q2 59 24 126t62 114q16 18 54.5 49t76 64t67.5 62.5t30 43.5q2 18 -18.5 38t-50 42.5t-65.5 48t-65 58t-48 72.5t-15 91q4 66 33.5 106t74.5 62.5t99.5 28.5t107.5 4q35 -2 95.5 -15.5t118.5 -38t99 -62t39 -89.5q-2 -27 -13 -49t-42 -20q-29 2 -51.5 18.5 t-43 35.5t-43 35.5t-50.5 18.5l-199 11q-25 4 -55.5 -13.5t-30.5 -46.5q-2 -16 10 -32.5t21 -26.5q43 -57 104.5 -91t124.5 -53q8 -2 39 -11t66.5 -19.5t66.5 -19.5t39 -11q29 -8 52.5 -28.5t19.5 -49.5q-2 -33 -25.5 -49t-54.5 -23.5t-63.5 -9.5t-53.5 -8q-63 -18 -131 -49 t-124 -75t-93 -102.5t-41 -133.5q-2 -47 22.5 -80t62.5 -55.5t83 -34t82 -13.5l45 -4q6 0 26.5 4t44 9.5t44 9.5t26.5 4q6 2 12 2t10.5 1t24.5 7q27 6 50.5 20.5t46 29t46 24.5t52.5 8q47 -4 45 -49q-2 -41 -47 -78t-103.5 -64.5t-117 -44t-84.5 -16.5q-10 -2 -21.5 -3 t-21.5 -1h-37l-78 4q-70 4 -136.5 23.5t-117.5 58.5t-81 97t-26 138zM172 1448q-2 23 11.5 40t27.5 28q4 4 16.5 13t26.5 19.5t26.5 18.5t16.5 10l102 109q10 10 17.5 8t17.5 0q25 0 44.5 -10.5t35.5 -24.5t31.5 -31.5t32.5 -30.5q8 -6 10 -9t3 -6t6 -7t17 -12 q14 -12 35 -22.5t40.5 -23t33.5 -28.5t14 -39q2 -25 -17.5 -42t-47.5 -19q-18 -2 -38 6t-40.5 20t-37.5 25.5t-30 21.5q-14 10 -17 18.5t-19.5 18.5t-30 15.5t-29.5 3.5q-10 0 -18.5 -2.5t-18.5 -14.5q-16 -16 -21 -23.5t-9.5 -12.5t-10.5 -12t-24.5 -23.5t-33.5 -26.5 t-44 -12t-52.5 13t-25.5 44z" />
<glyph unicode="&#xcb;" horiz-adv-x="911" d="M20 311q2 59 24 126t62 114q16 18 54.5 49t76 63.5t67.5 62.5t30 44q2 18 -18.5 37.5t-50 42t-65.5 48.5t-65 58.5t-48 72.5t-15 91q4 66 33.5 106t74.5 62.5t99.5 28.5t107.5 4q35 -2 95.5 -15.5t118.5 -38t99 -62.5t39 -89q-2 -27 -13 -49.5t-42 -19.5q-29 2 -51.5 18 t-43 35.5t-43 36t-50.5 18.5l-199 10q-25 4 -55.5 -13t-30.5 -46q-2 -16 10 -32.5t21 -26.5q43 -57 104.5 -91t124.5 -53q8 -2 39 -11t66.5 -19.5t66.5 -19.5t39 -11q29 -8 52.5 -28.5t19.5 -49.5q-2 -33 -25.5 -49.5t-54.5 -23.5t-63.5 -9t-53.5 -8q-63 -18 -131 -49 t-124 -75t-93 -102.5t-41 -134.5q-2 -47 22.5 -79.5t62.5 -55t83 -34t82 -13.5l45 -4q6 0 26.5 4t44 9t44 9.5t26.5 4.5q6 2 12 2t10.5 1t24.5 7q27 6 50.5 20.5t46 28.5t46 24.5t52.5 8.5q47 -4 45 -49q-2 -41 -47 -78t-103.5 -64.5t-117 -44t-84.5 -16.5q-10 -2 -21.5 -3 t-21.5 -1h-37l-78 4q-70 4 -136.5 23.5t-117.5 58.5t-81 97t-26 138zM193 1466q0 35 21.5 56.5t57.5 21.5h21q29 -12 48 -40.5t19 -57.5q0 -20 -12 -36.5t-31 -23.5h-28q-35 0 -65.5 19.5t-30.5 60.5zM522 1460q0 16 11.5 28.5t26.5 22t32.5 13.5t30.5 4h20q43 -37 43 -90 q0 -58 -63 -58q-31 0 -66 22.5t-35 57.5z" />
<glyph unicode="&#xcc;" horiz-adv-x="337" d="M25 1571q-18 53 30 69q18 6 40 1t43.5 -16t41 -24.5t35.5 -23.5q35 -20 58.5 -42t35.5 -65q10 -35 8 -60.5t-36 -35.5q-27 -6 -67 11.5t-79 48t-70.5 67.5t-39.5 70zM61 1112v45q0 39 10.5 68.5t51.5 29.5q33 0 55.5 -25.5t35.5 -64.5t20.5 -87t10.5 -93t5 -82t6 -53v-33 q0 -23 1 -48.5t1 -49.5v-31q0 -117 -14.5 -228.5t-14.5 -228.5q0 -41 -1 -76.5t-1 -72.5q0 -27 -17 -41t-42 -14t-39 11t-22.5 29.5t-11.5 41t-5 47.5v84q0 123 13.5 243.5t13.5 243.5v21q0 14 -1 31.5t-1 31.5v23q-33 70 -43.5 133t-10.5 145z" />
<glyph unicode="&#xcd;" horiz-adv-x="358" d="M20 1446q0 18 11.5 37.5t28 37t34 33t31.5 27.5q29 29 56.5 45t72.5 16q35 0 59.5 -10t24.5 -45q0 -27 -27.5 -59.5t-68.5 -62t-86 -49t-78 -19.5q-57 0 -58 49zM94 1102v45q0 39 10.5 68.5t51.5 29.5q33 0 55 -25.5t35.5 -64.5t20.5 -87t10.5 -93t5.5 -82t6 -53v-33 q0 -23 1 -48.5t1 -49.5v-31q0 -117 -14.5 -228.5t-14.5 -228.5q0 -41 -1 -76.5t-1 -72.5q0 -27 -17.5 -41.5t-41.5 -14.5q-25 0 -39.5 11.5t-22.5 30t-11 40.5t-5 47v84q0 123 13.5 244t13.5 244v20q0 14 -1.5 31.5t-1.5 32.5v22q-33 70 -43 133.5t-10 145.5z" />
<glyph unicode="&#xce;" horiz-adv-x="606" d="M20 1343q-2 23 11.5 40.5t27.5 27.5q4 4 16.5 13.5t27 19.5t26.5 18t16 11l103 108q10 10 17 8t18 0q25 0 44 -10t35.5 -24.5t32 -32t31.5 -29.5q8 -6 10 -9t3 -6t6.5 -7.5t17.5 -12.5q14 -12 34.5 -22.5t40 -22.5t34 -28.5t14.5 -38.5q2 -25 -17.5 -42.5t-48.5 -19.5 q-18 -2 -37.5 6t-40 20.5t-38 26t-29.5 21.5q-14 10 -17.5 18t-19.5 18.5t-29.5 15.5t-29.5 3q-10 0 -18.5 -2t-18.5 -14q-16 -16 -21.5 -23.5t-9.5 -12.5l-10 -12.5t-24.5 -23.5t-34 -26.5t-44 -12.5t-52.5 13t-26 44zM193 1090v45q0 39 10 68.5t51 29.5q33 0 55.5 -25.5 t35.5 -64.5t20.5 -87t10.5 -93t5 -82t6 -54v-32q0 -23 1 -48.5t1 -50.5v-30q0 -117 -14.5 -228.5t-14.5 -228.5q0 -41 -1 -77t-1 -73q0 -27 -17 -41t-42 -14t-39 11.5t-22.5 29.5t-11.5 41t-5 47v84q0 123 13.5 244t13.5 244v20q0 14 -1 31.5t-1 31.5v23q-33 70 -43 133.5 t-10 145.5z" />
<glyph unicode="&#xcf;" horiz-adv-x="534" d="M20 1430q0 35 21.5 56t58.5 21h21q29 -12 48 -40.5t19 -57.5q0 -20 -12 -36.5t-31 -22.5h-28q-35 0 -66 19.5t-31 60.5zM176 1116v45q0 39 10.5 69t51.5 30q33 0 55 -26t35.5 -65t20.5 -87t10 -93t5.5 -82t6.5 -53v-33q0 -23 1 -48t1 -50v-31q0 -117 -14.5 -228.5 t-14.5 -227.5q0 -41 -1 -77t-1 -73q0 -27 -17.5 -41t-41.5 -14q-25 0 -39.5 11t-22.5 29.5t-11 41t-5 47.5v84q0 123 13 243.5t13 243.5v21q0 14 -1 31.5t-1 31.5v23q-33 70 -43 133t-10 145zM350 1423q0 16 11.5 28.5t26.5 22t32.5 13.5t30.5 4h20q43 -37 43 -90 q0 -58 -63 -58q-31 0 -66 23t-35 57z" />
<glyph unicode="&#xd0;" horiz-adv-x="1357" d="M23 737q8 41 45.5 56.5t76.5 5.5l11 -2q8 -4 30.5 -13.5t48 -18.5t48 -17.5t28.5 -10.5l8 -2q-12 213 15 408q-6 39 -39 62.5t-69 43t-63.5 43t-23.5 66.5q4 29 21.5 47t46.5 14q27 -4 56.5 -17t51.5 -26l494 -295q74 -43 168 -120.5t177 -172t136 -198t45 -201.5 q-6 -72 -36.5 -125t-84.5 -100l-135 -113q-29 -23 -64.5 -29t-72.5 -14q-6 -2 -31.5 -7t-53.5 -11t-52.5 -11.5t-30.5 -7.5q-47 -6 -76 -4l-73 8l-25 2q-14 2 -28.5 4.5t-26.5 4.5h-10q-4 0 -25 5t-46.5 12t-51 15.5l-37.5 12.5q-18 8 -49 22.5t-58.5 32.5t-46 41t-14.5 51 q4 49 53 47q23 -4 41 -14t41 -12q31 -2 45 30q-33 176 -55 349q-66 14 -129 28t-131 43q-23 12 -39.5 36t-9.5 52zM452 873.5q5 -80.5 15 -166.5l225 -45q18 -2 37 -32t14 -48q-6 -29 -27.5 -44.5t-49.5 -21.5l-43 8q-33 4 -66 10.5t-63 10.5h-5q2 -12 3.5 -23.5t3.5 -23.5 q2 -6 4 -27.5t5 -46.5t5 -47.5t4 -28.5q0 -4 5 -19.5t12.5 -34t13.5 -32.5t8 -16q8 -25 4 -48.5t10 -45.5q16 -25 29.5 -31t42.5 -10q59 -6 150.5 8t178.5 50t152.5 93t75.5 137q6 47 -17.5 101.5t-60.5 105.5t-78 95t-71 73q-10 10 -32 27.5t-43.5 35t-39.5 32t-23 18.5 q-10 6 -39.5 25.5t-65.5 43t-67.5 45t-39 26.5t-17.5 10t-22.5 12.5t-25.5 14.5t-19 11l-25 10q-18 2 -34.5 -15.5t-18.5 -33.5q-10 -82 -5 -162.5z" />
<glyph unicode="&#xd1;" horiz-adv-x="1161" d="M20 1110q0 63 1.5 109.5t7.5 113.5q4 18 21.5 34.5t35.5 16.5q35 0 54.5 -27.5t29.5 -64.5t16.5 -73.5t14.5 -57.5q281 -616 291 -636.5t24 -47t29.5 -51.5t25.5 -37q16 -29 43 -64.5t60 -67.5t70.5 -53.5t76.5 -21.5q61 0 100.5 43t59.5 103.5t27.5 126t7.5 110.5v94 q-2 31 -5 106t-7.5 159t-7.5 158.5t-5 103.5q-4 33 -11 62.5t-7 60.5q0 4 1 16t1 16q10 10 18 11h23q20 0 33.5 -13.5t21.5 -33t12 -41t7 -37.5q6 -37 14 -96.5t16 -118t13.5 -101.5t5.5 -45v-28q0 -25 1 -55.5t1 -63.5v-51v-39q0 -29 -1 -59.5t-1 -59.5v-39 q-6 -63 -23.5 -139t-51.5 -142.5t-88 -110.5t-134 -44q-53 0 -105.5 19.5t-98.5 52t-84 73.5t-65 84q-16 25 -42.5 68t-53 87t-46 77.5t-21.5 40.5q-6 12 -21.5 44.5t-33 69.5t-33 70t-21.5 45q0 8 -4 8t-5 1t-3 1q-20 0 -24.5 -16.5t-4.5 -32.5q0 -141 21.5 -280.5 t21.5 -280.5v-45q0 -39 -13 -75t-59 -36q-20 0 -35.5 12.5t-25.5 28.5q-12 14 -18.5 46t-9.5 72t-4 83t-1 78v84v172q-4 131 -18.5 260t-14.5 264zM248 1491q12 18 27.5 27.5t31.5 21.5q18 16 39 35.5t42.5 37t45 31t49.5 15.5q41 2 52.5 -22.5t18.5 -53.5t21.5 -52.5 t63.5 -19.5q29 2 62.5 10.5t56.5 28.5q2 2 10 11.5t17.5 19.5t17.5 19.5t10 11.5q10 10 16.5 14t18.5 6q16 6 24.5 -2t9.5 -23.5t-5.5 -36t-18.5 -40.5q-41 -63 -94 -84t-125 -25q-55 -4 -82 19.5t-39 52.5t-19.5 52.5t-27.5 21.5q-4 -2 -12 -6.5t-13 -6.5 q-55 -45 -85.5 -65.5t-47 -27.5t-22.5 -6t-10 1q-31 0 -31 25z" />
<glyph unicode="&#xd2;" horiz-adv-x="882" d="M22.5 772q6.5 98 34 197.5t82.5 204.5q2 6 15.5 24.5t29 41t30.5 45t24 36.5q12 20 38.5 32.5t55 18.5t55.5 8t37 2q4 0 32.5 -11t62.5 -29.5t63.5 -40t38.5 -41.5l157 -218q33 -45 46.5 -99t23.5 -107q18 -109 14 -177.5t-25.5 -125t-57.5 -118t-83 -155.5 q-29 -45 -63.5 -89t-75.5 -81t-89 -63.5t-103 -34.5q-49 -8 -95.5 6t-84.5 45t-65.5 74t-39.5 90l-4 29q-4 23 -9.5 47t-9.5 43l-4 30q-18 113 -27.5 215.5t-3 200.5zM156 619.5q6 -101.5 14 -213.5l10 -52q4 -31 17.5 -71.5t35 -75.5t51 -56.5t68.5 -15.5q59 10 117.5 71.5 t108 140.5t84 158t49.5 126q2 8 4 30.5t2 49.5q0 29 -2 55.5t-4 40.5q-25 123 -88.5 221t-149.5 186q-16 18 -45 24.5t-45 2.5q-23 -4 -37 -14t-29 -31q-74 -98 -109.5 -191.5t-46.5 -188.5t-5 -196.5zM285 1618q-18 53 30 70q18 6 40 0.5t43.5 -16.5t41 -24.5t35.5 -23.5 q35 -20 58.5 -41.5t35.5 -64.5q10 -35 8 -60.5t-36 -36.5q-27 -6 -67 11.5t-79 48t-70.5 67.5t-39.5 70z" />
<glyph unicode="&#xd3;" horiz-adv-x="886" d="M24.5 751.5q6.5 98.5 34 198t82.5 203.5q2 6 15.5 24.5t29 41t30.5 45t24 36.5q12 20 38.5 33t55 19t55.5 8t37 2q4 0 32.5 -11.5t62.5 -29.5t63.5 -39.5t38.5 -42.5l157 -217q33 -45 46.5 -99.5t23.5 -107.5q18 -111 14 -178.5t-25.5 -123.5t-57.5 -117.5t-83 -155.5 q-29 -45 -63.5 -89.5t-75.5 -81t-89 -63t-103 -37.5q-49 -8 -95.5 7.5t-84 46t-65.5 73.5t-40 90l-4 29q-4 23 -9.5 47.5t-9.5 42.5l-4 31q-18 113 -27.5 215t-3 200.5zM158 599q6 -101 14 -214l10 -51q4 -31 17.5 -72t35 -75.5t51 -56t68.5 -15.5q59 10 117.5 71.5 t108 140.5t84 157.5t49.5 125.5q2 8 4 31t2 49q0 29 -2 55.5t-4 40.5q-25 123 -88.5 221.5t-149.5 186.5q-16 18 -45 24.5t-45 2.5q-23 -4 -37 -14.5t-29 -30.5q-74 -96 -109.5 -190.5t-46.5 -190t-5 -196.5zM244 1458q0 18 11 38t27.5 37t34 32.5t31.5 27.5 q29 29 56.5 45.5t72.5 16.5q35 0 59.5 -10.5t24.5 -45.5q0 -27 -27.5 -59.5t-68.5 -62t-86 -49t-78 -19.5q-57 0 -57 49z" />
<glyph unicode="&#xd4;" horiz-adv-x="882" d="M22.5 770q6.5 98 34 197.5t82.5 203.5q2 6 15.5 24.5t29 41.5t30.5 45.5t24 36.5q12 20 38.5 32.5t55 18.5t55.5 8t37 2q4 0 32.5 -11t62.5 -29.5t63.5 -40t38.5 -42.5l157 -217q33 -45 46.5 -99t23.5 -107q18 -111 14 -178.5t-25.5 -124t-57.5 -118t-83 -155.5 q-29 -45 -63.5 -89t-75.5 -81t-89 -63.5t-103 -36.5q-49 -8 -95.5 7t-84.5 46t-65.5 74t-39.5 90l-4 28q-4 23 -9.5 47.5t-9.5 43.5l-4 30q-18 113 -27.5 215.5t-3 200.5zM156 617.5q6 -101.5 14 -214.5l10 -51q4 -31 17.5 -71.5t35 -75.5t51 -56.5t68.5 -15.5 q59 10 117.5 71.5t108 140.5t84 158t49.5 126q2 8 4 30.5t2 49.5q0 29 -2 55.5t-4 40.5q-25 123 -88.5 221t-149.5 186q-16 18 -45 24.5t-45 2.5q-23 -4 -37 -14.5t-29 -30.5q-74 -96 -109.5 -190.5t-46.5 -189.5t-5 -196.5zM158 1454q-2 23 11 40t28 28q4 4 16 13 t26.5 19.5t27 18.5t16.5 10l102 109q10 10 17.5 8t17.5 0q25 0 44 -10.5t35.5 -24.5t32 -31.5t31.5 -29.5q8 -6 10 -9.5t3.5 -6.5t6.5 -7t17 -12q14 -12 34.5 -22.5t40 -23t34 -28.5t14.5 -39q2 -25 -17.5 -42t-48.5 -19q-18 -2 -37.5 6t-40 20.5t-38 25.5t-29.5 21 q-14 10 -17 18.5t-19.5 19t-30 15.5t-29.5 3q-10 0 -18.5 -2t-18.5 -15q-16 -16 -21.5 -23t-9.5 -12.5t-10 -12.5t-24.5 -23.5t-34 -26.5t-44 -12t-52 13t-25.5 44z" />
<glyph unicode="&#xd5;" horiz-adv-x="882" d="M22.5 762q6.5 98 34 197.5t82.5 203.5q2 6 15.5 24.5t29 41t30.5 45t24 37.5q12 20 38.5 32.5t55 18.5t55.5 8t37 2q4 0 32.5 -11t62.5 -29.5t63.5 -40t38.5 -42.5l157 -217q33 -45 46.5 -99t23.5 -108q18 -111 14 -178t-25.5 -123.5t-57.5 -118t-83 -155.5 q-29 -45 -63.5 -89t-75.5 -81t-89 -63.5t-103 -36.5q-49 -8 -95.5 7t-84.5 45.5t-65.5 74t-39.5 90.5l-4 28q-4 23 -9.5 47.5t-9.5 42.5l-4 31q-18 113 -27.5 215.5t-3 200.5zM117 1491q12 18 27.5 27.5t31.5 21.5q18 16 39 35.5t42.5 37t45 31t49.5 15.5q41 2 52.5 -22.5 t18.5 -53.5t21.5 -52.5t63.5 -19.5q29 2 62.5 10.5t56.5 28.5q2 2 10 11.5t17.5 19.5t17.5 19.5t10 11.5q10 10 16.5 14t18.5 6q16 6 24.5 -2t9.5 -23.5t-5.5 -36t-18.5 -40.5q-41 -63 -94 -84t-125 -25q-55 -4 -82 19.5t-39 52.5t-19.5 52.5t-27.5 21.5q-4 -2 -12.5 -6.5 t-12.5 -6.5q-55 -45 -85.5 -65.5t-47 -27.5t-22.5 -6t-10 1q-31 0 -31 25zM156 609.5q6 -101.5 14 -214.5l10 -51q4 -31 17.5 -72t35 -75.5t51 -56t68.5 -15.5q59 10 117.5 71.5t108 140.5t84 157.5t49.5 126.5q2 8 4 30.5t2 48.5q0 29 -2 55.5t-4 41.5q-25 123 -88.5 221 t-149.5 186q-16 18 -45 24.5t-45 2.5q-23 -4 -37 -14.5t-29 -30.5q-74 -96 -109.5 -190.5t-46.5 -189.5t-5 -196.5z" />
<glyph unicode="&#xd6;" horiz-adv-x="884" d="M24.5 764q6.5 98 34 197.5t82.5 203.5q2 6 15.5 24.5t29 41t30.5 45t24 37.5q12 20 38.5 32.5t55 18.5t55.5 8t37 2q4 0 32.5 -11t62.5 -29.5t63.5 -40t38.5 -42.5l157 -217q33 -45 46.5 -99t23.5 -108q18 -111 14 -178t-25.5 -123.5t-57.5 -118t-83 -155.5 q-29 -45 -63.5 -89t-75.5 -81t-89 -63.5t-103 -36.5q-49 -8 -95.5 7t-84 46t-65.5 74t-40 90l-4 28q-4 23 -9.5 47.5t-9.5 42.5l-4 31q-18 113 -27.5 215.5t-3 200.5zM158 611.5q6 -101.5 14 -214.5l10 -51q4 -31 17.5 -72t35 -75.5t51 -56t68.5 -15.5q59 10 117.5 71.5 t108 140.5t84 157.5t49.5 126.5q2 8 4 30.5t2 48.5q0 29 -2 55.5t-4 41.5q-25 123 -88.5 221t-149.5 186q-16 18 -45 24.5t-45 2.5q-23 -4 -37 -14.5t-29 -30.5q-74 -96 -109.5 -190.5t-46.5 -189.5t-5 -196.5zM184 1532q0 35 21.5 56.5t58.5 21.5h21q29 -12 48 -41t19 -58 q0 -20 -12 -36.5t-31 -22.5h-28q-35 0 -66 19.5t-31 60.5zM514 1526q0 16 11.5 28.5t26.5 21.5t32.5 13t29.5 4h21q43 -37 43 -90q-1 -57 -64 -57q-31 0 -65.5 22.5t-34.5 57.5z" />
<glyph unicode="&#xd8;" horiz-adv-x="1261" d="M20 -27q0 23 2.5 34t7.5 18.5t14 14.5t24 23q8 8 27.5 29t42 44.5t42 44t27.5 28.5q-59 76 -99 160t-49 170q-8 92 7.5 172t47 153.5t79 143t100.5 141.5q78 100 181.5 164.5t232.5 77.5q92 8 165.5 -21t133.5 -82l32 43q23 25 34 46.5t23.5 37t31 24.5t55.5 9 q29 0 44 -16t15 -43q0 -37 -24 -64l-113 -149q53 -80 86 -170q8 -23 11 -44.5t5 -41.5l8 -91q20 -209 -34 -382t-189 -332q-45 -53 -102.5 -99.5t-122.5 -68.5q-8 -2 -37 -6t-37 -4q-14 -2 -41.5 -3.5t-32.5 0.5q-78 14 -158.5 59.5t-154.5 110.5l-31 -41 q-10 -14 -29.5 -37.5t-29.5 -31.5q-23 -31 -53.5 -64.5t-73.5 -33.5q-35 0 -51.5 22.5t-16.5 54.5zM200 677q1 -61 5 -116q8 -102 94 -229l616 833l-43 37q-31 23 -74.5 38t-84.5 11q-78 -6 -156 -52t-145.5 -112.5t-118.5 -144.5t-76 -147q-18 -57 -17 -118zM389 217 q66 -66 140.5 -106.5t148.5 -32.5q33 2 79 35.5t92 78t86 90.5t58 70q70 111 84 242t2 256q-12 113 -65 205z" />
<glyph unicode="&#xd9;" horiz-adv-x="970" d="M20 1049q0 88 26 151.5t91 67.5q43 2 59.5 -22.5t18.5 -59.5q2 -25 -3 -48.5t-13.5 -47t-15.5 -47t-9 -48.5q-4 -49 -2 -110.5t6 -125t9.5 -125t7.5 -110.5l2 -10q10 -43 23 -114.5t38 -139t67 -117t109 -45.5q18 0 40 8.5t43.5 19.5t42 23.5t34.5 22.5q4 4 16.5 13.5 t16.5 13.5q68 68 108.5 144.5t61 161.5t25.5 175t1 186q-2 55 -7 86t-11 54.5t-11.5 49t-7.5 72.5q-2 27 15.5 46.5t44.5 21.5q41 2 58.5 -80t41.5 -262q2 -39 3 -79t1 -85q0 -92 -14 -164l-8 -24q-27 -86 -68 -176t-101.5 -165t-144.5 -125t-194 -56q-66 -4 -119 31.5 t-93 95t-68.5 134t-48 149.5t-29 140.5t-11.5 108.5l-6 113q-2 20 -6 54t-8 74t-7.5 84t-3.5 85zM350 1518q-18 53 31 69q18 6 39.5 1t43 -16t41 -24.5t36.5 -23.5q35 -20 58.5 -42t35.5 -65q10 -35 8 -60.5t-37 -35.5q-27 -6 -66.5 11.5t-78.5 48t-71 67.5t-40 70z" />
<glyph unicode="&#xda;" horiz-adv-x="958" d="M22.5 976q-2.5 56 0 114.5t15.5 105.5t39.5 77t72.5 30q43 0 58 -25t15 -61q0 -51 -21.5 -94.5t-29.5 -92.5q-6 -49 -7 -110.5t1 -126t4 -126t2 -110.5v-10q8 -43 18.5 -116t32 -141.5t61.5 -118.5t107 -50q18 0 41 7t45.5 17.5t43 21.5t34.5 19q4 4 16.5 13.5t16.5 13.5 q70 63 115 139t69.5 159t33.5 173t9 186q0 55 -4 86t-8 55.5t-8 50t-4 73.5q0 27 18 45t45 18q41 0 54.5 -82t29.5 -264q0 -76 -4 -164t-23 -162l-8 -24q-31 -86 -76 -174t-109.5 -160t-150.5 -118t-196 -46q-68 0 -118 38t-88 98.5t-63.5 136t-41 150.5t-21.5 142.5 t-6 110.5v113q0 29 -4 78t-6.5 105zM397 1432q0 18 11.5 37.5t28 37t33.5 32.5t32 28q29 29 56.5 45t72.5 16q35 0 59.5 -10t24.5 -45q0 -27 -28 -59.5t-68.5 -62.5t-86 -49.5t-77.5 -19.5q-57 0 -58 50z" />
<glyph unicode="&#xdb;" horiz-adv-x="958" d="M22.5 967.5q-2.5 56.5 0 115t15.5 105.5t39.5 76.5t72.5 29.5q43 0 58 -24.5t15 -61.5q0 -51 -21.5 -94t-29.5 -92q-6 -49 -7 -110.5t1 -126t4 -126t2 -110.5v-10q8 -43 18.5 -116t32 -141.5t61.5 -118.5t107 -50q18 0 41 7t45.5 17t43 21.5t34.5 19.5q4 4 16.5 13.5 t16.5 13.5q70 63 115 139t69.5 159t33.5 173t9 186q0 55 -4 86t-8 55.5t-8 50t-4 72.5q0 27 18 45.5t45 18.5q41 0 54.5 -82t29.5 -264q0 -76 -4 -164t-23 -162l-8 -24q-31 -86 -76 -174.5t-109.5 -160t-150.5 -117.5t-196 -46q-66 0 -117 38t-89 98.5t-63.5 136t-41 150.5 t-21.5 142.5t-6 110.5v112q0 29 -4 78t-6.5 105.5zM258 1399q-2 23 11.5 40t27.5 27q4 4 16.5 13.5t26.5 19.5t26.5 18.5t16.5 10.5l102 108q10 10 17.5 8t17.5 1q25 0 44.5 -10.5t35.5 -25t31.5 -31.5t32.5 -30q8 -6 10 -9t3 -6t6 -7t17 -13q14 -12 35 -22t40.5 -22.5 t33.5 -29t14 -38.5q2 -25 -17.5 -42.5t-47.5 -19.5q-18 -2 -38 6.5t-40.5 20.5t-37.5 25.5t-30 21.5q-14 10 -17 18.5t-19.5 18.5t-30 15t-29.5 3q-10 0 -18.5 -2t-18.5 -14q-16 -16 -21 -23.5t-9.5 -12.5t-10.5 -12t-24.5 -23.5t-33.5 -27t-44 -12.5t-52.5 13.5t-25.5 44.5 z" />
<glyph unicode="&#xdc;" horiz-adv-x="958" d="M22.5 963.5q-2.5 56.5 0 115t15.5 105.5t39.5 76.5t72.5 29.5q43 0 58 -24.5t15 -61.5q0 -51 -21.5 -94t-29.5 -92q-6 -49 -7 -110.5t1 -126t4 -126t2 -110.5v-10q8 -43 18.5 -116t32 -141.5t61.5 -118.5t107 -50q18 0 41 7t45.5 17t43 21.5t34.5 19.5q4 4 16.5 13.5 t16.5 13.5q70 63 115 139t69.5 159t33.5 173t9 186q0 55 -4 86t-8 55.5t-8 50t-4 72.5q0 27 18 45.5t45 18.5q41 0 54.5 -82t29.5 -264q0 -76 -4 -164t-23 -162l-8 -25q-31 -86 -76 -174t-109.5 -159.5t-150.5 -117.5t-196 -46q-66 0 -117 38t-89 98t-63.5 136t-41 150.5 t-21.5 142.5t-6 111v112q0 29 -4 78t-6.5 105.5zM291 1448q0 35 21.5 56.5t58.5 21.5h20q29 -12 48.5 -41t19.5 -58q0 -20 -12.5 -36.5t-30.5 -22.5h-29q-35 0 -65.5 19.5t-30.5 60.5zM621 1442q0 16 11 28.5t26.5 21.5t33 13t29.5 4h20q43 -37 43 -90q0 -57 -63 -57 q-31 0 -65.5 22.5t-34.5 57.5z" />
<glyph unicode="&#xdd;" horiz-adv-x="987" d="M20 1329q4 31 29 56.5t55 21.5q45 -4 64.5 -46t35 -97.5t36 -110.5t65.5 -86q16 -10 38 -34.5t50 -26.5q27 -4 51.5 3t53.5 5q23 -2 41 -7.5t41 -7.5q45 -4 91 38t83 100.5t60.5 118t25.5 90.5q2 23 -2 41t-2 40q4 31 15 46.5t44 11.5l20 -2q20 -18 31.5 -31.5t16 -28 t3.5 -32t-3 -41.5q-4 -37 -12.5 -66t-19.5 -54.5t-25.5 -53t-28.5 -62.5q-16 -35 -35 -78t-51 -71l-89 -74q-33 -25 -70.5 -44.5t-53.5 -62.5l-13 -143q-8 -104 -6 -200.5t23 -200.5q10 -37 21 -73t7 -77q-4 -35 -31.5 -59.5t-62.5 -20.5q-27 2 -42 22.5t-23.5 49.5 t-12.5 58.5t-8 52.5q-20 104 -26 202.5t2 202.5q4 43 11 85t11 85q2 20 -27.5 48t-69.5 54.5t-77 49t-49 32.5q-29 18 -61.5 66.5t-61.5 105t-47.5 112.5t-14.5 93zM373 1462q0 18 11 38t27.5 37t34 32.5t31.5 27.5q29 29 56.5 45.5t72.5 16.5q35 0 59.5 -10.5t24.5 -44.5 q0 -27 -27.5 -60t-68.5 -62.5t-86 -49t-78 -19.5q-57 0 -57 49z" />
<glyph unicode="&#xde;" horiz-adv-x="923" d="M16 228.5q-2 74.5 1 141t14 109.5v8l26 195l-6 514q-6 47 -16 108.5t-6 104.5q4 23 8 38t26 28h29q6 0 17.5 -3.5t11.5 -5.5q8 -6 23.5 -26.5t19.5 -28.5q14 -68 19 -109.5t4 -77.5t-3 -77t-2 -111q0 -10 9.5 -27.5t21.5 -19.5h4q20 18 47 23.5t57.5 6.5t61.5 0t59 5 q88 20 177.5 -19.5t158 -111.5t104.5 -160t15 -166q-8 -53 -70.5 -105t-145.5 -92t-169 -61.5t-141 -15.5q-53 6 -89 25.5t-87 41.5q0 -57 -2.5 -121.5t-4.5 -122t-4 -100.5t-4 -57q-4 -23 -8 -38t-27 -27h-28q-6 0 -17.5 3t-11.5 5q-8 6 -23.5 26.5t-19.5 28.5 q-12 51 -19.5 124t-9.5 147.5zM229 733q0 -47 9.5 -88t3.5 -84h2q-4 -25 7 -42t30.5 -31.5t43 -22.5t42.5 -14q33 -8 84 -4t103 20t94 45t57 68q27 76 10 130t-60 87.5t-104.5 50t-124.5 20.5q-41 2 -76 -3t-62.5 -20.5t-43 -42t-15.5 -69.5z" />
<glyph unicode="&#xe0;" d="M20 293q0 72 32 153.5t85 150.5t125 115t150 46q68 0 113.5 -37t80.5 -89t64.5 -108.5t64.5 -95.5q12 -14 31.5 -47t41 -70t42 -69.5t33.5 -46.5q12 -12 34.5 -25.5t44 -29t38 -34t16.5 -38.5q0 -18 -6 -30.5t-29 -23.5h-41q-31 0 -57.5 5.5t-48.5 27.5l-164 223 q0 2 -6.5 5.5t-10.5 5.5h-4h-4q-6 -4 -20.5 -10.5t-20.5 -16.5q-2 -4 -10 -17.5t-17.5 -28.5t-18.5 -28.5t-11 -15.5l-115 -115q-37 -20 -71.5 -30.5t-75.5 -10.5q-59 0 -107.5 22.5t-83.5 60.5t-54.5 90.5t-19.5 111.5zM160 295q0 -49 33.5 -94t87.5 -45q66 0 106.5 37.5 t85.5 87.5q14 14 23.5 33.5t9.5 39.5q0 16 -8.5 29.5t-17.5 26t-17 27t-8 32.5q0 4 1 13.5t1 11.5q0 4 8 24.5t8 22.5t-7 10t-16.5 16t-18.5 13.5t-15 3.5l-150 -66q-29 -12 -48 -37.5t-32.5 -57.5t-19.5 -65.5t-6 -62.5zM385 1141q-18 53 31 69q18 6 39.5 1t43 -16 t41 -24.5t35.5 -23.5q35 -20 59 -42t36 -65q10 -35 8 -60.5t-37 -35.5q-27 -6 -66.5 11.5t-78.5 48t-71 67.5t-40 70z" />
<glyph unicode="&#xe1;" d="M20 287q0 72 32 153.5t85 150t125 115t150 46.5q68 0 113.5 -37t80.5 -89.5t64.5 -108.5t64.5 -95q12 -14 31.5 -47t41 -70t42 -69.5t33.5 -47.5q12 -12 34.5 -25t44 -28.5t38 -34t16.5 -39.5q0 -18 -6 -30.5t-29 -22.5h-41q-31 0 -57.5 5t-48.5 28l-164 223q0 2 -6.5 5 t-10.5 5h-4h-4q-6 -4 -20.5 -10t-20.5 -16q-2 -4 -10 -17.5t-17.5 -29t-18.5 -28.5t-11 -15l-115 -115q-37 -20 -71.5 -30.5t-75.5 -10.5q-59 0 -107.5 22.5t-83.5 60.5t-54.5 90.5t-19.5 111.5zM160 289q0 -49 33.5 -94t87.5 -45q66 0 106.5 37.5t85.5 86.5q14 14 23.5 34 t9.5 40q0 16 -8.5 29.5t-17.5 26t-17 26.5t-8 33q0 4 1 13t1 11q0 4 8 24.5t8 23t-7 10.5t-16.5 16t-18.5 13.5t-15 3.5l-150 -66q-29 -12 -48 -37.5t-32.5 -57.5t-19.5 -65.5t-6 -62.5zM295 1001q0 18 11 38t27.5 37.5t34 32.5t31.5 28q29 29 56.5 45t72.5 16 q35 0 59.5 -10t24.5 -45q0 -27 -27.5 -59.5t-68.5 -62.5t-86 -49.5t-78 -19.5q-57 0 -57 49z" />
<glyph unicode="&#xe2;" d="M20 289q0 72 32 153.5t85 150.5t125 115t150 46q68 0 113.5 -37t80.5 -89.5t64.5 -108.5t64.5 -95q12 -14 31.5 -47t41 -70t42 -69.5t33.5 -47.5q12 -12 34.5 -25t44 -28.5t38 -34t16.5 -39.5q0 -18 -6 -30.5t-29 -22.5h-41q-31 0 -57.5 5t-48.5 28l-164 223q0 2 -6.5 5 t-10.5 5h-4h-4q-6 -4 -20.5 -10t-20.5 -16q-2 -4 -10 -17.5t-17.5 -29t-18.5 -28.5t-11 -15l-115 -115q-37 -20 -71.5 -30.5t-75.5 -10.5q-59 0 -107.5 22.5t-83.5 60.5t-54.5 90.5t-19.5 111.5zM160 291q0 -49 33.5 -94t87.5 -45q66 0 106.5 37.5t85.5 86.5q14 14 23.5 34 t9.5 40q0 16 -8.5 29.5t-17.5 26t-17 26.5t-8 33q0 4 1 13t1 11q0 4 8 25t8 23t-7 10t-16.5 16t-18.5 13.5t-15 3.5l-150 -66q-29 -12 -48 -37.5t-32.5 -57.5t-19.5 -65.5t-6 -62.5zM207 950q-2 23 11 40.5t28 27.5q4 4 16 13t26.5 19.5t27 18.5t16.5 10l102 109 q10 10 17.5 8t17.5 0q25 0 44 -10t35.5 -24.5t32 -32t31.5 -29.5q8 -6 10.5 -9.5t3.5 -6.5t6 -7t17 -12q14 -12 35 -22.5t40 -22.5t33.5 -28.5t14.5 -39.5q2 -25 -17.5 -42t-47.5 -19q-18 -2 -38 6t-40.5 20.5t-38 25.5t-29.5 22q-14 10 -17 18t-19.5 18.5t-30 15.5t-29.5 3 q-10 0 -18.5 -2t-18.5 -14q-16 -16 -21.5 -23.5t-9.5 -12.5l-10 -12.5t-24.5 -24t-34 -26.5t-44 -12t-52 13t-25.5 44z" />
<glyph unicode="&#xe3;" d="M20 283q0 72 32 153.5t85 150t125 115t150 46.5q68 0 113.5 -37t80.5 -89.5t64.5 -108.5t64.5 -95q12 -14 31.5 -47t41 -70t42 -69.5t33.5 -47.5q12 -12 34.5 -25.5t44 -28.5t38 -33.5t16.5 -39.5q0 -18 -6 -30.5t-29 -22.5h-41q-31 0 -57.5 5t-48.5 28l-164 223 q0 2 -6.5 5t-10.5 5h-4h-4q-6 -4 -20.5 -10t-20.5 -16q-2 -4 -10 -17.5t-17.5 -29t-18.5 -28.5t-11 -15l-115 -115q-37 -20 -71.5 -30.5t-75.5 -10.5q-59 0 -107.5 22.5t-83.5 60.5t-54.5 90.5t-19.5 111.5zM160 285q0 -49 33.5 -94.5t87.5 -45.5q66 0 106.5 38t85.5 87 q14 14 23.5 34t9.5 40q0 16 -8.5 29.5t-17.5 26t-17 26.5t-8 33q0 4 1 13t1 11q0 4 8 24.5t8 22.5t-7 10.5t-16.5 16.5t-18.5 13t-15 3l-150 -65q-29 -12 -48 -38t-32.5 -57.5t-19.5 -65t-6 -62.5zM160 995q12 18 27.5 27.5t31.5 21.5q18 16 39 36t42.5 37.5t45 30.5 t49.5 15q41 2 52.5 -22.5t18.5 -53t21.5 -52t63.5 -19.5q29 2 62.5 10t56.5 29q2 2 10 11t17.5 19.5t17.5 19.5t10 11q10 10 16.5 14.5t18.5 6.5q16 6 24.5 -2.5t9.5 -23.5t-5.5 -35.5t-18.5 -41.5q-41 -63 -94 -83.5t-125 -24.5q-55 -4 -82 19.5t-39 52t-19.5 52 t-27.5 21.5q-4 -2 -12.5 -6t-12.5 -6q-55 -45 -85.5 -65.5t-47 -28t-22.5 -6t-10 1.5q-31 0 -31 24z" />
<glyph unicode="&#xe4;" d="M20 285q0 72 32 153.5t85 150t125 115t150 46.5q68 0 113.5 -37t80.5 -89.5t64.5 -108.5t64.5 -95q12 -14 31.5 -47t41 -70t42 -69.5t33.5 -47.5q12 -12 34.5 -25.5t44 -28.5t38 -33.5t16.5 -39.5q0 -18 -6 -30.5t-29 -22.5h-41q-31 0 -57.5 5t-48.5 28l-164 223 q0 2 -6.5 5t-10.5 5h-4h-4q-6 -4 -20.5 -10t-20.5 -16q-2 -4 -10 -17.5t-17.5 -29t-18.5 -28.5t-11 -15l-115 -115q-37 -20 -71.5 -30.5t-75.5 -10.5q-59 0 -107.5 22.5t-83.5 60.5t-54.5 90.5t-19.5 111.5zM160 287q0 -49 33.5 -94.5t87.5 -45.5q66 0 106.5 38t85.5 87 q14 14 23.5 34t9.5 40q0 16 -8.5 29.5t-17.5 26t-17 26.5t-8 33q0 4 1 13t1 11q0 4 8 24.5t8 23t-7 10.5t-16.5 16t-18.5 13.5t-15 2.5l-150 -65q-29 -12 -48 -38t-32.5 -57.5t-19.5 -65t-6 -62.5zM279 1018q0 35 21.5 56.5t57.5 21.5h21q29 -12 48 -41t19 -58 q0 -20 -12 -36.5t-31 -22.5h-28q-35 0 -65.5 19.5t-30.5 60.5zM608 1012q0 16 11.5 28.5t27 21.5t32.5 13t30 4h20q43 -37 43 -90q0 -57 -63 -57q-31 0 -66 22.5t-35 57.5z" />
<glyph unicode="&#xe5;" horiz-adv-x="1040" d="M20 285q0 72 32 153.5t85 150t125 115t150 46.5q68 0 113.5 -37t80.5 -89.5t64.5 -108.5t64.5 -95q12 -14 31.5 -47t41 -70t42 -69.5t33.5 -47.5q12 -12 34.5 -25.5t44 -28.5t38 -33.5t16.5 -39.5q0 -18 -6 -30.5t-29 -22.5h-41q-31 0 -57.5 5t-48.5 28l-164 223 q0 2 -6.5 5t-10.5 5h-8q-6 -4 -20.5 -10t-20.5 -16q-2 -4 -10 -17.5t-17.5 -29t-18.5 -28.5t-11 -15l-115 -115q-37 -20 -71.5 -30.5t-75.5 -10.5q-59 0 -107.5 22.5t-83.5 60.5t-54.5 90.5t-19.5 111.5zM160 287q0 -49 33.5 -94.5t87.5 -45.5q66 0 106.5 38t85.5 87 q14 14 23.5 34t9.5 40q0 16 -8.5 29.5t-17.5 26t-17 26.5t-8 33q0 4 1 13t1 11q0 4 8 24.5t8 23t-7 10.5t-16.5 16t-18.5 13.5t-15 2.5l-150 -65q-29 -12 -48 -38t-32.5 -57.5t-19.5 -65t-6 -62.5zM210.5 959.5q-10.5 44.5 12.5 89.5q12 18 13 36q0 18 30 29q23 8 43 8h43 q51 14 95.5 -13.5t70.5 -68.5q35 -29 39 -67.5t-14.5 -73.5t-52 -55.5t-76.5 -12.5q-47 -12 -90 3.5t-73 48t-40.5 77zM317 952q6 0 15.5 -6t19.5 -13t21.5 -11t21.5 0q0 2 7.5 6t11.5 8q2 0 6 4q4 12 3 27.5t1 29.5q-12 10 -31.5 14.5t-42.5 2.5q-16 -10 -26.5 -25.5 t-6.5 -36.5z" />
<glyph unicode="&#xe6;" horiz-adv-x="1314" d="M20 295q0 57 17.5 111.5t48.5 103.5q41 66 92 100.5t110.5 53t125 25.5t133.5 18q2 0 17.5 6t23.5 10q55 25 103 46.5t97.5 36.5t100.5 24.5t110 9.5h19q14 0 29.5 -1t29.5 -1h21q51 -6 91 -46t40 -94q0 -59 -41 -105t-99.5 -80t-122 -54.5t-108.5 -30.5q-6 -2 -24.5 -6 t-40 -8t-40 -7.5t-26.5 -3.5q-2 -2 -8 -4t-8 -4l-49 -49v-16q0 -41 21.5 -72t53 -51.5t69.5 -31.5t73 -11q78 0 166 18.5t159 38.5q2 0 8.5 1t8.5 1q31 0 53 -17.5t22 -51.5q0 -53 -48 -81t-110.5 -40.5t-124 -14.5t-87.5 -2q-117 0 -204 28t-167 120q-14 10 -31 10 q-4 0 -7 -1t-150 -148q-23 -23 -49.5 -28t-55.5 -5q-57 0 -102 27.5t-76 71.5t-47.5 97.5t-16.5 106.5zM160 305q0 -23 6 -51.5t18.5 -54t32 -43t47.5 -17.5q43 0 82 37t66.5 89t44 107.5t16.5 92.5q0 20 -12 35.5t-29.5 25t-38 13.5t-37.5 4q-39 0 -73.5 -23.5t-62 -59.5 t-44 -77t-16.5 -78zM727 600q0 -27 19.5 -35t37.5 -8t57.5 11.5t80.5 27.5t71.5 35.5t30.5 38.5q0 20 -17.5 24t-33.5 4h-17q-6 -2 -26.5 -7t-44 -9t-45 -9t-31.5 -7q-23 -4 -52.5 -19.5t-29.5 -46.5z" />
<glyph unicode="&#xe7;" horiz-adv-x="989" d="M21.5 490.5q-1.5 41.5 9.5 68.5q18 45 43.5 79t57.5 60.5t69 50t78 50.5q8 8 18 8h25q25 0 41 -15.5t29.5 -37t24.5 -44t25 -36.5q20 -23 39 -42.5t32 -39t20.5 -42t7.5 -52.5q0 -41 -18.5 -81t-67.5 -40q-39 0 -62.5 24.5t-42 56t-36 65.5t-44.5 52q-4 0 -9 1.5t-9 1.5 q-29 0 -47.5 -18.5t-29.5 -44.5t-16 -54.5t-5 -48.5q0 -59 30.5 -107.5t78.5 -83.5t105.5 -54.5t110.5 -19.5q51 0 103.5 8.5t104.5 17.5t103.5 17.5t102.5 8.5q29 0 52.5 -13.5t23.5 -46.5q0 -27 -16.5 -43t-41.5 -22q-16 -4 -49 -11.5t-66.5 -15.5t-62 -14t-37.5 -8 q-25 -6 -49 -8.5t-47 -2.5q4 -16 3 -32.5t1 -40.5q-2 -59 -13 -100.5t-56 -86.5q-2 -4 -33 -10t-66 -13t-64.5 -12.5t-66.5 -1.5q-20 0 -40.5 9.5t-24.5 25.5q-8 10 8 18.5t45 15.5t63.5 15.5t64.5 18.5t47 23.5t11 33.5q-4 16 -23.5 29.5t-33.5 27.5l-6 27q-10 27 -6 62 q-82 10 -153 37.5t-123 76.5t-81.5 121t-29.5 168q0 23 -1.5 64.5z" />
<glyph unicode="&#xe8;" horiz-adv-x="897" d="M20 369q-4 74 16.5 145.5t61.5 129.5t102.5 95t139.5 41l51 4q49 0 101.5 -6t97.5 -25.5t75.5 -56.5t34.5 -100q2 -29 -14 -55.5t-43 -49t-57.5 -37t-57.5 -16.5l-288 -18q-10 0 -20.5 -8.5t-20 -19.5t-15.5 -22.5t-6 -19.5q2 -37 25.5 -68.5t56.5 -55t70 -40t67 -22.5 q12 -4 34 -7t43.5 -7.5t55.5 -8.5l132 9q41 16 65.5 19t63.5 7q25 2 53 -3t33 -40q2 -23 -10.5 -43t-35.5 -29q-8 -4 -29.5 -11t-44 -13t-43 -11.5t-28.5 -7.5q-10 -2 -28.5 -6t-22.5 -4l-146 -10q-2 0 -19 2t-39.5 6t-45.5 8t-35 9q-80 16 -141.5 67t-118.5 105 q-39 35 -52.5 79t-17.5 95zM276 596l3 -14q0 -12 10 -13l196 15q8 0 9 8v14q-2 23 -36 28t-65 3l-28 -2l-25 -2q-20 -2 -43 -8.5t-21 -28.5zM299 1165q-18 53 31 70q18 6 39.5 1t43 -16.5t41 -24.5t35.5 -24q35 -20 59 -41.5t36 -64.5q10 -35 8 -60.5t-37 -35.5 q-27 -6 -66.5 11t-78.5 48t-71 68t-40 69z" />
<glyph unicode="&#xe9;" horiz-adv-x="897" d="M20 393q-4 74 16.5 145.5t61.5 130t102.5 95.5t139.5 41l51 4q49 0 101.5 -6t97.5 -25.5t75.5 -56.5t34.5 -100q2 -29 -14 -55.5t-43 -49t-57.5 -37t-57.5 -16.5l-288 -19q-10 0 -20.5 -8t-20 -19t-15.5 -22.5t-6 -19.5q2 -37 25.5 -69t56.5 -55.5t70 -39.5t67 -23 q12 -4 34 -7t43.5 -7t55.5 -8l132 8q41 16 65.5 19.5t63.5 7.5q25 2 53 -3t33 -40q2 -23 -10.5 -43.5t-35.5 -28.5q-8 -4 -29.5 -11t-44 -13.5t-43 -11.5t-28.5 -7q-10 -2 -28.5 -6t-22.5 -4l-146 -10q-2 0 -19 2t-39.5 6t-45.5 8t-35 8q-80 16 -141.5 67.5t-118.5 104.5 q-39 35 -52.5 79t-17.5 95zM276 621l3 -15q0 -12 10 -12l196 14q8 0 9 8v15q-2 23 -36 28t-65 3l-28 -3l-25 -2q-20 -2 -43 -8t-21 -28zM293 1044q0 18 11 38t27.5 37.5t34 32.5t31.5 28q29 29 56.5 45t72.5 16q35 0 59.5 -10t24.5 -45q0 -27 -27.5 -59.5t-68.5 -62.5 t-86 -49.5t-78 -19.5q-57 0 -57 49z" />
<glyph unicode="&#xea;" horiz-adv-x="897" d="M20 369q-4 74 16.5 145.5t61.5 129.5t102.5 95t139.5 41l51 4q49 0 101.5 -6t97.5 -25.5t75.5 -56.5t34.5 -100q2 -29 -14 -55.5t-43 -49t-57.5 -37t-57.5 -16.5l-288 -18q-10 0 -20.5 -8.5t-20 -19.5t-15.5 -22.5t-6 -19.5q2 -37 25.5 -68.5t56.5 -55t70 -40t67 -22.5 q12 -4 34 -7t43.5 -7.5t55.5 -8.5l132 9q41 16 65.5 19t63.5 7q25 2 53 -3t33 -40q2 -23 -10.5 -43t-35.5 -29q-8 -4 -29.5 -11t-44 -13t-43 -11.5t-28.5 -7.5q-10 -2 -28.5 -6t-22.5 -4l-146 -10q-2 0 -19 2t-39.5 6t-45.5 8t-35 9q-80 16 -141.5 67t-118.5 105 q-39 35 -52.5 79t-17.5 95zM164 983q-2 23 11 40t28 28q4 4 16 13t26.5 19.5t27 18.5t16.5 10l102 109q10 10 17.5 8t17.5 0q25 0 44 -10.5t35.5 -24.5t32 -31.5t31.5 -29.5q8 -6 10.5 -9.5t3.5 -6.5t6 -7t17 -12q14 -12 35 -22.5t40 -23t33.5 -28.5t14.5 -39 q2 -25 -17.5 -42t-47.5 -19q-18 -2 -38 6t-40.5 20.5t-38 25.5t-29.5 21q-14 10 -17 18.5t-19.5 18.5t-30 15.5t-29.5 3.5q-10 0 -18.5 -2t-18.5 -15q-16 -16 -21.5 -23t-9.5 -12.5t-10 -12.5t-24.5 -23.5t-34 -26.5t-44 -12t-52 13t-25.5 44zM276 596l3 -14q0 -12 10 -13 l196 15q8 0 9 8v14q-2 23 -36 28t-65 3l-28 -2l-25 -2q-20 -2 -43 -8.5t-21 -28.5z" />
<glyph unicode="&#xeb;" horiz-adv-x="897" d="M20 377q-4 74 16.5 145.5t61.5 130t102.5 95t139.5 40.5l51 5q49 0 101.5 -6.5t97.5 -26t75.5 -56t34.5 -100.5q2 -29 -14 -55.5t-43 -49t-57.5 -36.5t-57.5 -17l-288 -18q-10 0 -20.5 -8t-20 -19.5t-15.5 -22.5t-6 -20q2 -37 25.5 -68.5t56.5 -55t70 -40t67 -22.5 q12 -4 34 -7t43.5 -7t55.5 -8l132 8q41 16 65.5 19t63.5 7q25 2 53 -3t33 -40q2 -23 -10.5 -43t-35.5 -28q-8 -4 -29.5 -11.5t-44 -13.5t-43 -11t-28.5 -7q-10 -2 -28.5 -6.5t-22.5 -4.5l-146 -10q-2 0 -19 2t-39.5 6t-45.5 8.5t-35 8.5q-80 16 -141.5 67.5t-118.5 104.5 q-39 35 -52.5 79t-17.5 95zM240 1032q0 35 21.5 56.5t57.5 21.5h21q29 -12 48.5 -41t19.5 -57q0 -20 -12.5 -37t-30.5 -23h-29q-35 0 -65.5 19.5t-30.5 60.5zM276 604l3 -14q0 -12 10 -12l196 14q8 0 9 8v14q-2 23 -36 28t-65 3l-28 -2l-25 -2q-20 -2 -43 -8t-21 -29z M569 1026q0 16 11.5 28.5t27 21.5t32.5 13.5t30 4.5h20q43 -37 43 -90q0 -58 -63 -58q-31 0 -66 22.5t-35 57.5z" />
<glyph unicode="&#xec;" horiz-adv-x="337" d="M25 1100q-18 53 30 69q18 6 40 1t43.5 -16t41 -24.5t35.5 -23.5q35 -20 58.5 -42t35.5 -65q10 -35 8 -60.5t-36 -35.5q-27 -6 -67 11.5t-79 48t-70.5 67.5t-39.5 70zM84 351q4 75 12 142.5t18.5 120.5t18.5 76q6 18 15.5 36.5t23.5 33t32.5 20.5t41.5 -2q25 -10 31 -31.5 t2.5 -46t-9.5 -49t-6 -39.5q-4 -31 -9 -77t-10 -95t-9.5 -96t-4.5 -80q0 -45 11.5 -92t-4.5 -88q-8 -29 -28 -41t-48 -2q-35 12 -52.5 59t-23.5 111.5t-2 139.5z" />
<glyph unicode="&#xed;" horiz-adv-x="358" d="M20 975q0 18 11.5 37.5t28 37t34 33t31.5 27.5q29 29 56.5 45t72.5 16q35 0 59.5 -10t24.5 -45q0 -27 -27.5 -59.5t-68.5 -62t-86 -49t-78 -19.5q-57 0 -58 49zM93 340q1 66 8.5 126t16.5 108t17 71q6 18 15.5 36.5t23.5 33t32.5 20.5t41.5 -2q25 -10 31 -31.5t3 -47 t-9.5 -49t-6.5 -38.5q-8 -63 -14 -137t-4 -141q0 -45 11 -92t-5 -88q-8 -29 -27.5 -41.5t-48.5 -1.5q-35 12 -53.5 53t-25.5 98t-6 123z" />
<glyph unicode="&#xee;" horiz-adv-x="606" d="M20 934q-2 23 11.5 40t27.5 27q4 4 16.5 13.5t27 19.5t26.5 18.5t16 10.5l103 108q10 10 17 8.5t18 0.5q25 0 44 -10.5t35.5 -25t32 -31.5t31.5 -30q8 -6 10 -9t3 -6t6.5 -7t17.5 -12q14 -12 34.5 -22.5t40 -23t34 -29t14.5 -38.5q2 -25 -17.5 -42t-48.5 -20 q-18 -2 -37.5 6.5t-40 20.5t-38 25.5t-29.5 21.5q-14 10 -17.5 18.5t-19.5 18.5t-29.5 15.5t-29.5 3.5q-10 0 -18.5 -2.5t-18.5 -14.5q-16 -16 -21.5 -23.5t-9.5 -12.5t-10 -12t-24.5 -23.5t-34 -26.5t-44 -12.5t-52.5 13t-26 44.5zM153 321.5q1 65.5 8 126t16.5 108.5 t17.5 71q6 18 15 36.5t23.5 33t33 20.5t40.5 -2q25 -10 31 -31.5t3 -46.5t-9 -49.5t-6 -38.5q-8 -63 -14.5 -137t-4.5 -142q0 -45 11.5 -92t-5.5 -88q-8 -29 -27.5 -41t-47.5 -2q-35 12 -53.5 53t-25.5 98.5t-6 123z" />
<glyph unicode="&#xef;" horiz-adv-x="534" d="M20 958q0 35 21.5 56.5t58.5 21.5h21q29 -12 48 -40.5t19 -57.5q0 -20 -12 -36.5t-31 -22.5h-28q-35 0 -66 19.5t-31 59.5zM138 342q1 66 8.5 126t16.5 108t17 71q6 18 15.5 36.5t23.5 33t32.5 20.5t41.5 -2q25 -10 31 -31.5t3 -46t-9.5 -49t-6.5 -39.5q-8 -63 -14 -137 t-4 -141q0 -45 11 -92t-5 -88q-8 -29 -27.5 -41.5t-48.5 -1.5q-35 12 -53 53t-25.5 98t-6.5 123zM350 952q0 16 11.5 28.5t26.5 22t32.5 13.5t30.5 4h20q43 -37 43 -90q0 -58 -63 -58q-31 0 -66 23t-35 57z" />
<glyph unicode="&#xf0;" horiz-adv-x="997" d="M20 297q0 82 33 158.5t86 136.5q86 98 186.5 144t237.5 46q109 0 193 -39q-10 25 -16.5 42.5t-8.5 21.5q-25 53 -66.5 103.5t-95.5 88.5l-159 -131q-12 -10 -40 -5t-38 18q-16 18 -15.5 41.5t13.5 42.5l28 24q20 16 41 33.5t41 34.5l11 8q-72 27 -144 20q-20 -2 -39.5 -8 t-42.5 -8q-20 -4 -38.5 6t-18.5 33q-4 27 9 48.5t34.5 35.5t47.5 22.5t46 10.5q72 6 136.5 -8.5t123.5 -42.5q31 33 64 62t78 56q23 6 45 5t39 -21q23 -29 11.5 -60.5t-38.5 -54.5l-6 -6q-10 -4 -33 -25.5t-43 -37.5q66 -59 117 -135t88 -160t58.5 -171t27.5 -167 q2 -16 3 -31.5t1 -32.5q0 -72 -28.5 -140.5t-77 -122.5t-114 -88t-139.5 -34h-268q-35 0 -72.5 13.5t-66.5 29.5q-37 25 -72 48.5t-60.5 51t-42 62.5t-16.5 82zM164 303q0 -35 19.5 -55.5t47.5 -42.5q70 -51 158 -67.5t174 -16.5q53 0 104.5 21.5t91.5 58.5t64.5 87 t24.5 105q0 49 -21.5 93t-57.5 78t-82 53.5t-95 19.5q-123 0 -203 -39t-160 -123q-29 -33 -47 -82t-18 -90z" />
<glyph unicode="&#xf1;" horiz-adv-x="874" d="M23 674l4 45q14 23 26.5 27t30.5 2q37 -4 51.5 -36t20.5 -69t13 -68.5t32 -33.5q14 -2 25.5 39t33 89t59 86t107.5 29q68 -6 128 -40.5t109.5 -89t87 -121t62.5 -138t35 -141.5t4 -129q-2 -25 -7 -52.5t-16.5 -51t-32 -38t-53.5 -10.5q-29 4 -41 23.5t-8 44.5 q4 29 10.5 54.5t10.5 54.5q4 49 -17.5 125.5t-60.5 150.5t-89 130t-102 62q-25 4 -44 -17t-27 -44q-6 -12 -15.5 -40t-19.5 -57.5t-17.5 -54t-7.5 -30.5q0 -4 -4 -21.5t-9 -36t-9 -35t-4 -20.5q-6 -18 -17.5 -59t-28 -84t-39 -74t-52.5 -27q-16 2 -29.5 21.5t-23 46.5 t-14.5 53.5t-5 42.5q-2 16 -8 58.5t-14.5 89.5t-14.5 89t-8 58q-6 49 -11.5 97.5t-0.5 99.5zM96 1028q12 18 27.5 27.5t32.5 21.5q18 16 38.5 36t42 37t45 30.5t50.5 15.5q41 2 52 -22.5t18.5 -53t21.5 -52.5t63 -19q29 2 63 10t56 28q2 2 10.5 11.5t17.5 19.5t17 19.5 t11 11.5q10 10 16 14t18 6q16 6 24.5 -2t9.5 -23.5t-5 -36t-18 -40.5q-41 -63 -94.5 -83.5t-125.5 -25.5q-55 -4 -81.5 19.5t-39 52.5t-20 52.5t-27.5 21.5l-12 -6l-12 -6q-55 -45 -86 -65.5t-47.5 -28t-22.5 -6.5t-10 1q-31 0 -31 25z" />
<glyph unicode="&#xf2;" horiz-adv-x="1038" d="M20 362q0 43 14.5 79t37 67t50.5 60.5t56 62.5q45 51 84 89t83 63.5t97.5 38t126.5 12.5q92 0 174 -29t143.5 -83t96.5 -131t35 -175q0 -78 -31 -152t-84 -132t-123.5 -95t-150.5 -39l-189 -4q-16 0 -51 4t-75 12t-75.5 16.5t-50.5 18.5q-78 53 -123 135t-45 182z M152 352.5q-2 -26.5 1 -56.5t11 -55.5t24 -37.5q37 -29 84 -44.5t98.5 -24.5t102.5 -11t94 -2q57 0 113.5 22.5t100.5 62.5t71 93.5t27 114.5q0 51 -24 99t-62.5 84t-89 57.5t-101.5 21.5q-80 0 -140.5 -16.5t-107.5 -46t-85 -72.5t-72 -97q-20 -23 -25.5 -32t-11.5 -19 q-6 -14 -8 -40.5zM383 1194q-18 53 31 70q18 6 39.5 1t43 -16.5t41 -25t35.5 -23.5q35 -20 59 -41.5t36 -64.5q10 -35 8 -60.5t-37 -36.5q-27 -6 -67 11.5t-78.5 48t-70.5 67.5t-40 70z" />
<glyph unicode="&#xf3;" horiz-adv-x="1038" d="M20 360q0 43 14.5 79t37 67t50.5 60.5t56 62.5q45 51 84 89t83 63.5t97.5 37.5t126.5 12q92 0 174 -28.5t143.5 -82.5t96.5 -131t35 -175q0 -78 -31 -152t-84 -132t-123.5 -95t-150.5 -39l-189 -4q-16 0 -51 4t-75 12t-75.5 16.5t-50.5 18.5q-78 53 -123 135t-45 182z M152 350.5q-2 -26.5 1 -56.5t11 -55.5t24 -37.5q37 -29 84 -44.5t98.5 -24.5t102.5 -11t94 -2q57 0 113.5 22.5t100.5 62.5t71 93.5t27 114.5q0 51 -24 99t-62.5 84t-89 57.5t-101.5 21.5q-80 0 -140.5 -16.5t-107.5 -46t-85 -72.5t-72 -97q-20 -23 -25.5 -32t-11.5 -19 q-6 -14 -8 -40.5zM371 1014q0 18 11 37.5t27.5 37t34 33t31.5 27.5q29 29 56.5 45t72.5 16q35 0 59.5 -10t24.5 -45q0 -27 -27.5 -59.5t-68.5 -62t-86 -49t-78 -19.5q-57 0 -57 49z" />
<glyph unicode="&#xf4;" horiz-adv-x="1038" d="M20 367q0 43 14.5 78.5t37 66.5t50.5 60.5t56 62.5q45 51 84 89t83 63.5t97.5 38t126.5 12.5q92 0 174 -29t143.5 -83t96.5 -131t35 -175q0 -78 -31 -151.5t-84 -132t-123.5 -95.5t-150.5 -39l-189 -4q-16 0 -51 4t-75 12.5t-75.5 16.5t-50.5 18q-78 53 -123 135t-45 183 zM152 356.5q-2 -26.5 1 -56.5t11 -55.5t24 -37.5q37 -29 84 -44.5t98.5 -24.5t102.5 -11t94 -2q57 0 113.5 22.5t100.5 62.5t71 93.5t27 114.5q0 51 -24 99t-62.5 84t-89 57.5t-101.5 21.5q-80 0 -140.5 -16.5t-107.5 -46t-85 -72.5t-72 -96q-20 -23 -25.5 -32t-11.5 -20 q-6 -14 -8 -40.5zM266 1042q-2 23 11.5 40.5t27.5 27.5q4 4 16.5 13.5t26.5 19.5t26.5 18t16.5 10l103 109q10 10 17 8t17 0q25 0 44.5 -10t36 -24.5t31.5 -32t32 -29.5q8 -6 10 -9t3 -6t6 -7.5t18 -12.5q14 -12 34.5 -22.5t40 -22.5t33.5 -28.5t14 -39.5q2 -25 -17 -42 t-48 -19q-18 -2 -37.5 6t-40 20.5t-38 26t-29.5 21.5q-14 10 -17.5 18t-20 18.5t-29.5 15.5t-30 3q-10 0 -18 -2t-19 -14q-16 -16 -21 -23.5t-9 -12.5t-10.5 -12.5t-25 -23.5t-33.5 -26.5t-44 -12.5t-52.5 13t-25.5 44z" />
<glyph unicode="&#xf5;" horiz-adv-x="1038" d="M20 371q0 43 14.5 78.5t37 66.5t50.5 60.5t56 62.5q45 51 84 89t83 63.5t97.5 38t126.5 12.5q92 0 174 -29t143.5 -83t96.5 -131t35 -175q0 -78 -31 -151.5t-84 -132t-123.5 -95.5t-150.5 -39l-189 -4q-16 0 -51 4t-75 12.5t-75.5 16.5t-50.5 18q-78 53 -123 135t-45 183 zM152 360.5q-2 -26.5 1 -56.5t11 -55.5t24 -37.5q37 -29 84 -44t98.5 -24.5t102.5 -11.5t94 -2q57 0 113.5 22.5t100.5 62.5t71 93.5t27 114.5q0 51 -24 99t-62.5 84t-89 57.5t-101.5 21.5q-80 0 -140.5 -16.5t-107.5 -46t-85 -72.5t-72 -96q-20 -23 -25.5 -32t-11.5 -20 q-6 -14 -8 -40.5zM205 1034q12 18 27.5 27.5t31.5 21.5q18 16 39 36t42.5 37.5t45 30.5t49.5 15q41 2 52.5 -22.5t18.5 -53t21.5 -52t63.5 -19.5q29 2 62.5 10t56.5 29q2 2 10 11t17.5 19.5t17.5 19.5t10 11q10 10 16.5 14.5t18.5 6.5q16 6 24.5 -2.5t9.5 -23.5t-5.5 -35.5 t-18.5 -41.5q-41 -63 -94 -83.5t-125 -24.5q-55 -4 -82 19.5t-39 52t-19.5 52t-27.5 21.5l-12 -6t-13 -6q-55 -45 -85.5 -65.5t-47 -28t-22.5 -6.5t-10 1q-31 0 -31 25z" />
<glyph unicode="&#xf6;" horiz-adv-x="1038" d="M20 362q0 43 14.5 79t37 67t50.5 60.5t56 62.5q45 51 84 89t83 63.5t97.5 38t126.5 12.5q92 0 174 -29t143.5 -83t96.5 -131t35 -175q0 -78 -31 -152t-84 -132t-123.5 -95t-150.5 -39l-189 -4q-16 0 -51 4t-75 12t-75.5 16.5t-50.5 18.5q-78 53 -123 135t-45 182z M152 352.5q-2 -26.5 1 -56.5t11 -55.5t24 -37.5q37 -29 84 -44.5t98.5 -24.5t102.5 -11t94 -2q57 0 113.5 22.5t100.5 62.5t71 93.5t27 114.5q0 51 -24 99t-62.5 84t-89 57.5t-101.5 21.5q-80 0 -140.5 -16.5t-107.5 -46t-85 -72.5t-72 -97q-20 -23 -25.5 -32t-11.5 -19 q-6 -14 -8 -40.5zM299 1059q0 35 21.5 56.5t58.5 21.5h20q29 -12 48.5 -41t19.5 -58q0 -20 -12.5 -36.5t-30.5 -22.5h-29q-35 0 -65.5 19.5t-30.5 60.5zM629 1053q0 16 11 28.5t26.5 21.5t33 13t29.5 4h21q43 -37 43 -90q-1 -57 -64 -57q-31 0 -65.5 22.5t-34.5 57.5z" />
<glyph unicode="&#xf8;" horiz-adv-x="1044" d="M20 426q0 98 35 175t95.5 130t141.5 82t173 29q82 0 153.5 -17.5t135.5 -50.5q10 16 25.5 32.5t23.5 24.5q23 31 49.5 61t69.5 30q35 0 52 -22.5t17 -55.5q0 -25 -1 -35t-6 -16.5t-13 -13.5t-23 -23q-10 -10 -28.5 -29.5t-40.5 -42.5q29 -25 53 -53q57 -66 74.5 -141.5 t17.5 -167.5q0 -98 -51 -155.5t-129 -107.5q-33 -18 -72 -32.5t-78 -14.5h-286q-74 0 -150 35q-16 -25 -33.5 -48.5t-38 -44t-43 -32.5t-49.5 -12q-29 0 -44 16t-15 43q0 33 24 62l91 96q-59 59 -94.5 138t-35.5 161zM160 424q0 -111 86 -197l407 435q-47 16 -100 20t-119 4 q-53 0 -102 -21.5t-87 -57.5t-61.5 -84t-23.5 -99zM350 158q55 -25 117 -25q88 0 183 15.5t169 68.5q31 23 52.5 46.5t21.5 58.5q0 20 -6 53t-15.5 66.5t-20.5 63.5t-22 42q-10 10 -21 20.5t-22 20.5z" />
<glyph unicode="&#xf9;" horiz-adv-x="948" d="M25 645q2 25 5 53.5t13 53t28.5 40t51.5 13.5q61 -6 91 -29.5t38 -56.5t0 -72t-21.5 -77t-27 -69.5t-15.5 -49.5q-4 -41 18.5 -83t57.5 -80t76 -68t74 -44q14 -10 49 -12l55 -6q35 -4 77 -1t80 16t64.5 40t30.5 72q2 23 1 44t-11 40l-55 278q-4 8 -5.5 15.5t-1.5 11.5 l2 31q4 27 20.5 42t43.5 11q33 -4 53.5 -30t30.5 -52q25 -59 42 -107.5t26.5 -96.5t11.5 -99t-4 -119q-6 -74 -54.5 -123t-115 -76.5t-141 -37t-134.5 -3.5q-90 8 -174 56q-172 98 -234 241.5t-46 333.5zM315 1124q-18 53 31 70q18 6 40 1t43.5 -16.5t40.5 -24.5t36 -24 q35 -20 58.5 -41.5t35.5 -64.5q10 -35 8 -60.5t-37 -35.5q-27 -6 -66.5 11t-78.5 48t-70.5 68t-40.5 69z" />
<glyph unicode="&#xfa;" horiz-adv-x="950" d="M25 670q2 25 5 53.5t13 53t28.5 39.5t51.5 13q61 -6 91 -29.5t38 -56t0 -71.5t-21.5 -77t-27 -69.5t-15.5 -50.5q-4 -41 18.5 -83t57.5 -80t76 -67.5t74 -43.5q14 -10 49 -13l55 -6q35 -4 77 -1t80 16.5t64.5 40t30.5 71.5q2 23 1 44.5t-11 39.5l-55 279q-4 8 -5.5 15 t-1.5 11l2 31q4 27 20.5 42t43.5 11q33 -4 53.5 -29.5t30.5 -52.5q25 -59 42 -107t26.5 -96t11.5 -99.5t-4 -118.5q-6 -74 -54.5 -123.5t-115 -77t-141 -36.5t-134.5 -3q-92 10 -174 55q-172 98 -234 242t-46 334zM369 985q0 18 11 37.5t27.5 37t34 33t31.5 27.5 q29 29 56.5 45.5t72.5 16.5q35 0 59.5 -10.5t24.5 -45.5q0 -27 -27.5 -59.5t-68.5 -62t-86 -49t-78 -19.5q-57 0 -57 49z" />
<glyph unicode="&#xfb;" horiz-adv-x="948" d="M25 641q2 25 5 53.5t13 53t28.5 40t51.5 13.5q61 -6 91 -29.5t38 -56.5t0 -72t-21.5 -77t-27 -69.5t-15.5 -50.5q-4 -41 18.5 -82.5t57.5 -79.5t76 -68t74 -44q14 -10 49 -12l55 -6q35 -4 77 -1t80 16t64.5 40t30.5 72q2 23 1 44t-11 40l-55 278q-4 8 -5.5 15.5 t-1.5 11.5l2 30q4 27 20.5 42.5t43.5 11.5q33 -4 53.5 -30t30.5 -52q25 -59 42 -107.5t26.5 -96.5t11.5 -99.5t-4 -118.5q-6 -74 -54.5 -123t-115 -76.5t-141 -37t-134.5 -3.5q-90 8 -174 56q-172 98 -234 241.5t-46 333.5zM186 1016q-2 23 11.5 40t27.5 27q4 4 16.5 13.5 t27 19.5t26.5 18.5t16 10.5l103 108q10 10 17 8.5t18 0.5q25 0 44 -10.5t35.5 -25t31.5 -31.5t32 -30q8 -6 10 -9t3 -6t6 -7t18 -13q14 -12 34.5 -22t40 -22.5t34 -29t14.5 -38.5q2 -25 -17.5 -42.5t-48.5 -19.5q-18 -2 -37.5 6.5t-40 20.5t-38 25.5t-29.5 21.5 q-14 10 -17.5 18.5t-20 18.5t-29.5 15t-30 3q-10 0 -18 -2t-18 -14q-16 -16 -21.5 -23.5t-9.5 -12.5t-10.5 -12t-24.5 -23.5t-33.5 -26.5t-44 -12.5t-52.5 13t-26 44.5z" />
<glyph unicode="&#xfc;" horiz-adv-x="950" d="M25 651q2 25 5 53.5t13 53t28.5 40t51.5 13.5q61 -6 91 -29.5t38 -56.5t0 -72t-21.5 -76.5t-27 -69.5t-15.5 -50q-4 -41 18.5 -83t57.5 -80t76 -67.5t74 -44.5q14 -10 49 -12l55 -6q35 -4 77 -1t80 16.5t64.5 40t30.5 71.5q2 23 1 44t-11 40l-55 278q-4 8 -5.5 15.5 t-1.5 11.5l2 31q4 27 20.5 42t43.5 11q33 -4 53.5 -29.5t30.5 -52.5q25 -59 42 -107.5t26.5 -96.5t11.5 -99t-4 -119q-6 -74 -54.5 -123t-115 -76.5t-141 -37t-134.5 -3.5q-90 8 -174 56q-172 98 -234 241.5t-46 333.5zM244 1055q0 35 21.5 56.5t58.5 21.5h20 q29 -12 48.5 -41t19.5 -58q0 -20 -12.5 -36.5t-30.5 -22.5h-29q-35 0 -65.5 19.5t-30.5 60.5zM573 1049q0 16 11.5 28.5t27 21.5t33 13t29.5 4h20q43 -37 43 -90q0 -57 -63 -57q-31 0 -66 22.5t-35 57.5z" />
<glyph unicode="&#xfd;" horiz-adv-x="913" d="M21.5 -647.5q-1.5 16.5 1 33t7.5 29t17 12.5h57q8 0 14.5 -24t19 -57.5t37 -69.5t67.5 -58h55q74 0 138.5 3t117.5 21.5t93 58.5t65 113q23 72 27.5 136.5t4.5 140.5v110q-4 18 -9 45t-10 54.5t-10 53.5t-7 42q-4 14 -8.5 30.5t-11.5 32t-19.5 25.5t-30.5 10 q-39 0 -74 -9t-71 -9q-66 0 -127.5 22.5t-111.5 62.5t-87 93t-51 115v82q0 43 -8.5 98t-6.5 102t22.5 80t80.5 33q55 0 80.5 -36t25.5 -89q0 -33 -7 -50.5t-16.5 -33.5t-16.5 -36.5t-7 -57.5t21.5 -79t55.5 -79t76 -61.5t85 -24.5t68.5 33t39 79t17.5 95t4 84q0 12 2 30.5 t4 38t4 37t2 29.5q10 25 38 57.5t56 32.5q31 0 43.5 -34.5t14.5 -79t0 -87.5t0 -61q0 -6 1 -21.5t3 -32t3 -31.5t1 -21l90 -523v-16q0 -14 1 -33.5t1 -40.5v-33q0 -86 -3 -158.5t-24 -154.5q-25 -96 -78 -160.5t-125.5 -104.5t-160.5 -56.5t-183 -16.5q-47 0 -94 6t-87 23.5 t-68.5 50.5t-40.5 86q0 23 -3 35t-3 35v24q0 8 -1.5 24.5zM334 985q0 18 11 37.5t27.5 37t34 33t31.5 27.5q29 29 56.5 45.5t72.5 16.5q35 0 59.5 -10.5t24.5 -45.5q0 -27 -27.5 -59.5t-68.5 -62t-86 -49t-78 -19.5q-57 0 -57 49z" />
<glyph unicode="&#xfe;" horiz-adv-x="739" d="M31 281.5q-2 74.5 1 141t13 109.5v9l27 194l-6 514q-6 47 -16.5 108.5t-6.5 104.5q4 23 8 38.5t27 27.5h28q6 0 17.5 -3t11.5 -5q8 -6 23.5 -26.5t19.5 -29.5q14 -68 23.5 -117t14.5 -94t7 -94t2 -119q0 -10 9.5 -27.5t21.5 -19.5h4q41 37 90 64.5t107 19.5 q70 -10 121 -64.5t81.5 -128t43 -151.5t6.5 -133q-8 -53 -39 -102t-76 -85t-99.5 -54.5t-109.5 -12.5q-53 6 -89 25.5t-87 42.5q0 -57 -2 -122t-4 -122t-4 -100t-4 -58q-4 -23 -8.5 -38t-26.5 -27h-29q-6 0 -17.5 3t-11.5 5q-8 6 -23.5 26.5t-19.5 28.5q-12 51 -19 124 t-9 147.5zM256 614h2q-4 -25 7 -43t30.5 -32.5t42 -23.5t43.5 -11q29 -4 58.5 3t55 23.5t44 40t22.5 52t1 77t-16.5 96.5t-39 83.5t-66.5 42.5q-35 4 -55 -11.5t-33.5 -40t-21.5 -52t-17 -48.5q-16 -39 -33.5 -76t-23.5 -80z" />
<glyph unicode="&#xff;" horiz-adv-x="911" d="M19 -667.5q-1 16.5 1.5 33t7.5 28.5t17 12h57q8 0 14.5 -23.5t18.5 -57.5t37 -69.5t68 -58.5h55q74 0 138.5 3t117.5 21.5t93 58.5t65 114q23 72 27.5 136t4.5 140v111q-4 18 -9 45t-10 54.5t-10 53t-7 41.5q-4 12 -8.5 28.5t-11.5 32t-18.5 26t-31.5 10.5 q-39 0 -74 -9.5t-72 -9.5q-66 0 -127 22.5t-111 62.5t-87 93.5t-51 114.5v82q0 43 -8.5 98.5t-6.5 102.5t22.5 79.5t80.5 32.5q55 0 80.5 -35.5t25.5 -89.5q0 -33 -7 -50t-16.5 -33.5t-16.5 -37t-7 -57.5t21.5 -79t55.5 -78.5t76 -61t85 -24.5t68.5 32.5t38.5 78.5 t17.5 95.5t4.5 83.5q0 12 2 31l4 38t4 36.5t2 30.5q10 25 38 57.5t56 32.5q31 0 43 -35t14.5 -79t0 -87t0.5 -61q0 -6 1 -21.5t3 -32t3 -32t1 -21.5l90 -520v-17q0 -14 1 -33.5t1 -39.5v-33q0 -86 -3 -158.5t-24 -154.5q-25 -96 -78 -161t-125.5 -105t-160.5 -56t-183 -16 q-47 0 -94 6t-87 23.5t-68.5 50.5t-40.5 86q0 23 -3.5 35t-3.5 34v25q0 8 -1 24.5zM209 1049q0 35 21.5 56t58.5 21h20q29 -12 48.5 -40.5t19.5 -57.5q0 -20 -12.5 -36.5t-30.5 -22.5h-29q-35 0 -65.5 19.5t-30.5 60.5zM539 1042q0 16 11 28.5t26.5 22t33 13.5t29.5 4h20 q43 -37 43 -90q0 -57 -63 -57q-31 0 -65.5 22.5t-34.5 56.5z" />
<glyph unicode="&#x152;" horiz-adv-x="1536" d="M42 578q-5 129 7 260t43 255t90 228q2 6 16.5 28.5t32 52.5t34 57.5t26.5 41.5q25 41 57.5 56.5t79.5 21.5q43 6 76 0q86 4 168 15.5t170 11.5h30q20 0 41 -1t35 -1h21q14 0 51 -1t79 -3.5t76.5 -5.5t47.5 -7q8 0 29.5 -2t46 -5t48 -7t33.5 -10q14 -8 40 -13.5 t50.5 -13.5t42 -22.5t17.5 -40.5q0 -16 -3 -29.5t-24 -20.5h-106q-78 6 -173.5 11.5t-196.5 9.5t-202.5 7t-189.5 5q4 -8 7 -15t7 -16l168 -258q29 -47 41 -101t21 -108q4 -27 6 -51t2 -47q29 2 64.5 -2t69.5 -10t60.5 -13.5t36.5 -7.5q16 -2 42 -3t49.5 -7t41 -19.5 t17.5 -37.5q0 -39 -27 -46t-57 -12q-16 0 -54 -2t-84.5 -5t-91.5 -7t-75 -6q-18 -121 -63.5 -230.5t-110.5 -232.5q-37 -55 -84 -108h57q29 -2 57.5 -9.5t59.5 -7.5q61 0 121.5 9.5t123.5 9.5h31q20 0 39.5 -1t34.5 -1h18q8 0 35 -2.5t59.5 -4.5t64.5 -5t48 -5q6 0 25.5 -4 t41 -11t39 -16.5t17.5 -17.5v-57l-12 -13l-676 -4q-27 0 -52.5 -4t-45.5 -4l-328 -4q-10 0 -14 -2q-49 -6 -95.5 11.5t-83 50t-63.5 76.5t-37 91l-4 29q-4 23 -7 47.5t-7 44.5l-5 29q-16 113 -21 242zM176 623q2 -129 8 -240l6 -53q4 -31 15.5 -72t32 -76t49 -58.5 t69.5 -17.5q59 8 122 66.5t115 135.5t89 155t49 125q20 90 21.5 173t-11.5 175q-16 123 -78.5 222t-144.5 192q-10 10 -34.5 25.5t-41.5 13.5q-25 -4 -45 -18.5t-35 -33.5q-78 -92 -117.5 -211.5t-55 -246.5t-13.5 -256z" />
<glyph unicode="&#x153;" horiz-adv-x="1638" d="M27 424q0 98 34.5 175t95 130t141.5 82t173 29q74 0 122 -5.5t86 -21.5t71.5 -47t78.5 -82q4 -4 8.5 -10t8.5 -10q45 57 109.5 90.5t142.5 33.5h51q49 -4 101.5 -13t96.5 -30.5t71.5 -60.5t27.5 -102q0 -29 -18.5 -55.5t-46 -47t-59.5 -33t-58 -12.5h-289 q-12 0 -29.5 -14t-27.5 -31q0 -23 -7 -47q8 -33 31 -60.5t52.5 -50t61 -39t60.5 -22.5q12 -4 33.5 -9t43 -10.5t54.5 -13.5h264q43 12 68 15.5t63 3.5q25 0 53.5 -7.5t28.5 -42.5q0 -23 -13 -42t-36 -25q-8 -2 -29.5 -7t-45 -10.5t-44 -9.5t-28.5 -6q-10 -2 -28.5 -5 t-22.5 -3h-279q-2 0 -19.5 4t-40 9t-45 10.5t-34.5 9.5q-66 18 -115 58t-94 87q-25 -39 -54.5 -73.5t-63.5 -59.5t-70.5 -38t-75.5 -11l-172 14q-80 6 -149.5 44t-123 95.5t-84 129t-30.5 147.5zM166 422q0 -59 26.5 -112.5t69.5 -93.5t98.5 -62.5t112.5 -22.5q51 0 88 2 t69 14.5t60.5 40t65.5 76.5q4 6 12 23q-10 25 -12 52t-2 58q0 63 18 125q-6 27 -18 41q-43 45 -73 69.5t-61.5 36t-72.5 13.5t-107 2q-53 0 -102 -21.5t-87 -57.5t-61.5 -84t-23.5 -99zM1024 594q0 -12 10 -12h197q8 0 9 9t1 13q0 23 -33.5 30t-64.5 7h-53q-20 0 -43 -5 t-23 -28v-14z" />
<glyph unicode="&#x178;" horiz-adv-x="980" d="M20 1329q4 31 29 56.5t55 21.5q45 -4 64.5 -46t35 -97.5t36 -110.5t65.5 -86q16 -10 38 -34.5t50 -26.5q27 -4 51.5 3t53.5 5q23 -2 41 -7.5t41 -7.5q45 -4 91 38t83 100.5t60.5 118t25.5 90.5q2 23 -2 41t-2 40q4 31 15 46.5t44 11.5l20 -2q20 -18 31.5 -31.5t16 -28 t3.5 -32t-3 -41.5q-4 -37 -12.5 -66t-19.5 -54.5t-25.5 -53t-28.5 -62.5q-16 -35 -35 -78t-51 -71l-89 -74q-33 -25 -70.5 -44.5t-53.5 -62.5l-13 -143q-8 -104 -6 -200.5t23 -200.5q10 -37 21 -73t7 -77q-4 -35 -31.5 -59.5t-62.5 -20.5q-27 2 -42 22.5t-23.5 49.5 t-12.5 58.5t-8 52.5q-20 104 -26 202.5t2 202.5q4 43 11 85t11 85q2 20 -27.5 48t-69.5 54.5t-77 49t-49 32.5q-29 18 -61.5 66.5t-61.5 105t-47.5 112.5t-14.5 93zM223 1620q0 35 21.5 56.5t58.5 21.5h21q29 -12 48 -41t19 -58q0 -20 -12 -36.5t-31 -22.5h-29 q-35 0 -65.5 19.5t-30.5 60.5zM553 1614q0 16 11 28.5t26.5 21.5t33 13t29.5 4h21q43 -37 43 -90q-1 -57 -64 -57q-31 0 -65.5 22.5t-34.5 57.5z" />
<glyph unicode="&#x2000;" horiz-adv-x="946" />
<glyph unicode="&#x2001;" horiz-adv-x="1892" />
<glyph unicode="&#x2002;" horiz-adv-x="946" />
<glyph unicode="&#x2003;" horiz-adv-x="1892" />
<glyph unicode="&#x2004;" horiz-adv-x="630" />
<glyph unicode="&#x2005;" horiz-adv-x="473" />
<glyph unicode="&#x2006;" horiz-adv-x="315" />
<glyph unicode="&#x2007;" horiz-adv-x="315" />
<glyph unicode="&#x2008;" horiz-adv-x="236" />
<glyph unicode="&#x2009;" horiz-adv-x="378" />
<glyph unicode="&#x200a;" horiz-adv-x="105" />
<glyph unicode="&#x2010;" horiz-adv-x="788" d="M18 907q0 6 1 17.5t3.5 14.5t17.5 18.5t21 19.5q23 10 53.5 13t63.5 3q35 0 66.5 -1t54.5 1q12 0 56 4t96.5 8.5t96.5 8.5t56 4q2 0 22.5 1t30.5 1q6 0 27 -1t27 -1q27 -10 43 -27.5t16 -46.5q0 -47 -38 -66.5t-79 -23.5q-131 -10 -265 -21.5t-265 -11.5q-37 0 -71 22.5 t-34 63.5z" />
<glyph unicode="&#x2011;" horiz-adv-x="788" d="M18 907q0 6 1 17.5t3.5 14.5t17.5 18.5t21 19.5q23 10 53.5 13t63.5 3q35 0 66.5 -1t54.5 1q12 0 56 4t96.5 8.5t96.5 8.5t56 4q2 0 22.5 1t30.5 1q6 0 27 -1t27 -1q27 -10 43 -27.5t16 -46.5q0 -47 -38 -66.5t-79 -23.5q-131 -10 -265 -21.5t-265 -11.5q-37 0 -71 22.5 t-34 63.5z" />
<glyph unicode="&#x2012;" horiz-adv-x="788" d="M18 907q0 6 1 17.5t3.5 14.5t17.5 18.5t21 19.5q23 10 53.5 13t63.5 3q35 0 66.5 -1t54.5 1q12 0 56 4t96.5 8.5t96.5 8.5t56 4q2 0 22.5 1t30.5 1q6 0 27 -1t27 -1q27 -10 43 -27.5t16 -46.5q0 -47 -38 -66.5t-79 -23.5q-131 -10 -265 -21.5t-265 -11.5q-37 0 -71 22.5 t-34 63.5z" />
<glyph unicode="&#x2013;" horiz-adv-x="1060" d="M18 907q0 6 1.5 17.5t5 14.5t23.5 18.5t29 19.5q31 10 72.5 13t86.5 3q48 0 90.5 -1t74.5 1q16 0 76 4t131.5 8.5t131.5 8.5t76 4q3 0 31 1t41 1q8 0 36.5 -1t37.5 -1q36 -10 58 -27.5t22 -46.5q0 -47 -51.5 -66.5t-107.5 -23.5q-179 -10 -361.5 -21.5t-360.5 -11.5 q-50 0 -96.5 22.5t-46.5 63.5z" />
<glyph unicode="&#x2014;" horiz-adv-x="2084" d="M18 907q0 6 2.5 17.5t9.5 14.5t48 18.5t57 19.5q63 10 146 13t173 3q95 0 181 -1t148 1q33 0 153 4t263 8.5t262.5 8.5t152.5 4q5 0 61 1t83 1q17 0 74 -1t73 -1q74 -10 117.5 -27.5t43.5 -46.5q0 -47 -103.5 -66.5t-215.5 -23.5q-356 -10 -721 -21.5t-722 -11.5 q-101 0 -193.5 22.5t-92.5 63.5z" />
<glyph unicode="&#x202f;" horiz-adv-x="378" />
<glyph unicode="&#x205f;" horiz-adv-x="473" />
<glyph unicode="&#xe000;" horiz-adv-x="1085" d="M0 0v1085h1085v-1085h-1085z" />
</font>
</defs>
</svg>
